<?xml version="1.0" encoding="UTF-8"?>
<svg id="ELEMENTS" xmlns="http://www.w3.org/2000/svg" viewBox="0 0 35 35">
  <defs>
    <style>
      .cls-1 {
        fill: #fff;
      }
    </style>
  </defs>
  <path class="cls-1" d="m24.12,9.46c-.81,0-1.47.66-1.47,1.47s.66,1.47,1.47,1.47,1.47-.66,1.47-1.47-.66-1.47-1.47-1.47Z"/>
  <path class="cls-1" d="m17.6,11.34c-3.39,0-6.16,2.76-6.16,6.16s2.76,6.16,6.16,6.16,6.16-2.76,6.16-6.16-2.76-6.16-6.16-6.16Zm0,10.1c-2.17,0-3.94-1.77-3.94-3.94s1.77-3.94,3.94-3.94,3.94,1.77,3.94,3.94-1.77,3.94-3.94,3.94Z"/>
  <path class="cls-1" d="m22.49,30h-9.98c-4.14,0-7.51-3.37-7.51-7.51v-9.98c0-4.14,3.37-7.51,7.51-7.51h9.98c4.14,0,7.51,3.37,7.51,7.51v9.98c0,4.14-3.37,7.51-7.51,7.51ZM12.51,7.35c-2.84,0-5.16,2.31-5.16,5.16v9.98c0,2.84,2.31,5.16,5.16,5.16h9.98c2.84,0,5.16-2.31,5.16-5.16v-9.98c0-2.84-2.31-5.16-5.16-5.16h-9.98Z"/>
</svg>