<?xml version="1.0" encoding="UTF-8"?>
<svg id="ELEMENTS" xmlns="http://www.w3.org/2000/svg" viewBox="0 0 35 35">
  <defs>
    <style>
      .cls-1 {
        fill: #fff;
      }
    </style>
  </defs>
  <path class="cls-1" d="m32.56,8c-.96.44-2.03.7-3.07.88.49-.08,1.22-.98,1.51-1.34.44-.55.81-1.18,1.02-1.86.03-.05.05-.12,0-.16-.07-.03-.11-.01-.16.01-1.16.62-2.36,1.07-3.64,1.39-.11.03-.18,0-.25-.07-.11-.12-.21-.23-.32-.33-.54-.46-1.11-.82-1.76-1.08-.85-.35-1.79-.5-2.71-.44-.89.06-1.77.31-2.57.73-.8.42-1.51.99-2.07,1.69-.58.72-1.02,1.57-1.24,2.48-.21.87-.2,1.73-.07,2.62.02.15,0,.17-.13.15-5-.74-9.15-2.53-12.51-6.37-.15-.17-.23-.17-.35.01-1.47,2.21-.76,5.75,1.08,7.5.25.23.5.46.77.68-.1.02-1.32-.11-2.41-.68-.15-.09-.22-.04-.23.13-.01.24,0,.46.04.72.28,2.24,1.83,4.31,3.95,5.12.25.11.53.2.8.25-.48.11-.98.18-2.37.07-.17-.03-.24.05-.17.22,1.04,2.84,3.29,3.69,4.98,4.17.23.04.45.04.68.09-.01.02-.03.02-.04.04-.56.85-2.5,1.49-3.4,1.8-1.64.57-3.43.83-5.16.66-.28-.04-.34-.04-.41,0-.08.05,0,.11.08.19.35.23.71.44,1.08.64,1.1.58,2.25,1.05,3.45,1.38,6.2,1.71,13.18.45,17.84-4.17,3.66-3.63,4.94-8.64,4.94-13.66,0-.2.23-.3.37-.41.95-.71,1.72-1.57,2.43-2.52.16-.21.16-.41.16-.48v-.03c0-.08,0-.06-.12,0Z"/>
</svg>