<?xml version="1.0" encoding="UTF-8"?>
<svg id="_11" data-name="11" xmlns="http://www.w3.org/2000/svg" viewBox="0 0 100 92">
  <defs>
    <style>
      .cls-1 {
        fill: #fff;
      }

      .cls-2 {
        fill: #ffe724;
      }

      .cls-3 {
        fill: #231f20;
      }
    </style>
  </defs>
  <g>
    <path class="cls-1" d="m27.46,21.22h44.95c2.65,0,4.81,2.15,4.81,4.81v49.53c0,2.65-2.15,4.8-4.8,4.8H27.46c-2.65,0-4.8-2.15-4.8-4.8V26.02c0-2.65,2.15-4.8,4.8-4.8Z"/>
    <path class="cls-2" d="m29.59,23.7h42.71c2.52,0,4.56,2.05,4.56,4.56v47.05c0,2.52-2.05,4.57-4.57,4.57H29.59c-2.52,0-4.56-2.04-4.56-4.56V28.27c0-2.52,2.05-4.56,4.56-4.56Z"/>
    <path class="cls-3" d="m72.41,81.11H27.46c-3.06,0-5.55-2.49-5.55-5.55V26.02c0-3.06,2.49-5.55,5.55-5.55h44.95c3.06,0,5.56,2.49,5.56,5.55v49.53c0,3.06-2.49,5.55-5.56,5.55ZM27.46,21.97c-2.24,0-4.05,1.82-4.05,4.05v49.53c0,2.23,1.82,4.05,4.05,4.05h44.95c2.24,0,4.06-1.82,4.06-4.05V26.02c0-2.24-1.82-4.05-4.06-4.05H27.46Z"/>
  </g>
  <path class="cls-3" d="m43.02,39.51s-.03,0-.05,0c-6.9-.46-13.81-1.66-20.52-3.56-.4-.11-.63-.53-.52-.93.11-.4.53-.63.93-.52,6.61,1.87,13.41,3.05,20.21,3.51.41.03.73.38.7.8-.03.4-.36.7-.75.7Zm13.83-.05c-.39,0-.72-.3-.75-.7-.03-.41.28-.77.69-.8,6.63-.48,13.44-1.64,20.22-3.46.41-.11.81.13.92.53.11.4-.13.81-.53.92-6.88,1.84-13.78,3.02-20.5,3.51-.02,0-.04,0-.05,0Z"/>
  <path class="cls-3" d="m43.02,45.34s-.03,0-.05,0c-6.91-.46-13.81-1.66-20.52-3.56-.4-.11-.63-.53-.52-.93.11-.4.53-.63.93-.52,6.61,1.87,13.41,3.05,20.21,3.5.41.03.73.38.7.8-.03.4-.36.7-.75.7Zm13.83-.05c-.39,0-.72-.3-.75-.7-.03-.41.28-.77.69-.8,6.68-.49,13.48-1.65,20.22-3.46.41-.11.81.13.92.53.11.4-.13.81-.53.92-6.83,1.83-13.73,3.01-20.5,3.5-.02,0-.04,0-.06,0Z"/>
  <g>
    <rect class="cls-1" x="43.02" y="35.53" width="13.83" height="12.76"/>
    <rect class="cls-2" x="44.38" y="36.86" width="13.14" height="12.13"/>
    <path class="cls-3" d="m56.86,49.05h-13.83c-.41,0-.75-.34-.75-.75v-12.76c0-.41.34-.75.75-.75h13.83c.41,0,.75.34.75.75v12.76c0,.41-.34.75-.75.75Zm-13.08-1.5h12.33v-11.26h-12.33v11.26Z"/>
  </g>
  <g>
    <rect class="cls-1" x="32.74" y="63.65" width="34.39" height="9.03"/>
    <rect class="cls-2" x="34.61" y="64.89" width="32.67" height="8.58"/>
    <path class="cls-3" d="m67.13,73.43h-34.39c-.41,0-.75-.34-.75-.75v-9.03c0-.41.34-.75.75-.75h34.39c.41,0,.75.34.75.75v9.03c0,.41-.34.75-.75.75Zm-33.64-1.5h32.89v-7.53h-32.89v7.53Z"/>
  </g>
  <g>
    <path class="cls-1" d="m77.42,39.34c0-1.1-.3-10.47-.14-10.62.44-.4,4.98,1.69,5.54,2.02,8.05,4.95,5.28,8.78,6.04,16.78.4,4.28-.3,6.57-.6,10.59-.26,5.12-.41,7.09-6.39,7.41-1.55.08-3.1.1-4.65.14.03-8.78.15-17.55.2-26.32Z"/>
    <path class="cls-2" d="m78.71,40.74c0-1.05-.28-9.95-.13-10.09.42-.38,4.73,1.61,5.27,1.92,7.65,4.7,5.01,8.34,5.73,15.94.38,4.06-.28,6.24-.57,10.06-.25,4.87-.39,6.73-6.07,7.04-1.47.08-2.95.1-4.42.14.02-8.34.14-16.67.19-25.01Z"/>
    <path class="cls-3" d="m77.22,66.42c-.2,0-.38-.08-.52-.21-.14-.14-.23-.34-.23-.54.01-5.04.06-10.07.11-15.11.04-3.74.07-7.48.09-11.22,0-.34-.03-1.47-.06-2.88q-.2-7.96.17-8.29c.18-.16.42-.25.71-.25,1.29,0,5.37,1.97,5.72,2.17,6.42,3.95,6.36,7.39,6.28,12.15-.03,1.53-.06,3.25.13,5.21.29,3.02.04,5.04-.25,7.37-.13,1.04-.26,2.11-.35,3.35-.26,4.99-.4,7.74-7.1,8.1-1.16.06-2.32.09-3.48.11l-1.19.03h-.02Zm.76-36.9c-.01,1.45.07,4.89.12,6.9.04,1.43.06,2.58.06,2.92-.02,3.74-.06,7.48-.09,11.22-.04,4.78-.09,9.55-.11,14.33h.42c1.15-.04,2.29-.06,3.44-.12,5.35-.29,5.42-1.65,5.68-6.7.1-1.29.23-2.38.36-3.44.28-2.25.51-4.19.24-7.05-.19-2.04-.16-3.81-.13-5.37.08-4.58.13-7.34-5.55-10.83-.55-.32-3.21-1.51-4.45-1.86Z"/>
  </g>
  <g>
    <path class="cls-1" d="m41.87,12.2h16.13c.85,0,1.54.69,1.54,1.54v7.48h-19.21v-7.48c0-.85.69-1.54,1.54-1.54Z"/>
    <path class="cls-2" d="m43.28,13.44h15.32c.81,0,1.46.66,1.46,1.46v7.1h-18.25v-7.1c0-.81.66-1.46,1.46-1.46Z"/>
    <path class="cls-3" d="m59.54,21.97h-19.21c-.41,0-.75-.34-.75-.75v-7.48c0-1.26,1.03-2.29,2.29-2.29h16.13c1.26,0,2.29,1.03,2.29,2.29v7.48c0,.41-.34.75-.75.75Zm-18.46-1.5h17.71v-6.73c0-.44-.35-.79-.79-.79h-16.13c-.43,0-.79.35-.79.79v6.73Z"/>
  </g>
  <g>
    <path class="cls-1" d="m22.62,39.34c0-1.1.3-10.47.14-10.62-.43-.4-4.98,1.69-5.54,2.02-8.05,4.95-5.27,8.78-6.04,16.78-.41,4.28.3,6.57.6,10.59.27,5.12.42,7.09,6.39,7.41,1.55.08,3.1.1,4.65.14-.02-8.78-.14-17.55-.2-26.32Z"/>
    <path class="cls-2" d="m23.34,40.74c0-1.05.29-9.95.13-10.09-.41-.38-4.73,1.61-5.26,1.92-7.65,4.7-5.01,8.34-5.74,15.94-.39,4.06.29,6.24.57,10.06.25,4.87.4,6.73,6.07,7.04,1.47.08,2.94.1,4.42.14-.02-8.34-.14-16.67-.19-25.01Z"/>
    <path class="cls-3" d="m22.82,66.42h-.02l-1.18-.03c-1.16-.03-2.32-.05-3.49-.12-6.7-.36-6.84-3.12-7.1-8.12-.09-1.23-.22-2.31-.35-3.35-.27-2.23-.53-4.34-.25-7.36.19-1.96.16-3.69.13-5.21-.08-4.76-.14-8.19,6.26-12.13.35-.21,4.45-2.18,5.73-2.18.29,0,.54.09.71.25q.35.32.16,8.42c-.03,1.34-.06,2.41-.06,2.74.02,3.4.06,6.79.09,10.19.05,5.38.1,10.75.12,16.13,0,.2-.08.4-.23.54-.14.14-.33.21-.52.21Zm-.77-36.89c-1.25.36-3.95,1.57-4.45,1.87-5.66,3.48-5.62,6.25-5.54,10.82.03,1.57.06,3.34-.14,5.38-.27,2.85-.03,4.79.24,7.03.13,1.06.26,2.15.36,3.43.26,5.07.33,6.43,5.68,6.71,1.15.06,2.29.09,3.44.11h.42c-.02-5.11-.06-10.22-.11-15.34-.03-3.4-.07-6.8-.09-10.2,0-.34.03-1.43.06-2.79.05-2.06.14-5.57.13-7.04Z"/>
  </g>
</svg>