<?xml version="1.0" encoding="UTF-8"?>
<svg id="_11" data-name="11" xmlns="http://www.w3.org/2000/svg" viewBox="0 0 97 101">
  <defs>
    <style>
      .cls-1 {
        fill: #fff;
      }

      .cls-2 {
        fill: #ffe724;
      }

      .cls-3 {
        fill: #231f20;
      }
    </style>
  </defs>
  <path class="cls-3" d="m53.38,69.27c-.12,0-.23-.03-.34-.08l-1.08-.55c-.37-.19-.52-.64-.33-1.01l.86-1.7c.15-.29.48-.45.79-.4.32.05.58.31.62.64.11.81.18,1.56.22,2.31.01.27-.11.52-.34.67-.12.08-.27.12-.41.12Zm5.95-2.03c-.34,0-.65-.23-.73-.57-.18-.75-.4-1.54-.69-2.42-.02-.05-.03-.11-.03-.17-.03-.05-.05-.1-.07-.16-.25-.75-.51-1.49-.8-2.24-.02-.04-.03-.09-.04-.13-.03-.04-.05-.09-.07-.14-.2-.53-.42-1.06-.63-1.59l-.1-.25c-.07-.17-.07-.36-.02-.52-.16-.08-.29-.21-.37-.38-.31-.72-.62-1.44-.94-2.16-.09-.19-.09-.41,0-.61-.19-.07-.36-.21-.45-.41l-.42-.94c-.04-.09-.06-.18-.06-.27-.07-.07-.13-.15-.17-.24l-.62-1.4c-.05-.12-.07-.26-.06-.39-.11-.08-.19-.18-.25-.31-.28-.65-.55-1.29-.82-1.94-.09-.21-.07-.46.04-.66-.22-.06-.4-.22-.49-.44-.29-.73-.57-1.47-.82-2.21-.06-.16-.05-.34,0-.49-.14-.09-.25-.23-.31-.4-.27-.84-.5-1.6-.68-2.31-.06-.22,0-.46.13-.65.14-.18.36-.29.59-.29h.67c.41,0,.75.34.75.75v2.27s0,.09-.01.13h.37c.41,0,.75.34.75.75v2.18c0,.12-.03.24-.08.34h.59c.41,0,.75.34.75.75v1.87h.17c.41,0,.75.34.75.75v1.16c.36.05.64.36.64.74v.94c0,.09-.02.18-.05.26h.69c.41,0,.75.34.75.75v2.17c0,.06,0,.11-.02.17h.4c.41,0,.75.34.75.75v1.37h.17c.41,0,.75.34.75.75v1.86h.06c.41,0,.75.34.75.75v2.48c0,.38-.28.7-.66.75-.03,0-.06,0-.09,0Zm-6.51-2.34c-.09,0-.19-.02-.27-.05l-1.2-.47c-.19-.07-.33-.22-.41-.4-.08-.18-.08-.39-.01-.57l.72-1.82c.05-.14.14-.25.26-.33h-.66c-.41,0-.75-.34-.75-.75v-2.5h-.13c-.41,0-.75-.34-.75-.75v-2.35h-.14c-.41,0-.75-.34-.75-.75v-2.12h-.13c-.41,0-.75-.34-.75-.75v-2.66c0-.14.04-.27.11-.38h-.15c-.41,0-.75-.34-.75-.75v-2.6c0-.39.3-.71.68-.75.39-.03.74.23.8.62.14.78.31,1.62.53,2.56.05.22,0,.45-.14.63.2.09.35.27.41.49.22.88.47,1.76.72,2.65.02.08.03.16.03.23.04.06.08.14.1.22.23.8.47,1.61.71,2.41.03.1.04.21.02.31.07.08.12.17.15.27.25.84.51,1.69.75,2.52.03.11.04.22.02.32.07.08.12.17.15.26.26.89.5,1.79.73,2.69.06.22,0,.46-.13.65-.05.06-.1.11-.16.15.31.04.56.27.63.57.18.78.35,1.56.49,2.33.05.27-.05.54-.26.71-.14.11-.31.17-.48.17Z"/>
  <g>
    <path class="cls-1" d="m45.95,39.8c-.07-.18-.21-.25-.32-.21-.11.04,0,.19.08.38.07.19.07.34.18.3.11-.04.13-.28.06-.47Z"/>
    <path class="cls-2" d="m46.95,40.81c-.07-.17-.2-.24-.3-.2-.11.04,0,.18.07.36.07.18.06.32.17.28.11-.04.13-.27.06-.45Z"/>
    <path class="cls-3" d="m45.85,41.02c-.23,0-.65-.09-.82-.71l-.06-.17c-.08-.16-.22-.46-.07-.81.08-.2.28-.38.48-.45.09-.04.21-.06.32-.06.42,0,.78.27.95.7.13.33.13.69,0,.98-.1.22-.28.39-.5.47-.08.03-.21.05-.29.05Zm-.22-1.46c-.16.06-.29.18-.35.32,0,.01-.05.12-.03.18.05.13.22.26.45.26v-.57l-.06-.2Zm.22.58l.04.14c.16-.06.3-.19.38-.36.04-.08.05-.15.06-.22-.11-.1-.27-.18-.48-.18v.62Z"/>
  </g>
  <g>
    <path class="cls-1" d="m47.29,40.7c.55,9.9,6.24,19.8,6.14,29.7,1.57-.81,3.51-1.29,5.61-1.29.28,0,.54,0,.82.03-1.38-9.61-8.58-19.22-9.99-28.83-.89-.13-1.84-.03-2.57.39Z"/>
    <path class="cls-2" d="m48.61,42.44c.52,9.4,5.93,18.81,5.83,28.22,1.5-.77,3.34-1.23,5.33-1.23.26,0,.51,0,.77.02-1.31-9.13-8.15-18.26-9.49-27.39-.84-.12-1.75-.02-2.45.37Z"/>
    <path class="cls-3" d="m53.43,71.15c-.14,0-.27-.04-.39-.11-.22-.14-.36-.38-.36-.65.05-5.13-1.53-10.41-3.06-15.51-1.38-4.62-2.82-9.4-3.08-14.14-.02-.29.13-.55.38-.69.83-.47,1.96-.64,3.05-.48.33.05.58.31.63.63.69,4.69,2.85,9.51,4.93,14.18,2.14,4.78,4.35,9.73,5.06,14.65.03.22-.04.45-.19.62-.15.17-.37.25-.6.24-2.14-.15-4.29.29-6.03,1.18-.11.06-.23.08-.34.08Zm-5.36-29.98c.33,4.4,1.68,8.91,2.99,13.28,1.45,4.83,2.94,9.82,3.11,14.8,1.47-.58,3.11-.88,4.8-.89-.8-4.43-2.83-8.97-4.8-13.37-2.04-4.57-4.15-9.28-4.95-13.98-.41,0-.8.05-1.14.16Z"/>
  </g>
  <g>
    <path class="cls-1" d="m49.97,69.14c-3.14.78-5.15,1.5-4.23,5.21,1.15,3.73,5.18,2.46,8.08,3.32,2.79.87,2.92,1.85,5.75.31,3.11-1.7,5.69-.85,8.6-2.29,1.48-.72,1.24-1.53.39-2.8-1.02-1.52-2.34-2.59-3.39-4.29-1.35-2.19-2.49-3.96-5.38-2.93-.21.09-.42.18-.61.28.28,1.06.51,2.13.66,3.2-.27-.02-.54-.03-.82-.03-2.1,0-4.04.48-5.61,1.29,0-.6,0-1.19-.04-1.8h-.04c-.77.06-1.42.13-2.17.27-.41.08-.8.16-1.21.27Z"/>
    <path class="cls-2" d="m51.35,70.29c-2.99.74-4.9,1.42-4.02,4.95,1.09,3.55,4.92,2.33,7.68,3.15,2.65.83,2.78,1.76,5.46.29,2.95-1.62,5.4-.81,8.17-2.18,1.4-.68,1.18-1.46.37-2.66-.97-1.45-2.22-2.46-3.22-4.08-1.28-2.08-2.37-3.76-5.11-2.79-.2.09-.4.17-.58.27.27,1.01.48,2.02.63,3.04-.26-.02-.51-.02-.78-.02-1.99,0-3.83.46-5.33,1.23,0-.57,0-1.13-.04-1.71h-.04c-.73.06-1.35.13-2.06.25-.39.07-.76.16-1.14.25Z"/>
    <path class="cls-3" d="m57.22,79.54h0c-.72,0-1.31-.25-2-.54-.45-.19-.95-.4-1.62-.61-.77-.23-1.67-.29-2.62-.36-2.34-.16-5-.34-5.96-3.46-.41-1.63-.33-2.85.23-3.79.82-1.37,2.47-1.87,4.53-2.38.41-.1.82-.2,1.25-.27.77-.13,1.44-.21,2.24-.27.18-.02.38.03.53.14.18.13.31.33.32.56.01.23.02.46.03.68,1.47-.57,3.1-.88,4.8-.89-.13-.74-.3-1.48-.5-2.23-.09-.34.07-.7.38-.86.21-.11.43-.21.66-.3,3.51-1.25,4.96,1.03,6.32,3.23.54.87,1.17,1.59,1.78,2.29.54.61,1.1,1.25,1.59,1.98.48.72.98,1.56.74,2.43-.16.59-.63,1.07-1.43,1.46-1.49.74-2.9.92-4.25,1.09-1.45.18-2.81.36-4.32,1.19-1.16.63-1.97.91-2.72.91Zm-4.55-10.12c-.46.04-.89.11-1.37.19-.39.07-.77.16-1.15.25-1.72.43-3.08.82-3.61,1.69-.34.57-.37,1.43-.07,2.61.61,1.99,2.15,2.19,4.62,2.36.99.07,2.01.14,2.95.42.75.23,1.32.47,1.77.67.6.25.99.42,1.41.42h0c.47,0,1.09-.22,2-.72,1.76-.96,3.33-1.16,4.85-1.36,1.29-.17,2.51-.32,3.78-.95.54-.26.63-.45.64-.51.05-.19-.13-.59-.54-1.2-.44-.66-.94-1.23-1.47-1.83-.65-.74-1.33-1.51-1.93-2.49-1.41-2.29-2.33-3.38-4.48-2.62.22.9.39,1.79.52,2.67.03.22-.04.45-.19.62-.15.17-.38.25-.6.24-2.14-.15-4.29.29-6.03,1.18-.23.12-.51.11-.74-.03-.22-.14-.36-.38-.36-.65,0-.32,0-.65,0-.97Z"/>
  </g>
  <g>
    <path class="cls-1" d="m38.25,29.2c-4.24-1.07-8.22-.98-11.95.08,2.13-1.32,4.3-2.43,6.53-3.28,3.27.94,6.08,2.38,1.59-.55,1.19-.37,2.39-.67,3.6-.88,2.24,1.43,3.63,2.79,1.11-.16.55-.07,1.11-.12,1.67-.16l-.15-.3c3.99.27,2.07-.03-.52-1.02-1.73-3.16-4-5.51-6.73-7.18,1.99.55,3.88,1.23,5.62,2.11,1.26,2.51,1.95,5,1.23.66.89.51,1.74,1.08,2.54,1.69.39,2.15.34,3.76.72.58.78.66,1.52,1.38,2.22,2.16l.26,1.45c.85.07.05-.05,1.63.17.87-.77,1.78-1.46,2.73-2.09.03,3.88.19,1.94.95-.6,1.05-.64,2.16-1.19,3.3-1.69-1.48,5.15-.29,2.23,1.56-.62,2.23-.82,4.6-1.4,7.09-1.79-3.53,1.64-6.59,4.16-9.1,7.75l-2.3.6c.97.32,1.8.65,2.33.85-3.35,1.6-.4.83,1.44.55,1.28.53,2.49,1.15,3.64,1.85-3.81,1.82-1.83,1.08,1.03.65,1.12.75,2.19,1.57,3.2,2.47-5.75.93-2.33.75,1.34,1.26,1.85,1.82,3.52,3.89,5.05,6.15-3.25-2.71-7.16-4.57-11.86-5.39-2.33-2.81-4.06-5.16-2.03-.27-2.48-.31-4.85.75,1.47,1.53,1.13.88,2.17,1.84,3.13,2.86-4.31.77-2.13.57.85.94.91,1.05,1.74,2.17,2.5,3.34-6-.66-2.54.09.99,1.62,1.33,2.33,2.43,4.85,3.33,7.53-2.49-3.61-5.88-6.53-10.34-8.65-1.55-3.46-2.1-6.08-1.43-.64-.92-.38-1.88-.73-2.89-1.04-2.03-3.84-2.71-6.37-1.58-.46-1.18-1.32-4.6-1.56-5.66.33-.22-6.02-.31-3.39-1.43.8-.91.53-1.77,1.08-2.58,1.66-.57-5.45-.52-2.78-1.25.94-3.88,3.06-6.53,6.68-8.14,10.75.28-2.82.78-5.52,1.56-8.09,3.1-2.28,6.3-3.8.6-1.8.48-1.32,1.04-2.59,1.69-3.82,2.82-1.02,4.99-1.33.61-1.1.71-1.21,1.51-2.38,2.41-3.49l-1.14-3.02c-.66,1.32-1.32,2.62-1.98,3.94-4.4,1.85-7.79,4.53-10.35,7.9.99-2.55,2.15-4.94,3.54-7.13,3.47-1.32,6.84-1.91,1.02-1.52.79-1.1,1.64-2.14,2.56-3.12,2.89-.22,4.98.06.86-.87.97-.94,2.01-1.82,3.14-2.62,2.58-.2,5.58.09,1.28-.87,2.64-1.75,5.34-3.84-.49-.96Z"/>
    <path class="cls-2" d="m39.75,30.54c-4.03-1.01-7.81-.93-11.35.08,2.02-1.26,4.08-2.31,6.2-3.11,3.11.9,5.77,2.26,1.51-.52,1.13-.35,2.27-.64,3.42-.83,2.13,1.36,3.45,2.65,1.06-.16.52-.06,1.05-.11,1.59-.15l-.14-.28c3.79.25,1.96-.03-.49-.97-1.64-3-3.8-5.24-6.39-6.82,1.89.52,3.68,1.17,5.34,2,1.2,2.38,1.86,4.75,1.16.62.84.49,1.65,1.02,2.41,1.6.37,2.04.32,3.57.68.55.74.63,1.45,1.31,2.1,2.05l.25,1.38c.81.06.05-.05,1.55.16.83-.73,1.69-1.39,2.59-1.99.03,3.69.18,1.84.9-.57,1-.6,2.05-1.13,3.13-1.6-1.4,4.89-.28,2.12,1.49-.59,2.12-.78,4.37-1.33,6.73-1.7-3.36,1.56-6.26,3.95-8.65,7.36l-2.18.57c.92.31,1.71.62,2.21.81-3.19,1.52-.38.79,1.37.53,1.21.5,2.36,1.09,3.46,1.76-3.62,1.73-1.73,1.02.98.62,1.06.72,2.08,1.49,3.04,2.34-5.47.88-2.22.71,1.27,1.2,1.75,1.73,3.34,3.69,4.8,5.84-3.09-2.58-6.8-4.34-11.27-5.12-2.22-2.67-3.85-4.9-1.93-.25-2.36-.29-4.61.72,1.39,1.46,1.07.83,2.06,1.75,2.97,2.71-4.1.73-2.03.54.81.9.86,1,1.66,2.07,2.38,3.18-5.7-.63-2.41.09.94,1.54,1.27,2.21,2.31,4.61,3.16,7.16-2.37-3.43-5.58-6.21-9.82-8.22-1.48-3.29-2-5.77-1.36-.61-.87-.36-1.79-.69-2.74-.99-1.93-3.65-2.57-6.05-1.5-.44-1.12-1.25-4.37-1.49-5.37.31-.21-5.72-.3-3.22-1.36.76-.87.5-1.68,1.03-2.45,1.58-.54-5.18-.49-2.64-1.19.89-3.68,2.91-6.2,6.34-7.73,10.21.26-2.67.74-5.25,1.48-7.68,2.94-2.17,5.99-3.61.57-1.71.46-1.25.99-2.46,1.61-3.63,2.67-.97,4.74-1.26.58-1.05.67-1.15,1.43-2.26,2.29-3.32l-1.08-2.87c-.63,1.25-1.26,2.49-1.88,3.74-4.18,1.75-7.4,4.3-9.83,7.51.94-2.42,2.04-4.69,3.36-6.77,3.3-1.26,6.5-1.82.97-1.45.75-1.05,1.55-2.04,2.43-2.96,2.75-.21,4.73.05.81-.83.92-.9,1.91-1.73,2.98-2.49,2.45-.19,5.31.09,1.22-.83,2.51-1.67,5.07-3.65-.46-.91Z"/>
    <path class="cls-3" d="m32.94,56.53c-.06,0-.12,0-.18-.02-.36-.09-.61-.43-.57-.8.29-2.96.83-5.73,1.59-8.23.05-.15.14-.29.27-.39.24-.18.49-.35.73-.52-.08-.04-.15-.09-.21-.15-.2-.21-.27-.51-.17-.78.5-1.37,1.08-2.69,1.74-3.92.09-.16.23-.29.41-.35.06-.02.13-.05.19-.07-.11-.22-.1-.49.03-.71.67-1.14,1.41-2.23,2.2-3.25l-.39-1.03c-.4.8-.81,1.61-1.21,2.41-.08.16-.22.29-.38.36-4.12,1.73-7.5,4.31-10.04,7.67-.23.3-.64.38-.96.2-.33-.18-.47-.58-.33-.93,1.04-2.69,2.25-5.13,3.6-7.26.09-.14.21-.24.37-.3.26-.1.52-.19.77-.28-.05-.05-.1-.11-.13-.17-.14-.25-.12-.57.05-.8.82-1.15,1.71-2.23,2.63-3.2.13-.13.3-.22.49-.23.06,0,.12,0,.17-.01-.03-.24.05-.48.22-.64,1.02-.99,2.11-1.9,3.23-2.7.11-.08.24-.13.38-.14.2-.01.4-.03.6-.04-.01-.11,0-.22.04-.33-3.97-.99-7.83-.96-11.53.09-.36.1-.74-.08-.89-.42-.15-.34-.03-.74.29-.94,2.24-1.39,4.48-2.52,6.66-3.34.15-.06.32-.06.47-.02.21.06.43.13.64.19,0-.04,0-.08,0-.12.04-.29.24-.53.52-.61,1.27-.4,2.48-.69,3.69-.9.18-.03.37,0,.53.11.03.02.06.04.08.05.12-.18.31-.3.54-.33.24-.03.48-.05.72-.08-.12-.07-.22-.17-.28-.29-1.61-2.95-3.78-5.27-6.46-6.9-.32-.19-.45-.59-.3-.94.15-.34.52-.52.89-.43,2.15.59,4.04,1.3,5.76,2.16.14.07.26.19.33.33.06.12.12.23.17.35.23-.14.52-.14.76,0,.92.53,1.8,1.12,2.62,1.74.14.11.24.26.28.43.17,0,.34.06.47.18.83.7,1.6,1.45,2.29,2.24.09.1.15.23.18.37l.15.86c.12,0,.3.03.76.1.8-.69,1.65-1.34,2.55-1.93.18-.12.41-.15.62-.1,0-.03.02-.06.03-.1.05-.18.17-.33.33-.43,1.02-.62,2.13-1.19,3.39-1.74.27-.12.58-.07.79.12.03.03.06.06.09.09.11-.18.23-.37.35-.56.09-.13.22-.24.37-.29,2.18-.8,4.61-1.42,7.23-1.83.38-.05.73.17.83.52s-.06.74-.4.9c-3.49,1.62-6.45,4.14-8.81,7.5-.1.14-.24.24-.4.29l.08.03c.26.1.45.34.48.61.2-.04.4-.07.59-.1.14-.02.27,0,.4.05,1.28.53,2.54,1.17,3.75,1.91.21.13.34.34.36.58.06,0,.12-.02.17-.03.19-.03.37.02.53.12,1.17.79,2.27,1.64,3.27,2.53.22.19.3.49.22.77-.02.07-.05.14-.09.2.27.03.54.07.81.1.16.02.31.1.42.21,1.82,1.79,3.5,3.84,5.14,6.26.21.31.16.73-.12.98-.28.25-.7.26-.98.02-3.2-2.67-7.02-4.42-11.37-5.2,1.09.86,2.13,1.81,3.1,2.84.17.18.24.44.18.69.07,0,.14.02.21.03.18.02.35.11.47.25.91,1.05,1.77,2.2,2.57,3.42.16.24.16.56.01.8-.05.08-.11.14-.17.2.27.11.55.23.82.34.15.06.27.18.35.32,1.31,2.29,2.45,4.87,3.39,7.67.12.35-.04.74-.38.91-.33.17-.74.06-.95-.25-2.47-3.58-5.85-6.41-10.05-8.4-.16-.08-.29-.21-.36-.37-.07-.15-.13-.29-.19-.44-.03.03-.06.06-.1.09-.21.16-.49.2-.74.1-.92-.38-1.87-.72-2.82-1.02-.19-.06-.35-.19-.44-.37-.08-.16-.17-.32-.25-.47-.07.14-.19.26-.34.33-.3.15-.67.08-.89-.17-.42-.47-1.33-.79-2.27-.79-1.02,0-1.83.37-2.17.98-.16.29-.5.44-.83.37-.16-.04-.3-.13-.4-.25-.04.17-.09.34-.13.51-.05.19-.18.36-.35.46-.89.52-1.74,1.07-2.52,1.62-.22.16-.5.19-.74.07-.04-.02-.08-.04-.12-.07-.03.15-.06.31-.09.47-.03.18-.13.33-.27.44-3.64,2.88-6.3,6.39-7.91,10.44-.12.29-.4.47-.7.47Zm2.2-8.38c-.3,1.02-.56,2.08-.79,3.19,1.57-2.5,3.59-4.75,6.04-6.72.15-.81.27-1.56.37-2.17.26-1.65.35-2.2,1.09-2.2s.86.37,1.1,2.52c.43-.28.87-.56,1.32-.82.23-.88.41-1.69.56-2.34.41-1.78.51-2.26,1.22-2.26.74,0,.88.34.98,2.65,1.08-.56,2.68-.62,3.93-.2-.35-1.95-.3-2.17-.05-2.47.14-.17.38-.28.6-.28.58,0,.74.34,1.52,1.95.29.6.65,1.34,1.07,2.15.49.16.99.33,1.47.51-.23-2.01-.16-2.18.09-2.46.14-.16.37-.26.58-.26.61,0,.76.37,1.38,1.92.23.57.51,1.28.84,2.03,2.83,1.37,5.3,3.11,7.4,5.2-.46-1.03-.96-2-1.48-2.94-.82-.35-1.62-.65-2.29-.9-1.77-.67-2.31-.88-2.17-1.61.13-.69.89-.69,1.14-.69.29,0,.71.03,1.32.08-.43-.6-.89-1.17-1.35-1.72-.63-.07-1.21-.12-1.69-.16-1.31-.11-1.91-.16-1.95-.9-.03-.62.25-.8,1.64-1.08-.61-.59-1.25-1.14-1.9-1.66-3.82-.49-4.54-1.07-4.49-1.9.05-.88,1.17-1.12,2.2-1.15-.64-1.68-.6-2.06-.37-2.42.14-.21.44-.37.69-.37.61,0,1.08.54,2.78,2.61l.46.56c2.93.54,5.64,1.5,8.1,2.87-.67-.79-1.35-1.53-2.05-2.23-.84-.11-1.65-.19-2.33-.25-1.89-.18-2.46-.23-2.49-1.01-.02-.67.42-.88,2.09-1.18-.53-.42-1.07-.82-1.64-1.21-.59.09-1.14.2-1.59.28-.69.13-1.03.2-1.27.2-.51,0-.77-.33-.83-.61-.12-.54.09-.78,1.23-1.36-.7-.38-1.41-.72-2.13-1.03-.3.05-.61.1-.92.16-.73.13-1.36.24-1.74.24-.74,0-.91-.49-.94-.65-.09-.39.07-.68.45-.96-.24-.09-.49-.17-.76-.26-.31-.11-.52-.41-.51-.74.01-.33.24-.62.56-.7l2.03-.53c1.53-2.13,3.29-3.94,5.28-5.41-.8.22-1.57.46-2.31.73-.42.65-.79,1.29-1.11,1.83-.83,1.41-1.03,1.75-1.57,1.75-.24,0-.48-.12-.62-.31-.22-.29-.27-.54.09-1.9-.53.26-1.03.53-1.5.81-.15.52-.27,1-.38,1.4-.3,1.17-.42,1.65-1.08,1.65s-.81-.32-.86-1.52c-.52.39-1.02.8-1.5,1.23-.16.14-.38.21-.6.18-.97-.13-1-.13-1.07-.13-.07,0-.18,0-.51-.03-.34-.03-.62-.28-.68-.62l-.22-1.24c-.31-.34-.63-.67-.96-.99-.13.72-.31.99-.74,1.02.3.19.42.41.36.78-.11.69-.84.69-1.15.69-.26,0-.64-.02-1.17-.05-.13.15-.31.24-.51.25-.08,0-.16.01-.24.02.63.78.72,1.05.53,1.45-.12.27-.41.45-.7.45-.33,0-.56-.16-1.4-.75-.34-.23-.74-.52-1.19-.81-.55.1-1.1.22-1.66.37,1.2.83,1.43,1.13,1.27,1.65-.09.32-.46.56-.79.56-.31,0-.74-.14-1.78-.5-.59-.2-1.3-.44-2.04-.66-.73.28-1.47.6-2.22.96,2.46-.18,4.98.04,7.53.65,2.6-1.27,3.15-1.38,3.46-1.38.39,0,.71.22.81.57.13.44.22.73-1.88,2.23.85.25,1.15.5,1.1,1.05-.07.76-.71.78-2.24.82-.51.01-1.11.03-1.69.07-.63.46-1.25.95-1.85,1.48,1.27.32,1.56.52,1.51,1.12-.07.74-.66.76-1.96.8-.46.02-1.01.04-1.61.08-.45.49-.9,1.01-1.33,1.55.38-.02.68-.03.92-.03.51,0,1.28,0,1.4.72.12.75-.42.93-2.19,1.51-.65.21-1.43.47-2.22.77-.52.83-1.01,1.71-1.49,2.63,2.09-1.88,4.52-3.42,7.25-4.6.51-1.03,1.03-2.05,1.54-3.07l.31-.62c.13-.27.41-.44.71-.41.3.02.56.21.66.48l1.14,3.02c.09.25.05.53-.12.74-.57.7-1.1,1.44-1.61,2.21.21,0,.38,0,.53,0,.45,0,1.21,0,1.32.71.11.72-.43.89-1.73,1.3-.45.14-.99.31-1.58.52-.33.64-.64,1.3-.93,1.98,1.11-.36,1.51-.44,1.76-.44.47,0,.73.31.81.57.2.65-.18.91-1.79,1.98-.59.4-1.31.87-2.02,1.39Zm21.24-13.26c.31.05.67.1,1.07.15,0-.01-.02-.02-.03-.03l-.64-.77s-.05-.06-.07-.09c.03.2-.02.41-.14.57-.05.07-.12.13-.19.17Zm-15.73-12.54c.53.2,1.02.36,1.43.5.18.06.34.11.49.17-.16-.27-.22-.69-.29-1.24-.04-.32-.1-.71-.17-1.12-.28-.21-.57-.41-.86-.61.12.92.05,1.11-.15,1.34-.21.25-.61.32-.87.24.15.24.29.48.43.73Zm-3.32-4.42c.69.7,1.34,1.45,1.94,2.27-.03-.06-.05-.12-.08-.18-.2-.46-.45-1.01-.72-1.57-.37-.18-.75-.35-1.13-.52Z"/>
  </g>
  <g>
    <path class="cls-1" d="m81.37,29.58c1.33,0,2.41,1.08,2.41,2.41s-1.08,2.41-2.41,2.41-2.41-1.07-2.41-2.41,1.08-2.41,2.41-2.41Z"/>
    <path class="cls-2" d="m82.38,30.71c1.26,0,2.29,1.03,2.29,2.29s-1.03,2.29-2.29,2.29-2.29-1.02-2.29-2.29,1.03-2.29,2.29-2.29Z"/>
    <path class="cls-3" d="m81.37,35.15c-1.74,0-3.16-1.42-3.16-3.16s1.42-3.16,3.16-3.16,3.16,1.42,3.16,3.16-1.42,3.16-3.16,3.16Zm0-4.82c-.92,0-1.66.74-1.66,1.66s.74,1.66,1.66,1.66,1.66-.74,1.66-1.66-.74-1.66-1.66-1.66Z"/>
  </g>
  <path class="cls-3" d="m81.37,28.64c-.41,0-.75-.34-.75-.75v-1.5c0-.41.34-.75.75-.75s.75.34.75.75v1.5c0,.41-.34.75-.75.75Z"/>
  <path class="cls-3" d="m84.28,29.84c-.19,0-.38-.07-.53-.22-.29-.29-.29-.77,0-1.06l1.05-1.05c.29-.29.77-.29,1.06,0,.29.29.29.77,0,1.06l-1.05,1.05c-.15.15-.34.22-.53.22Z"/>
  <path class="cls-3" d="m86.98,32.74h-1.5c-.41,0-.75-.34-.75-.75s.34-.75.75-.75h1.5c.41,0,.75.34.75.75s-.34.75-.75.75Z"/>
  <path class="cls-3" d="m85.34,36.71c-.19,0-.39-.07-.53-.22l-1.05-1.06c-.29-.29-.29-.77,0-1.06.29-.29.77-.29,1.06,0l1.05,1.06c.29.29.29.77,0,1.06-.15.15-.34.22-.53.22Z"/>
  <path class="cls-3" d="m81.37,38.34c-.41,0-.75-.34-.75-.75v-1.49c0-.41.34-.75.75-.75s.75.34.75.75v1.49c0,.41-.34.75-.75.75Z"/>
  <path class="cls-3" d="m77.41,36.71c-.19,0-.38-.07-.53-.22-.29-.29-.29-.77,0-1.06l1.06-1.06c.29-.29.77-.29,1.06,0,.29.29.29.77,0,1.06l-1.06,1.06c-.15.15-.34.22-.53.22Z"/>
  <path class="cls-3" d="m77.26,32.74h-1.49c-.41,0-.75-.34-.75-.75s.34-.75.75-.75h1.49c.41,0,.75.34.75.75s-.34.75-.75.75Z"/>
  <path class="cls-3" d="m78.47,29.84c-.19,0-.38-.07-.53-.22l-1.06-1.05c-.29-.29-.29-.77,0-1.06.29-.29.77-.29,1.06,0l1.06,1.05c.29.29.29.77,0,1.06-.15.15-.34.22-.53.22Z"/>
  <path class="cls-3" d="m14.85,45.44c-.28,0-.54-.16-.67-.42-.28-.55-1.72-.12-2.43.23-.37.18-.82.03-1-.34-.18-.37-.03-.82.34-1,1-.5,2.7-.99,3.77-.31.13-.09.28-.16.44-.21,1.33-.44,3.12.42,3.32.52.37.18.52.63.34,1-.18.37-.63.52-1,.34-.71-.35-2.15-.78-2.43-.23-.13.25-.39.42-.67.42h0Z"/>
  <path class="cls-3" d="m20.12,40.86h0c-.28,0-.54-.16-.67-.42-.28-.55-1.74-.11-2.43.23-.37.19-.82.03-1.01-.34-.18-.37-.03-.82.34-1.01,1-.5,2.7-.99,3.77-.31,1.07-.67,2.77-.19,3.77.31.37.18.52.63.34,1-.18.37-.63.52-1,.34-.71-.35-2.16-.78-2.43-.23-.13.25-.39.41-.67.41Z"/>
  <path class="cls-3" d="m12.48,37.11c-.31.03-.55-.16-.67-.42-.05-.11-.12-.17-.25-.21-.58-.2-1.72.22-2.17.45-.37.19-.82.04-1.01-.33-.19-.37-.04-.82.33-1.01.2-.1,2-.97,3.32-.53.16.05.31.12.44.21,1.07-.68,2.77-.19,3.77.32.37.19.52.63.33,1-.18.37-.63.52-1.01.34-.71-.35-2.15-.79-2.43-.23-.13.25-.39.41-.67.41Z"/>
</svg>