<?xml version="1.0" encoding="UTF-8"?>
<svg id="_11" data-name="11" xmlns="http://www.w3.org/2000/svg" viewBox="0 0 105 101">
  <defs>
    <style>
      .cls-1 {
        fill: #fff;
      }

      .cls-2 {
        fill: #ffe724;
      }

      .cls-3 {
        fill: #231f20;
      }
    </style>
  </defs>
  <g>
    <g>
      <path class="cls-1" d="m69.7,32.49c0,2.69-.82,5.18-2.23,7.25l-.11-.07c-1.72-.61-3.46-1.07-5.18-1.38.41-1.74.64-3.72.64-5.8h6.88Z"/>
      <path class="cls-1" d="m67.36,25.08c1.47,2.09,2.34,4.65,2.34,7.41h-6.88c0-2.17-.25-4.22-.69-6.02,1.75-.31,3.49-.78,5.23-1.39Z"/>
      <path class="cls-1" d="m67.47,39.75c-2.32,3.42-6.24,5.67-10.7,5.67,2.37,0,4.41-2.9,5.41-7.12,1.72.31,3.46.77,5.18,1.38l.11.07Z"/>
      <path class="cls-1" d="m56.77,19.57c4.38,0,8.25,2.18,10.59,5.51-1.74.61-3.49,1.08-5.23,1.39-1.01-4.11-3.03-6.9-5.36-6.9Z"/>
      <path class="cls-1" d="m56.77,32.49h6.05c0,2.08-.23,4.06-.64,5.8-1.8-.33-3.61-.5-5.41-.5v-5.31Z"/>
      <path class="cls-1" d="m56.77,32.49v-5.52c1.79,0,3.58-.17,5.36-.5.44,1.8.69,3.85.69,6.02h-6.05Z"/>
      <path class="cls-1" d="m64.23,49.39c.69,0,1.2.16,1.56.46.34.3.53.71.55,1.23l-1.12.04c-.05-.29-.14-.5-.3-.61-.15-.13-.39-.19-.7-.19s-.57.08-.75.2c-.12.09-.18.2-.18.34,0,.14.06.24.17.33.15.13.48.24,1.02.37.54.14.93.27,1.2.4.25.14.46.32.6.56.15.25.22.53.22.88,0,.31-.09.61-.25.89-.18.27-.43.49-.75.61-.32.14-.72.2-1.2.2-.69,0-1.23-.16-1.61-.48-.37-.32-.59-.79-.67-1.41l1.09-.11c.07.36.2.63.4.8.2.17.47.26.8.26.36,0,.63-.08.81-.24.18-.14.27-.32.27-.52,0-.14-.04-.24-.12-.34-.08-.09-.2-.17-.4-.23-.13-.05-.42-.13-.89-.24-.58-.15-1.01-.33-1.25-.55-.34-.3-.51-.67-.51-1.11,0-.28.08-.54.23-.79.17-.24.39-.44.69-.55.29-.14.65-.19,1.08-.19Z"/>
      <path class="cls-1" d="m57.54,54.62c-.37-.32-.59-.79-.67-1.41l1.09-.11c.07.36.2.63.4.8.2.17.47.26.8.26.36,0,.63-.08.81-.24.18-.14.27-.32.27-.52,0-.14-.04-.24-.12-.34-.07-.09-.21-.17-.4-.23-.12-.05-.42-.13-.89-.24-.58-.15-1.01-.33-1.25-.55-.34-.3-.51-.67-.51-1.11,0-.28.08-.54.23-.79.16-.24.39-.44.69-.55.3-.14.66-.19,1.08-.19.69,0,1.21.16,1.56.46.34.3.53.71.55,1.23l-1.12.04c-.05-.29-.14-.5-.3-.61-.16-.13-.39-.19-.7-.19s-.56.08-.75.2c-.12.09-.17.2-.17.34,0,.14.06.24.16.33.15.13.48.24,1.02.37.54.14.93.27,1.2.4.25.14.46.32.6.56.14.25.22.53.22.88,0,.31-.1.61-.26.89-.17.27-.43.49-.75.61-.32.14-.72.2-1.2.2-.69,0-1.23-.16-1.61-.48Z"/>
      <path class="cls-1" d="m56.77,19.57c2.33,0,4.34,2.79,5.36,6.9-1.78.33-3.56.5-5.36.5v-7.4Z"/>
      <path class="cls-1" d="m56.77,37.8c1.8,0,3.6.16,5.41.5-.99,4.22-3.04,7.12-5.41,7.12v-7.61Z"/>
      <path class="cls-1" d="m56.77,45.41c-2.37,0-4.42-2.9-5.41-7.13,1.8-.32,3.61-.49,5.41-.49v7.61Z"/>
      <path class="cls-1" d="m51.41,26.49c1.01-4.11,3.04-6.91,5.37-6.91v7.4c-1.78,0-3.57-.17-5.37-.49Z"/>
      <path class="cls-1" d="m51.41,26.49c1.79.32,3.58.49,5.37.49v5.52h-6.06c0-2.17.24-4.22.69-6.01Z"/>
      <path class="cls-1" d="m56.77,37.8c-1.8,0-3.61.16-5.41.49-.41-1.74-.64-3.71-.64-5.79h6.06v5.31Z"/>
      <polygon class="cls-1" points="53.77 50.78 54.54 52.81 53.02 52.81 53.77 50.78"/>
      <path class="cls-1" d="m53.02,52.81h1.52l-.77-2.03-.75,2.03Zm1.34-3.32l2.21,5.51h-1.2l-.48-1.26h-2.21l-.46,1.26h-1.19l2.14-5.51h1.18Z"/>
      <path class="cls-1" d="m46.19,25.08c2.34-3.33,6.21-5.51,10.59-5.51-2.33,0-4.35,2.8-5.37,6.91-1.74-.31-3.48-.78-5.22-1.4Z"/>
      <path class="cls-1" d="m51.41,26.49c-.45,1.79-.69,3.84-.69,6.01h-6.87c0-2.76.87-5.32,2.34-7.41,1.74.62,3.48,1.09,5.22,1.4Z"/>
      <path class="cls-1" d="m43.85,32.49h6.87c0,2.08.23,4.05.64,5.79-1.73.31-3.46.78-5.18,1.39l-.1.07c-1.41-2.07-2.23-4.57-2.23-7.25Z"/>
      <path class="cls-1" d="m49.64,51.91c-.14.06-.43.09-.87.09h-.61v-1.57h.54c.39,0,.65,0,.8.03.18.03.32.12.44.25.12.13.18.29.18.5,0,.17-.04.3-.13.43-.08.12-.2.21-.35.27Z"/>
      <path class="cls-1" d="m56.77,45.41c-4.45,0-8.38-2.25-10.69-5.67l.1-.07c1.72-.61,3.45-1.08,5.18-1.39.99,4.22,3.05,7.13,5.41,7.13Z"/>
      <path class="cls-1" d="m48.78,51.99c.44,0,.73-.03.87-.09.15-.06.27-.16.35-.27.09-.13.13-.26.13-.43,0-.21-.06-.37-.18-.5-.12-.14-.26-.22-.44-.25-.15-.02-.41-.03-.8-.03h-.54v1.57h.61Zm.06-2.5c.67,0,1.12.03,1.33.08.31.08.57.26.8.54.2.28.31.64.31,1.08,0,.34-.06.62-.18.85-.13.23-.29.41-.47.54-.18.14-.38.23-.57.26-.26.06-.65.08-1.15.08h-.73v2.08h-1.11v-5.51h1.78Z"/>
      <path class="cls-1" d="m56.87,53.21c.08.62.3,1.09.67,1.41.38.31.92.48,1.61.48.48,0,.88-.07,1.2-.2.32-.13.57-.34.75-.61.17-.27.26-.57.26-.89,0-.35-.08-.63-.22-.88-.15-.24-.35-.43-.6-.56-.26-.13-.66-.26-1.2-.4-.55-.12-.88-.24-1.02-.37-.11-.09-.16-.2-.16-.33,0-.15.06-.25.17-.34.19-.13.43-.2.75-.2s.54.07.7.19c.15.12.25.32.3.61l1.12-.04c-.02-.52-.21-.93-.55-1.23-.35-.3-.87-.46-1.56-.46-.42,0-.78.06-1.08.19-.3.12-.53.31-.69.55-.16.24-.23.51-.23.79,0,.44.17.81.51,1.11.23.21.66.4,1.25.55.47.12.76.19.89.24.2.07.33.15.4.23.08.1.12.2.12.34,0,.21-.1.38-.27.52-.17.16-.45.24-.81.24-.33,0-.6-.09-.8-.26-.2-.17-.33-.44-.4-.8l-1.09.11Zm8.91-3.36c-.35-.3-.87-.46-1.56-.46-.43,0-.79.06-1.08.19-.3.12-.53.31-.69.55-.15.24-.23.51-.23.79,0,.44.17.81.51,1.11.23.21.66.4,1.25.55.47.12.76.19.89.24.2.07.32.15.4.23.08.1.12.2.12.34,0,.21-.1.38-.27.52-.17.16-.45.24-.81.24-.33,0-.6-.09-.8-.26-.2-.17-.33-.44-.4-.8l-1.09.11c.08.62.3,1.09.67,1.41.38.31.91.48,1.61.48.48,0,.88-.07,1.2-.2.32-.13.57-.34.75-.61.16-.27.25-.57.25-.89,0-.35-.07-.63-.22-.88-.14-.24-.35-.43-.6-.56-.26-.13-.66-.26-1.2-.4-.55-.12-.88-.24-1.02-.37-.11-.09-.17-.2-.17-.33,0-.15.06-.25.18-.34.18-.13.43-.2.75-.2s.55.07.7.19c.16.12.25.32.3.61l1.12-.04c-.02-.52-.21-.93-.55-1.23Zm-17.62,5.15v-2.08h.73c.5,0,.89-.02,1.15-.08.2-.04.39-.13.57-.26.18-.13.34-.31.47-.54.12-.22.18-.5.18-.85,0-.44-.11-.8-.31-1.08-.23-.27-.49-.46-.8-.54-.2-.05-.65-.08-1.33-.08h-1.78v5.51h1.11Zm-11.79-30.69c0-4.96,4.05-9.01,9.02-9.01h21.93c5.41,0,9.84,4.42,9.84,9.82v40.56h-40.79V24.31Zm9.7,15.43c2.32,3.42,6.24,5.67,10.69,5.67s8.38-2.25,10.7-5.67c1.41-2.07,2.23-4.57,2.23-7.25s-.87-5.32-2.34-7.41c-2.34-3.33-6.2-5.51-10.59-5.51s-8.25,2.18-10.59,5.51c-1.47,2.09-2.34,4.65-2.34,7.41s.82,5.18,2.23,7.25Zm10.5,15.26l-2.21-5.51h-1.18l-2.14,5.51h1.19l.46-1.26h2.21l.48,1.26h1.2Z"/>
    </g>
    <g>
      <path class="cls-1" d="m45.4,15.3h21.93c5.41,0,9.84,4.42,9.84,9.82v40.56h-40.79V24.31c0-4.96,4.05-9.01,9.02-9.01Z"/>
      <path class="cls-1" d="m56.77,19.57c4.38,0,8.25,2.18,10.59,5.51,1.47,2.09,2.34,4.65,2.34,7.41s-.82,5.18-2.23,7.25c-2.32,3.42-6.24,5.67-10.7,5.67s-8.38-2.25-10.69-5.67c-1.41-2.07-2.23-4.57-2.23-7.25s.87-5.32,2.34-7.41c2.34-3.33,6.21-5.51,10.59-5.51Z"/>
      <path class="cls-1" d="m56.77,19.57c2.33,0,4.34,2.79,5.36,6.9.44,1.8.69,3.85.69,6.02s-.23,4.06-.64,5.8c-.99,4.22-3.04,7.12-5.41,7.12s-4.42-2.9-5.41-7.13c-.41-1.74-.64-3.71-.64-5.79s.24-4.22.69-6.01c1.01-4.11,3.04-6.91,5.37-6.91Z"/>
      <path class="cls-1" d="m67.36,25.08c-1.74.61-3.49,1.08-5.23,1.39-1.78.33-3.56.5-5.36.5s-3.57-.17-5.37-.49c-1.74-.31-3.48-.78-5.22-1.4h-.01"/>
      <path class="cls-1" d="m67.36,39.68c-1.72-.61-3.46-1.07-5.18-1.38-1.8-.33-3.61-.5-5.41-.5s-3.61.16-5.41.49c-1.73.31-3.46.78-5.18,1.39"/>
    </g>
  </g>
  <g>
    <g>
      <path class="cls-2" d="m70.07,34.19c0,2.55-.78,4.92-2.12,6.89l-.1-.06c-1.64-.58-3.29-1.02-4.92-1.31.39-1.66.61-3.53.61-5.51h6.53Z"/>
      <path class="cls-2" d="m67.85,27.15c1.4,1.99,2.22,4.42,2.22,7.04h-6.53c0-2.06-.24-4.01-.66-5.72,1.66-.3,3.31-.74,4.97-1.32Z"/>
      <path class="cls-2" d="m67.96,41.08c-2.2,3.25-5.93,5.38-10.16,5.38,2.25,0,4.19-2.76,5.14-6.76,1.64.3,3.29.73,4.92,1.31l.1.06Z"/>
      <path class="cls-2" d="m57.79,21.92c4.16,0,7.84,2.07,10.06,5.24-1.66.58-3.31,1.03-4.97,1.32-.96-3.9-2.88-6.56-5.09-6.56Z"/>
      <path class="cls-2" d="m57.79,34.19h5.75c0,1.98-.22,3.86-.61,5.51-1.71-.31-3.42-.47-5.14-.47v-5.04Z"/>
      <path class="cls-2" d="m57.79,34.19v-5.24c1.7,0,3.4-.16,5.09-.47.42,1.71.66,3.65.66,5.72h-5.75Z"/>
      <path class="cls-2" d="m64.88,50.25c.66,0,1.14.15,1.48.43.33.29.5.68.52,1.17l-1.07.04c-.05-.28-.14-.47-.29-.58-.15-.12-.37-.19-.66-.19s-.54.07-.71.19c-.11.08-.17.19-.17.33,0,.13.06.23.16.31.14.12.45.23.97.35.51.13.89.26,1.14.38.24.13.44.31.57.53.14.23.21.5.21.83,0,.3-.08.58-.24.84-.17.26-.41.46-.71.58-.31.13-.68.19-1.14.19-.66,0-1.17-.16-1.53-.45-.35-.31-.57-.75-.64-1.34l1.04-.1c.07.34.19.6.38.76.19.17.44.25.76.25.34,0,.6-.07.77-.22.17-.14.26-.3.26-.5,0-.13-.04-.23-.11-.33-.07-.08-.19-.16-.38-.22-.12-.05-.4-.12-.84-.23-.55-.14-.96-.31-1.18-.52-.32-.29-.48-.64-.48-1.05,0-.27.07-.52.22-.75.16-.23.37-.42.66-.53.28-.13.62-.18,1.03-.18Z"/>
      <path class="cls-2" d="m58.53,55.21c-.35-.31-.56-.75-.64-1.34l1.04-.1c.07.34.19.6.38.76.19.17.45.25.76.25.34,0,.6-.07.77-.22.17-.14.26-.3.26-.5,0-.13-.04-.23-.11-.33-.07-.08-.2-.16-.38-.22-.12-.05-.4-.12-.84-.23-.55-.14-.96-.31-1.18-.52-.32-.29-.48-.64-.48-1.05,0-.27.08-.52.22-.75.16-.23.37-.42.66-.53.29-.13.63-.18,1.03-.18.66,0,1.15.15,1.48.43.32.29.5.68.52,1.17l-1.07.04c-.04-.28-.14-.47-.28-.58-.15-.12-.37-.19-.67-.19s-.54.07-.71.19c-.11.08-.17.19-.17.33,0,.13.06.23.16.31.14.12.45.23.97.35.51.13.89.26,1.14.38.24.13.43.31.57.53.14.23.21.5.21.83,0,.3-.09.58-.25.84-.17.26-.41.46-.71.58-.31.13-.68.19-1.14.19-.66,0-1.17-.16-1.53-.45Z"/>
      <path class="cls-2" d="m57.79,21.92c2.21,0,4.13,2.65,5.09,6.56-1.69.31-3.39.47-5.09.47v-7.03Z"/>
      <path class="cls-2" d="m57.79,39.23c1.71,0,3.42.16,5.14.47-.94,4-2.89,6.76-5.14,6.76v-7.23Z"/>
      <path class="cls-2" d="m57.79,46.46c-2.25,0-4.2-2.76-5.14-6.77,1.71-.31,3.43-.46,5.14-.46v7.23Z"/>
      <path class="cls-2" d="m52.7,28.48c.96-3.9,2.89-6.57,5.1-6.57v7.03c-1.69,0-3.4-.16-5.1-.46Z"/>
      <path class="cls-2" d="m52.7,28.48c1.7.31,3.41.46,5.1.46v5.24h-5.75c0-2.06.23-4.01.66-5.71Z"/>
      <path class="cls-2" d="m57.79,39.23c-1.71,0-3.43.16-5.14.46-.39-1.66-.61-3.53-.61-5.5h5.75v5.04Z"/>
      <polygon class="cls-2" points="54.94 51.56 55.67 53.49 54.23 53.49 54.94 51.56"/>
      <path class="cls-2" d="m54.23,53.49h1.44l-.73-1.93-.71,1.93Zm1.28-3.15l2.1,5.23h-1.14l-.45-1.19h-2.1l-.44,1.19h-1.13l2.04-5.23h1.12Z"/>
      <path class="cls-2" d="m47.74,27.15c2.22-3.16,5.9-5.24,10.06-5.24-2.21,0-4.14,2.67-5.1,6.57-1.65-.29-3.3-.74-4.96-1.33Z"/>
      <path class="cls-2" d="m52.7,28.48c-.42,1.7-.66,3.65-.66,5.71h-6.52c0-2.62.83-5.05,2.22-7.04,1.66.59,3.3,1.04,4.96,1.33Z"/>
      <path class="cls-2" d="m45.51,34.19h6.52c0,1.98.22,3.85.61,5.5-1.65.3-3.29.74-4.92,1.32l-.09.06c-1.34-1.97-2.12-4.34-2.12-6.89Z"/>
      <path class="cls-2" d="m51.02,52.63c-.13.05-.41.08-.82.08h-.58v-1.49h.52c.37,0,.62,0,.76.03.17.03.31.11.42.24.11.12.17.28.17.47,0,.16-.04.29-.12.41-.08.11-.19.2-.33.26Z"/>
      <path class="cls-2" d="m57.79,46.46c-4.23,0-7.96-2.14-10.16-5.38l.09-.06c1.64-.58,3.28-1.03,4.92-1.32.94,4.01,2.9,6.77,5.14,6.77Z"/>
      <path class="cls-2" d="m50.2,52.72c.42,0,.69-.03.82-.08.15-.06.26-.15.33-.26.08-.12.12-.25.12-.41,0-.2-.06-.35-.17-.47-.11-.13-.25-.21-.42-.24-.14-.02-.39-.03-.76-.03h-.52v1.49h.58Zm.05-2.38c.64,0,1.07.03,1.26.07.3.07.54.25.76.51.19.27.29.61.29,1.03,0,.32-.06.59-.17.8-.12.22-.27.39-.45.52-.17.13-.36.21-.54.25-.25.05-.62.07-1.09.07h-.69v1.98h-1.05v-5.23h1.69Z"/>
      <path class="cls-2" d="m57.89,53.87c.08.59.29,1.04.64,1.34.36.3.87.45,1.53.45.45,0,.83-.06,1.14-.19.3-.12.55-.33.71-.58.16-.26.25-.55.25-.84,0-.33-.08-.6-.21-.83-.14-.23-.33-.41-.57-.53-.25-.12-.63-.25-1.14-.38-.52-.12-.83-.23-.97-.35-.1-.08-.16-.19-.16-.31,0-.14.06-.24.17-.33.18-.12.41-.19.71-.19s.52.07.67.19c.15.11.24.31.28.58l1.07-.04c-.02-.49-.2-.88-.52-1.17-.33-.29-.83-.43-1.48-.43-.4,0-.74.06-1.03.18-.29.11-.5.3-.66.53-.15.23-.22.48-.22.75,0,.42.16.77.48,1.05.22.2.63.38,1.18.52.44.11.72.18.84.23.19.06.32.14.38.22.07.09.11.19.11.33,0,.19-.09.36-.26.5-.17.15-.42.22-.77.22-.31,0-.57-.08-.76-.25-.19-.16-.31-.42-.38-.76l-1.04.1Zm8.47-3.19c-.33-.29-.82-.43-1.48-.43-.41,0-.75.06-1.03.18-.29.11-.5.3-.66.53-.15.23-.22.48-.22.75,0,.42.16.77.48,1.05.22.2.63.38,1.18.52.44.11.72.18.84.23.19.06.31.14.38.22.08.09.11.19.11.33,0,.19-.09.36-.26.5-.17.15-.43.22-.77.22-.31,0-.57-.08-.76-.25-.19-.16-.31-.42-.38-.76l-1.04.1c.07.59.29,1.04.64,1.34.36.3.87.45,1.53.45.45,0,.83-.06,1.14-.19.3-.12.55-.33.71-.58.16-.26.24-.55.24-.84,0-.33-.07-.6-.21-.83-.14-.23-.33-.41-.57-.53-.25-.12-.63-.25-1.14-.38-.52-.12-.83-.23-.97-.35-.1-.08-.16-.19-.16-.31,0-.14.06-.24.17-.33.17-.12.4-.19.71-.19s.52.07.66.19c.15.11.24.31.29.58l1.07-.04c-.02-.49-.2-.88-.52-1.17Zm-16.74,4.89v-1.98h.69c.47,0,.84-.02,1.09-.07.19-.04.37-.12.54-.25.18-.13.33-.3.45-.52.12-.21.17-.48.17-.8,0-.42-.1-.76-.29-1.03-.21-.26-.46-.43-.76-.51-.19-.04-.62-.07-1.26-.07h-1.69v5.23h1.05Zm-11.2-29.15c0-4.71,3.85-8.56,8.57-8.56h20.84c5.14,0,9.35,4.2,9.35,9.33v38.53h-38.75V26.42Zm9.22,14.66c2.2,3.25,5.93,5.38,10.16,5.38s7.96-2.14,10.16-5.38c1.34-1.97,2.12-4.34,2.12-6.89s-.82-5.05-2.22-7.04c-2.22-3.16-5.89-5.24-10.06-5.24s-7.84,2.07-10.06,5.24c-1.4,1.99-2.22,4.42-2.22,7.04s.78,4.92,2.12,6.89Zm9.97,14.49l-2.1-5.23h-1.12l-2.04,5.23h1.13l.44-1.19h2.1l.45,1.19h1.14Z"/>
    </g>
    <g>
      <path class="cls-2" d="m46.99,17.86h20.84c5.14,0,9.35,4.2,9.35,9.33v38.53h-38.75V26.42c0-4.71,3.85-8.56,8.57-8.56Z"/>
      <path class="cls-2" d="m57.79,21.92c4.16,0,7.84,2.07,10.06,5.24,1.4,1.99,2.22,4.42,2.22,7.04s-.78,4.92-2.12,6.89c-2.2,3.25-5.93,5.38-10.16,5.38s-7.96-2.14-10.16-5.38c-1.34-1.97-2.12-4.34-2.12-6.89s.83-5.05,2.22-7.04c2.22-3.16,5.9-5.24,10.06-5.24Z"/>
      <path class="cls-2" d="m57.79,21.92c2.21,0,4.13,2.65,5.09,6.56.42,1.71.66,3.65.66,5.72s-.22,3.86-.61,5.51c-.94,4-2.89,6.76-5.14,6.76s-4.2-2.76-5.14-6.77c-.39-1.66-.61-3.53-.61-5.5s.23-4.01.66-5.71c.96-3.9,2.89-6.57,5.1-6.57Z"/>
      <path class="cls-2" d="m67.85,27.15c-1.66.58-3.31,1.03-4.97,1.32-1.69.31-3.39.47-5.09.47s-3.4-.16-5.1-.46c-1.65-.29-3.3-.74-4.96-1.33h0"/>
      <path class="cls-2" d="m67.85,41.02c-1.64-.58-3.29-1.02-4.92-1.31-1.71-.31-3.42-.47-5.14-.47s-3.43.16-5.14.46c-1.65.3-3.29.74-4.92,1.32"/>
    </g>
  </g>
  <g>
    <g>
      <path class="cls-3" d="m67.47,40.5c-.14,0-.28-.04-.4-.12l-.04-.02c-1.62-.57-3.3-1.02-4.98-1.32-.2-.04-.38-.16-.49-.33-.11-.17-.15-.38-.1-.58.41-1.74.62-3.69.62-5.63,0-.41.34-.75.75-.75h6.88c.41,0,.75.34.75.75,0,2.75-.82,5.41-2.36,7.67-.14.21-.38.33-.62.33Zm-4.39-2.79c1.38.28,2.76.66,4.1,1.11,1.03-1.69,1.63-3.6,1.75-5.58h-5.37c-.04,1.53-.21,3.05-.49,4.46Z"/>
      <path class="cls-3" d="m69.72,33.24s-.01,0-.02,0h-6.88c-.41,0-.75-.34-.75-.75,0-2.02-.23-4.04-.67-5.84-.05-.2-.01-.41.1-.59.11-.17.29-.29.5-.33,1.68-.3,3.4-.76,5.11-1.36.32-.11.67,0,.86.28,1.59,2.26,2.44,4.9,2.47,7.66.01.06.02.12.02.18,0,.41-.33.75-.75.75Zm-6.16-1.5h5.37c-.12-2.06-.76-4.03-1.87-5.76-1.34.45-2.69.81-4.03,1.09.31,1.49.49,3.05.53,4.68Z"/>
      <path class="cls-3" d="m56.77,46.16c-.41,0-.75-.34-.75-.75s.34-.75.75-.75c1.91,0,3.74-2.57,4.68-6.54.09-.39.47-.63.86-.57,1.79.33,3.58.8,5.3,1.41.05.02.1.04.15.07l.11.07c.17.11.29.28.33.48.04.2,0,.41-.11.57-2.55,3.75-6.78,6-11.32,6Zm5.96-7c-.56,2.06-1.36,3.74-2.32,4.94,2.29-.72,4.34-2.1,5.86-4.01-1.16-.38-2.35-.69-3.54-.94Z"/>
      <path class="cls-3" d="m62.13,27.23c-.34,0-.64-.23-.73-.57-.95-3.85-2.76-6.33-4.63-6.33-.41,0-.75-.34-.75-.75s.34-.75.75-.75c4.45,0,8.64,2.18,11.2,5.83.13.19.17.44.1.66-.07.22-.24.4-.46.48-1.79.63-3.58,1.11-5.35,1.42-.04,0-.09.01-.13.01Zm-1.68-6.33c.91,1.15,1.67,2.75,2.23,4.71,1.14-.23,2.3-.53,3.45-.9-1.5-1.8-3.48-3.12-5.68-3.81Z"/>
      <path class="cls-3" d="m62.18,39.04s-.09,0-.14-.01c-1.75-.32-3.52-.48-5.27-.48-.41,0-.75-.34-.75-.75v-5.31c0-.41.34-.75.75-.75h6.05c.41,0,.75.34.75.75,0,2.06-.23,4.12-.66,5.97-.08.34-.39.58-.73.58Zm-4.66-1.99c1.36.03,2.72.16,4.08.38.26-1.33.42-2.75.46-4.19h-4.54v3.82Z"/>
      <path class="cls-3" d="m62.84,33.24s-.01,0-.02,0h-6.05c-.41,0-.75-.34-.75-.75v-5.52c0-.41.34-.75.75-.75,1.73,0,3.49-.16,5.22-.48.38-.07.77.17.87.56.46,1.89.7,3.91.71,6.02.01.06.02.11.02.17,0,.41-.33.75-.75.75Zm-5.32-1.5h4.54c-.04-1.52-.21-3.02-.5-4.41-1.34.22-2.69.34-4.03.38v4.03Z"/>
      <path class="cls-3" d="m64.28,55.85c-.86,0-1.56-.22-2.08-.65-.53-.46-.84-1.09-.94-1.9-.03-.2.03-.4.16-.56.13-.16.31-.26.51-.28h.14c-.39-.42-.6-.95-.6-1.53,0-.42.12-.82.35-1.19.29-.42.64-.69,1.06-.85.33-.16.79-.24,1.35-.24.86,0,1.55.21,2.04.64.5.44.78,1.05.81,1.77,0,.2-.06.39-.2.54-.07.08-.15.13-.25.18.11.11.2.24.28.37.22.36.32.78.32,1.26,0,.44-.12.88-.36,1.27-.28.43-.66.74-1.12.93-.4.17-.89.26-1.47.26Z"/>
      <path class="cls-3" d="m59.15,55.85c-.86,0-1.56-.22-2.08-.65-.53-.46-.84-1.09-.94-1.9-.03-.2.03-.4.16-.56.13-.16.31-.26.51-.28h.14c-.39-.42-.6-.95-.6-1.53,0-.42.12-.83.35-1.19.28-.41.63-.69,1.06-.85.35-.16.8-.24,1.35-.24.87,0,1.55.21,2.05.64.5.44.78,1.05.81,1.77,0,.2-.06.39-.2.54-.07.08-.15.13-.25.18.1.11.2.23.28.36.23.38.33.8.33,1.27,0,.44-.13.88-.38,1.28-.27.42-.65.74-1.11.92-.4.17-.89.26-1.47.26Z"/>
      <path class="cls-3" d="m56.77,27.72c-.41,0-.75-.34-.75-.75v-7.4c0-.41.34-.75.75-.75,2.66,0,4.93,2.79,6.09,7.47.05.2.01.41-.1.59-.11.17-.29.29-.49.33-1.83.34-3.67.51-5.49.51Zm.75-7.27v5.76c1.22-.03,2.45-.15,3.67-.34-.85-2.91-2.21-4.9-3.67-5.42Z"/>
      <path class="cls-3" d="m56.77,46.16c-.41,0-.75-.34-.75-.75v-7.61c0-.41.34-.75.75-.75,1.84,0,3.7.17,5.54.51.2.04.38.16.49.33.11.17.15.38.1.58-1.12,4.75-3.47,7.7-6.14,7.7Zm.75-7.6v5.97c1.5-.53,2.88-2.6,3.73-5.63-1.24-.19-2.49-.31-3.73-.34Z"/>
      <path class="cls-3" d="m56.77,46.16c-2.67,0-5.03-2.95-6.15-7.7-.05-.2,0-.41.1-.58.11-.17.29-.29.5-.33,1.85-.33,3.72-.5,5.55-.5.41,0,.75.34.75.75v7.61c0,.41-.34.75-.75.75Zm-4.49-7.27c.84,3.03,2.23,5.11,3.74,5.64v-5.97c-1.24.03-2.49.14-3.74.33Z"/>
      <path class="cls-3" d="m56.77,27.72c-1.8,0-3.65-.17-5.5-.5-.2-.04-.38-.16-.5-.33-.11-.17-.15-.39-.1-.59,1.14-4.62,3.47-7.48,6.1-7.48.41,0,.75.34.75.75v7.4c0,.41-.34.75-.75.75Zm-4.43-1.84c1.24.19,2.47.3,3.68.33v-5.76c-1.46.52-2.83,2.51-3.68,5.42Z"/>
      <path class="cls-3" d="m56.77,33.24h-6.06c-.41,0-.75-.34-.75-.75,0-2.21.24-4.29.71-6.19.09-.38.48-.62.86-.56,1.76.32,3.53.48,5.24.48.41,0,.75.34.75.75v5.52c0,.41-.34.75-.75.75Zm-5.3-1.5h4.55v-4.03c-1.33-.03-2.69-.16-4.04-.37-.29,1.37-.46,2.87-.5,4.4Z"/>
      <path class="cls-3" d="m51.36,39.04c-.34,0-.65-.23-.73-.58-.44-1.87-.66-3.88-.66-5.96,0-.41.34-.75.75-.75h6.06c.41,0,.75.34.75.75v5.31c0,.41-.34.75-.75.75-1.74,0-3.52.16-5.28.47-.04,0-.09.01-.13.01Zm.12-5.79c.04,1.45.2,2.85.46,4.19,1.37-.21,2.73-.34,4.08-.37v-3.82h-4.55Z"/>
      <path class="cls-3" d="m54.56,53.56h-1.54c-.25,0-.47-.12-.62-.32-.14-.2-.17-.46-.09-.69l.75-2.03c.11-.29.39-.49.7-.49h0c.31,0,.59.19.7.48l.71,1.88c.08.12.12.26.12.41,0,.41-.33.75-.75.75Z"/>
      <path class="cls-3" d="m56.6,55.75s-.01,0-.02,0h-1.2c-.31,0-.59-.19-.7-.48l-.29-.77h-1.17l-.28.76c-.11.3-.39.49-.7.49h-1.19c-.25,0-.48-.12-.62-.33-.14-.21-.17-.46-.08-.7l2.14-5.51c.11-.29.39-.48.7-.48h1.18c.31,0,.58.19.7.47l2.15,5.36c.08.12.13.27.13.43,0,.41-.33.75-.75.75Z"/>
      <path class="cls-3" d="m51.41,27.24s-.09,0-.13-.01c-1.75-.31-3.55-.79-5.34-1.43-.22-.08-.39-.26-.46-.48-.07-.22-.03-.47.1-.66,2.56-3.65,6.75-5.83,11.2-5.83.41,0,.75.34.75.75s-.34.75-.75.75c-1.87,0-3.69,2.49-4.64,6.34-.08.34-.39.57-.73.57Zm-3.99-2.53c1.15.37,2.31.68,3.44.91.56-1.96,1.34-3.58,2.27-4.74-2.21.7-4.2,2.02-5.71,3.83Z"/>
      <path class="cls-3" d="m50.72,33.24h-6.87c-.41,0-.75-.34-.75-.75,0-2.82.86-5.54,2.48-7.84.19-.28.55-.39.87-.28,1.71.61,3.43,1.07,5.1,1.37.2.04.38.16.5.33.11.17.15.39.1.59-.44,1.75-.67,3.77-.67,5.83,0,.41-.34.75-.75.75Zm-6.1-1.5h5.36c.04-1.64.22-3.2.53-4.67-1.32-.27-2.67-.64-4.01-1.09-1.1,1.74-1.74,3.71-1.87,5.76Z"/>
      <path class="cls-3" d="m46.08,40.5s-.09,0-.13-.01c-.2-.04-.37-.15-.49-.32-1.54-2.27-2.36-4.92-2.36-7.67,0-.41.34-.75.75-.75h6.87c.41,0,.75.34.75.75,0,1.97.21,3.86.62,5.62.05.2,0,.41-.1.58-.11.17-.29.29-.5.33-1.62.29-3.29.74-4.97,1.33h-.01c-.13.1-.28.15-.43.15Zm-1.46-7.25c.12,1.98.72,3.88,1.75,5.57,1.37-.47,2.74-.84,4.09-1.12-.28-1.42-.45-2.91-.49-4.45h-5.36Z"/>
      <path class="cls-3" d="m48.78,52.74h-.61c-.41,0-.75-.34-.75-.75v-1.57c0-.41.34-.75.75-.75h.54c.44,0,.74.01.9.04.37.06.68.24.91.51.22.24.35.59.35.98,0,.31-.09.6-.26.85-.16.24-.4.44-.7.55-.23.09-.58.14-1.14.14Zm.14-1.57v.06c.35,0,.46-.04.47-.04-.08-.02-.24-.03-.47-.03Z"/>
      <path class="cls-3" d="m56.79,46.16s-.01,0-.02,0c-4.54,0-8.77-2.24-11.32-6-.23-.34-.15-.8.19-1.03l.1-.07c.06-.04.12-.07.18-.09,1.78-.63,3.56-1.11,5.3-1.42.38-.07.77.18.86.57.93,3.98,2.77,6.55,4.68,6.55h.02c.42,0,.75.34.75.75s-.33.75-.75.75Zm-9.52-6.07c1.52,1.91,3.57,3.29,5.86,4.01-.96-1.2-1.76-2.88-2.32-4.95-1.16.24-2.35.55-3.54.94Z"/>
      <path class="cls-3" d="m48.16,55.75h-1.11c-.41,0-.75-.34-.75-.75v-5.51c0-.41.34-.75.75-.75h1.78c1.09,0,1.4.07,1.5.1.47.12.87.38,1.21.79.33.46.48.97.48,1.56,0,.48-.09.87-.28,1.21-.17.32-.4.58-.68.79-.26.2-.56.33-.87.39-.28.06-.68.09-1.28.09v1.33c0,.41-.34.75-.75.75Zm.75-4.57v.06c.35,0,.46-.04.47-.04-.08-.02-.24-.03-.47-.03Z"/>
      <path class="cls-3" d="m77.17,66.43h-40.79c-.41,0-.75-.34-.75-.75V24.31c0-5.38,4.38-9.76,9.77-9.76h21.93c5.84,0,10.59,4.74,10.59,10.57v40.56c0,.41-.34.75-.75.75Zm-40.04-1.5h39.29V25.12c0-5-4.08-9.07-9.09-9.07h-21.93c-4.56,0-8.27,3.71-8.27,8.26v40.62Zm27.16-9.08c-.86,0-1.56-.22-2.08-.65-.18-.16-.33-.33-.46-.53,0,0,0,0,0,0-.27.42-.65.74-1.11.92-.4.17-.89.26-1.47.26-.76,0-1.4-.17-1.9-.51-.01.03-.03.06-.05.08-.14.21-.37.33-.62.33h-1.2c-.31,0-.59-.19-.7-.48l-.29-.77h-1.17l-.28.76c-.11.3-.39.49-.7.49h-1.19c-.25,0-.48-.12-.62-.33-.14-.21-.17-.46-.08-.7l.56-1.44c-.22.14-.47.24-.72.29-.28.06-.68.09-1.28.09v1.33c0,.41-.34.75-.75.75h-1.11c-.41,0-.75-.34-.75-.75v-5.51c0-.41.34-.75.75-.75h1.78c1.09,0,1.4.07,1.5.1.47.12.87.38,1.21.79.21.29.35.61.42.96l.53-1.36c.11-.29.39-.48.7-.48h1.18c.31,0,.58.19.7.47l1.36,3.39c.11-.08.24-.13.37-.14h.14c-.39-.42-.6-.95-.6-1.53,0-.42.12-.83.35-1.19.28-.41.63-.69,1.06-.85.35-.16.8-.24,1.35-.24.87,0,1.55.21,2.05.64.23.2.41.44.54.7.04-.08.08-.16.14-.24.29-.42.64-.69,1.06-.85.33-.16.79-.24,1.35-.24.86,0,1.55.21,2.04.64.5.44.78,1.05.81,1.77,0,.2-.06.39-.2.54-.07.08-.15.13-.25.18.11.11.2.24.28.37.22.36.32.78.32,1.26,0,.44-.12.88-.36,1.27-.28.43-.66.74-1.12.93-.4.17-.89.26-1.47.26Zm-11.59-2.85h2.21s.04,0,.06,0l-1.11-2.76h-.16l-1.07,2.76s.04,0,.06,0Zm8.81-1.23c.1.11.2.23.28.36.07.11.12.22.17.34h.12c-.21-.23-.36-.48-.47-.75-.03.02-.07.04-.1.05Zm-13.7-1.52v2.02c.11-.06.23-.09.36-.09h.73c.47,0,.81-.02.99-.06.1-.02.2-.06.29-.13.11-.08.19-.18.26-.3.06-.11.09-.28.09-.49,0-.27-.06-.49-.17-.64-.14-.17-.28-.22-.37-.25-.01,0-.26-.05-1.14-.05h-1.03Zm8.97-4.08c-4.54,0-8.77-2.24-11.32-6-1.54-2.27-2.36-4.92-2.36-7.67s.86-5.54,2.48-7.84c2.56-3.65,6.75-5.83,11.2-5.83s8.64,2.18,11.2,5.83c1.62,2.3,2.47,5.02,2.47,7.84s-.82,5.41-2.36,7.67c-2.55,3.75-6.78,5.99-11.32,5.99Zm0-25.84c-3.96,0-7.69,1.94-9.97,5.19-1.44,2.05-2.2,4.46-2.2,6.98s.73,4.81,2.1,6.83c2.27,3.34,6.03,5.34,10.07,5.34s7.81-2,10.07-5.34c1.38-2.02,2.1-4.38,2.1-6.83s-.76-4.93-2.2-6.98c-2.28-3.25-6.01-5.19-9.97-5.19Z"/>
    </g>
    <g>
      <path class="cls-3" d="m77.17,66.43h-40.79c-.41,0-.75-.34-.75-.75V24.31c0-5.38,4.38-9.76,9.77-9.76h21.93c5.84,0,10.59,4.74,10.59,10.57v40.56c0,.41-.34.75-.75.75Zm-40.04-1.5h39.29V25.12c0-5-4.08-9.07-9.09-9.07h-21.93c-4.56,0-8.27,3.71-8.27,8.26v40.62Z"/>
      <path class="cls-3" d="m56.77,46.16c-4.54,0-8.77-2.24-11.32-6-1.54-2.27-2.36-4.92-2.36-7.67s.86-5.54,2.48-7.84c2.56-3.65,6.75-5.83,11.2-5.83s8.64,2.18,11.2,5.83c1.62,2.3,2.47,5.02,2.47,7.84s-.82,5.41-2.36,7.67c-2.55,3.75-6.78,5.99-11.32,5.99Zm0-25.84c-3.96,0-7.69,1.94-9.97,5.19-1.44,2.05-2.2,4.46-2.2,6.98s.73,4.81,2.1,6.83c2.27,3.34,6.03,5.34,10.07,5.34s7.81-2,10.07-5.34c1.38-2.02,2.1-4.38,2.1-6.83s-.76-4.93-2.2-6.98c-2.28-3.25-6.01-5.19-9.97-5.19Z"/>
      <path class="cls-3" d="m56.77,46.16c-2.67,0-5.03-2.95-6.15-7.7-.44-1.87-.66-3.88-.66-5.96,0-2.21.24-4.29.71-6.19,1.14-4.61,3.47-7.48,6.09-7.48s4.93,2.79,6.09,7.47c.47,1.94.71,4.02.71,6.2,0,2.06-.23,4.12-.66,5.97-1.12,4.75-3.47,7.7-6.14,7.7Zm0-25.84c-1.87,0-3.69,2.49-4.64,6.34-.44,1.76-.67,3.77-.67,5.83s.21,3.86.62,5.62c.93,3.98,2.77,6.55,4.68,6.55s3.74-2.57,4.68-6.54c.41-1.74.62-3.69.62-5.63s-.23-4.04-.67-5.84c-.95-3.85-2.76-6.33-4.63-6.33Z"/>
      <path class="cls-3" d="m56.77,46.16c-.41,0-.75-.34-.75-.75v-25.84c0-.41.34-.75.75-.75s.75.34.75.75v25.84c0,.41-.34.75-.75.75Z"/>
      <path class="cls-3" d="m69.7,33.24h-25.85c-.41,0-.75-.34-.75-.75s.34-.75.75-.75h25.85c.41,0,.75.34.75.75s-.34.75-.75.75Z"/>
      <path class="cls-3" d="m56.77,27.72c-1.8,0-3.65-.17-5.5-.5-1.75-.31-3.54-.79-5.32-1.43-.3-.1-.53-.38-.53-.71,0-.5.53-.88,1.01-.71,1.71.61,3.43,1.07,5.1,1.37,3.55.64,7,.63,10.46,0,1.69-.3,3.41-.76,5.12-1.36.39-.14.82.07.96.46.14.39-.07.82-.46.96-1.79.63-3.58,1.11-5.35,1.42-1.82.34-3.67.51-5.49.51Z"/>
      <path class="cls-3" d="m67.36,40.43c-.08,0-.17-.01-.25-.04-1.65-.59-3.35-1.04-5.06-1.35-3.49-.64-7.01-.64-10.56,0-1.66.3-3.36.75-5.06,1.36-.39.14-.82-.07-.96-.46-.14-.39.07-.82.46-.96,1.78-.63,3.56-1.11,5.3-1.42,3.72-.66,7.42-.66,11.09,0,1.79.32,3.57.8,5.3,1.41.39.14.59.57.46.96-.11.31-.4.5-.71.5Z"/>
      <path class="cls-3" d="m71.13,59.08h-28.72c-.41,0-.75-.34-.75-.75s.34-.75.75-.75h28.72c.41,0,.75.34.75.75s-.34.75-.75.75Z"/>
      <path class="cls-3" d="m71.13,61.53h-28.72c-.41,0-.75-.34-.75-.75s.34-.75.75-.75h28.72c.41,0,.75.34.75.75s-.34.75-.75.75Z"/>
      <path class="cls-3" d="m84.22,70.11H18.06c-.41,0-.75-.34-.75-.75s.34-.75.75-.75h66.16c.41,0,.75.34.75.75s-.34.75-.75.75Z"/>
      <path class="cls-3" d="m91.53,70.11h-5.25c-.41,0-.75-.34-.75-.75s.34-.75.75-.75h5.25c.41,0,.75.34.75.75s-.34.75-.75.75Z"/>
      <path class="cls-3" d="m95.98,70.11h-2.53c-.41,0-.75-.34-.75-.75s.34-.75.75-.75h2.53c.41,0,.75.34.75.75s-.34.75-.75.75Z"/>
      <path class="cls-3" d="m80.41,74.89h-41.81c-.41,0-.75-.34-.75-.75s.34-.75.75-.75h41.81c.41,0,.75.34.75.75s-.34.75-.75.75Z"/>
      <path class="cls-3" d="m37.3,74.89h-3.32c-.41,0-.75-.34-.75-.75s.34-.75.75-.75h3.32c.41,0,.75.34.75.75s-.34.75-.75.75Z"/>
      <path class="cls-3" d="m32.77,74.89h-1.61c-.41,0-.75-.34-.75-.75s.34-.75.75-.75h1.61c.41,0,.75.34.75.75s-.34.75-.75.75Z"/>
      <path class="cls-3" d="m68.38,78.01h-30.65c-.41,0-.75-.34-.75-.75s.34-.75.75-.75h30.65c.41,0,.75.34.75.75s-.34.75-.75.75Z"/>
      <path class="cls-3" d="m71.77,78.01h-2.43c-.41,0-.75-.34-.75-.75s.34-.75.75-.75h2.43c.41,0,.75.34.75.75s-.34.75-.75.75Z"/>
      <path class="cls-3" d="m73.84,78.01h-1.18c-.41,0-.75-.34-.75-.75s.34-.75.75-.75h1.18c.41,0,.75.34.75.75s-.34.75-.75.75Z"/>
    </g>
  </g>
  <g>
    <g>
      <path class="cls-3" d="m56.6,55.75s-.01,0-.02,0h-1.2c-.31,0-.59-.19-.7-.48l-.29-.77h-1.17l-.28.76c-.11.3-.39.49-.7.49h-1.19c-.25,0-.48-.12-.62-.33-.14-.21-.17-.46-.08-.7l2.14-5.51c.11-.29.39-.48.7-.48h1.18c.31,0,.58.19.7.47l2.15,5.36c.08.12.13.27.13.43,0,.41-.33.75-.75.75Z"/>
      <path class="cls-3" d="m48.16,55.75h-1.11c-.41,0-.75-.34-.75-.75v-5.51c0-.41.34-.75.75-.75h1.78c1.09,0,1.4.07,1.5.1.47.12.87.38,1.21.79.33.46.48.97.48,1.56,0,.48-.09.87-.28,1.21-.17.32-.4.58-.68.79-.26.2-.56.33-.87.39-.28.06-.68.09-1.28.09v1.33c0,.41-.34.75-.75.75Zm.75-4.57v.06c.35,0,.46-.04.47-.04-.08-.02-.24-.03-.47-.03Z"/>
      <path class="cls-3" d="m77.17,66.43h-40.79c-.41,0-.75-.34-.75-.75V24.31c0-5.38,4.38-9.76,9.77-9.76h21.93c5.84,0,10.59,4.74,10.59,10.57v40.56c0,.41-.34.75-.75.75Zm-40.04-1.5h39.29V25.12c0-5-4.08-9.07-9.09-9.07h-21.93c-4.56,0-8.27,3.71-8.27,8.26v40.62Zm27.16-9.08c-.86,0-1.56-.22-2.08-.65-.18-.16-.33-.33-.46-.53,0,0,0,0,0,0-.27.42-.65.74-1.11.92-.4.17-.89.26-1.47.26-.76,0-1.4-.17-1.9-.51-.01.03-.03.06-.05.08-.14.21-.37.33-.62.33h-1.2c-.31,0-.59-.19-.7-.48l-.29-.77h-1.17l-.28.76c-.11.3-.39.49-.7.49h-1.19c-.25,0-.48-.12-.62-.33-.14-.21-.17-.46-.08-.7l.56-1.44c-.22.14-.47.24-.72.29-.28.06-.68.09-1.28.09v1.33c0,.41-.34.75-.75.75h-1.11c-.41,0-.75-.34-.75-.75v-5.51c0-.41.34-.75.75-.75h1.78c1.09,0,1.4.07,1.5.1.47.12.87.38,1.21.79.21.29.35.61.42.96l.53-1.36c.11-.29.39-.48.7-.48h1.18c.31,0,.58.19.7.47l1.36,3.39c.11-.08.24-.13.37-.14h.14c-.39-.42-.6-.95-.6-1.53,0-.42.12-.83.35-1.19.28-.41.63-.69,1.06-.85.35-.16.8-.24,1.35-.24.87,0,1.55.21,2.05.64.23.2.41.44.54.7.04-.08.08-.16.14-.24.29-.42.64-.69,1.06-.85.33-.16.79-.24,1.35-.24.86,0,1.55.21,2.04.64.5.44.78,1.05.81,1.77,0,.2-.06.39-.2.54-.07.08-.15.13-.25.18.11.11.2.24.28.37.22.36.32.78.32,1.26,0,.44-.12.88-.36,1.27-.28.43-.66.74-1.12.93-.4.17-.89.26-1.47.26Zm-11.59-2.85h2.21s.04,0,.06,0l-1.11-2.76h-.16l-1.07,2.76s.04,0,.06,0Zm8.81-1.23c.1.11.2.23.28.36.07.11.12.22.17.34h.12c-.21-.23-.36-.48-.47-.75-.03.02-.07.04-.1.05Zm-13.7-1.52v2.02c.11-.06.23-.09.36-.09h.73c.47,0,.81-.02.99-.06.1-.02.2-.06.29-.13.11-.08.19-.18.26-.3.06-.11.09-.28.09-.49,0-.27-.06-.49-.17-.64-.14-.17-.28-.22-.37-.25-.01,0-.26-.05-1.14-.05h-1.03Zm8.97-4.08c-4.54,0-8.77-2.24-11.32-6-1.54-2.27-2.36-4.92-2.36-7.67s.86-5.54,2.48-7.84c2.56-3.65,6.75-5.83,11.2-5.83s8.64,2.18,11.2,5.83c1.62,2.3,2.47,5.02,2.47,7.84s-.82,5.41-2.36,7.67c-2.55,3.75-6.78,5.99-11.32,5.99Zm0-25.84c-3.96,0-7.69,1.94-9.97,5.19-1.44,2.05-2.2,4.46-2.2,6.98s.73,4.81,2.1,6.83c2.27,3.34,6.03,5.34,10.07,5.34s7.81-2,10.07-5.34c1.38-2.02,2.1-4.38,2.1-6.83s-.76-4.93-2.2-6.98c-2.28-3.25-6.01-5.19-9.97-5.19Z"/>
    </g>
    <g>
      <path class="cls-3" d="m56.77,46.16c-.41,0-.75-.34-.75-.75v-25.84c0-.41.34-.75.75-.75s.75.34.75.75v25.84c0,.41-.34.75-.75.75Z"/>
      <path class="cls-3" d="m69.7,33.24h-25.85c-.41,0-.75-.34-.75-.75s.34-.75.75-.75h25.85c.41,0,.75.34.75.75s-.34.75-.75.75Z"/>
      <path class="cls-3" d="m56.77,27.72c-1.8,0-3.65-.17-5.5-.5-1.75-.31-3.54-.79-5.32-1.43-.3-.1-.53-.38-.53-.71,0-.5.53-.88,1.01-.71,1.71.61,3.43,1.07,5.1,1.37,3.55.64,7,.63,10.46,0,1.69-.3,3.41-.76,5.12-1.36.39-.14.82.07.96.46.14.39-.07.82-.46.96-1.79.63-3.58,1.11-5.35,1.42-1.82.34-3.67.51-5.49.51Z"/>
      <path class="cls-3" d="m67.36,40.43c-.08,0-.17-.01-.25-.04-1.65-.59-3.35-1.04-5.06-1.35-3.49-.64-7.01-.64-10.56,0-1.66.3-3.36.75-5.06,1.36-.39.14-.82-.07-.96-.46-.14-.39.07-.82.46-.96,1.78-.63,3.56-1.11,5.3-1.42,3.72-.66,7.42-.66,11.09,0,1.79.32,3.57.8,5.3,1.41.39.14.59.57.46.96-.11.31-.4.5-.71.5Z"/>
      <path class="cls-3" d="m71.13,59.08h-28.72c-.41,0-.75-.34-.75-.75s.34-.75.75-.75h28.72c.41,0,.75.34.75.75s-.34.75-.75.75Z"/>
      <path class="cls-3" d="m71.13,61.53h-28.72c-.41,0-.75-.34-.75-.75s.34-.75.75-.75h28.72c.41,0,.75.34.75.75s-.34.75-.75.75Z"/>
      <path class="cls-3" d="m84.22,70.11H18.06c-.41,0-.75-.34-.75-.75s.34-.75.75-.75h66.16c.41,0,.75.34.75.75s-.34.75-.75.75Z"/>
      <path class="cls-3" d="m91.53,70.11h-5.25c-.41,0-.75-.34-.75-.75s.34-.75.75-.75h5.25c.41,0,.75.34.75.75s-.34.75-.75.75Z"/>
      <path class="cls-3" d="m95.98,70.11h-2.53c-.41,0-.75-.34-.75-.75s.34-.75.75-.75h2.53c.41,0,.75.34.75.75s-.34.75-.75.75Z"/>
      <path class="cls-3" d="m80.41,74.89h-41.81c-.41,0-.75-.34-.75-.75s.34-.75.75-.75h41.81c.41,0,.75.34.75.75s-.34.75-.75.75Z"/>
      <path class="cls-3" d="m37.3,74.89h-3.32c-.41,0-.75-.34-.75-.75s.34-.75.75-.75h3.32c.41,0,.75.34.75.75s-.34.75-.75.75Z"/>
      <path class="cls-3" d="m32.77,74.89h-1.61c-.41,0-.75-.34-.75-.75s.34-.75.75-.75h1.61c.41,0,.75.34.75.75s-.34.75-.75.75Z"/>
      <path class="cls-3" d="m68.38,78.01h-30.65c-.41,0-.75-.34-.75-.75s.34-.75.75-.75h30.65c.41,0,.75.34.75.75s-.34.75-.75.75Z"/>
      <path class="cls-3" d="m71.77,78.01h-2.43c-.41,0-.75-.34-.75-.75s.34-.75.75-.75h2.43c.41,0,.75.34.75.75s-.34.75-.75.75Z"/>
      <path class="cls-3" d="m73.84,78.01h-1.18c-.41,0-.75-.34-.75-.75s.34-.75.75-.75h1.18c.41,0,.75.34.75.75s-.34.75-.75.75Z"/>
    </g>
  </g>
</svg>