<?xml version="1.0" encoding="UTF-8"?>
<svg id="_11" data-name="11" xmlns="http://www.w3.org/2000/svg" viewBox="0 0 108 92">
  <defs>
    <style>
      .cls-1 {
        fill: #fff;
      }

      .cls-2 {
        fill: #ffe724;
      }

      .cls-3 {
        fill: #231f20;
      }
    </style>
  </defs>
  <g>
    <path class="cls-1" d="m42.82,18.02c10.71,5.46,22.6,14.73,28.3,24.7-8.84,4-15.85,11.82-14.02,19.93h-9.9c9.63-16.86,1.25-30.62-3.93-43.49-.16-.38-.31-.76-.45-1.13Z"/>
    <path class="cls-2" d="m44.54,20.15c10.17,5.19,21.47,14,26.89,23.46-8.4,3.8-15.06,11.23-13.32,18.93h-9.4c9.15-16.01,1.19-29.09-3.74-41.32-.15-.36-.29-.72-.43-1.08Z"/>
    <path class="cls-3" d="m57.12,63.4s-.01,0-.02,0h-9.9c-.27,0-.51-.14-.65-.37-.13-.23-.14-.52,0-.75,8.22-14.39,3.08-26.33-1.89-37.88-.72-1.67-1.43-3.32-2.09-4.96-.16-.38-.31-.77-.46-1.14-.11-.29-.03-.62.2-.83.23-.21.57-.25.84-.11,9.77,4.98,22.42,14.16,28.61,24.99.1.18.13.4.06.6-.07.2-.21.37-.4.45-7.77,3.52-15.32,10.93-13.63,18.92.05.1.07.21.07.32,0,.41-.33.75-.75.75Zm-8.65-1.5h7.73c-1.27-8.29,5.82-15.63,13.86-19.51-5.78-9.59-16.72-17.82-25.78-22.75.57,1.38,1.16,2.76,1.76,4.16,4.76,11.05,10.13,23.54,2.43,38.1Z"/>
  </g>
  <g>
    <path class="cls-1" d="m19.43,24.32c9.99,1.45,21.65,5.17,30.23,10.83,2.54,8.15,3.28,17.69-2.02,27.5l-9.29.18c2.35-18.12-10.17-28.11-18.92-38.51Z"/>
    <path class="cls-2" d="m21.24,26.29c9.49,1.37,20.57,4.91,28.72,10.29,2.41,7.74,3.12,16.81-1.92,26.12l-8.83.17c2.24-17.22-9.67-26.7-17.97-36.58Z"/>
    <path class="cls-3" d="m38.34,63.58c-.21,0-.42-.09-.56-.25-.15-.16-.21-.38-.19-.6,1.94-14.92-6.36-24.1-14.38-32.98-1.53-1.7-2.98-3.3-4.37-4.95-.2-.24-.23-.58-.08-.85.15-.27.45-.42.76-.38,11.2,1.62,22.61,5.71,30.54,10.95.14.1.25.24.3.4,3.23,10.34,2.55,19.53-2.08,28.08-.13.24-.37.39-.64.39l-9.29.18h-.01ZM21.32,25.38c.97,1.11,1.97,2.22,3.01,3.37,7.72,8.54,16.45,18.21,14.86,33.32l7.99-.16c4.2-8,4.8-16.6,1.84-26.27-7.27-4.74-17.47-8.51-27.7-10.25Z"/>
  </g>
  <g>
    <path class="cls-1" d="m11.06,33.98c6.95,1,14.7,3.11,21.67,6.21,4.11,6.18,6.83,13.33,5.62,22.64h-8.54c-2.19-12.34-8.81-23.69-18.75-28.85Z"/>
    <path class="cls-2" d="m12.75,35.71c6.6.95,13.97,2.96,20.58,5.9,3.91,5.87,6.49,12.66,5.34,21.51h-8.11c-2.08-11.72-8.37-22.51-17.81-27.41Z"/>
    <path class="cls-3" d="m38.34,63.58h-8.54c-.36,0-.67-.26-.74-.62-2.3-12.96-9.16-23.54-18.36-28.31-.33-.17-.48-.55-.37-.9.11-.35.46-.56.82-.51,7.42,1.07,15.19,3.3,21.86,6.26.13.06.24.15.32.27,5,7.5,6.82,14.86,5.74,23.16-.05.37-.37.65-.74.65Zm-7.91-1.5h7.25c.84-7.59-.9-14.37-5.46-21.3-5.37-2.37-11.44-4.25-17.46-5.41,7.77,5.51,13.49,15.18,15.67,26.71Z"/>
  </g>
  <g>
    <path class="cls-1" d="m77.85,28.31c-4.75.69-10.04,2.12-14.81,4.2,2.14,2.11,4.07,4.32,5.73,6.6,2.69-3.96,6.18-7.34,9.08-10.79Z"/>
    <path class="cls-2" d="m78.48,29.58c-4.51.66-9.54,2.01-14.07,3.99,2.03,2.01,3.87,4.1,5.44,6.27,2.56-3.77,5.87-6.97,8.63-10.25Z"/>
    <path class="cls-3" d="m68.76,39.85c-.24,0-.46-.11-.61-.31-1.57-2.16-3.47-4.35-5.65-6.5-.18-.17-.26-.43-.21-.67.05-.24.21-.45.44-.55,4.59-2,9.92-3.51,15-4.25.3-.04.61.1.76.38.15.27.12.61-.08.85-.97,1.16-2.03,2.33-3.05,3.46-2.07,2.29-4.22,4.67-5.99,7.27-.14.2-.36.32-.61.33h-.01Zm-4.41-7.09c1.64,1.68,3.11,3.37,4.4,5.06,1.69-2.35,3.63-4.49,5.51-6.58.57-.63,1.13-1.25,1.67-1.86-3.95.73-7.97,1.9-11.58,3.38Z"/>
  </g>
  <g>
    <path class="cls-1" d="m86.51,38.27c-13.8,1.99-32.27,11.74-29.41,24.38l16.05.18c-.39-11.22,7.65-17.76,13.36-24.56Z"/>
    <path class="cls-2" d="m86.78,39.89c-13.11,1.89-30.65,11.16-27.94,23.16l15.25.17c-.37-10.66,7.26-16.87,12.69-23.33Z"/>
    <path class="cls-3" d="m73.15,63.58h0l-16.05-.18c-.35,0-.65-.25-.72-.59-.82-3.64-.04-7.23,2.33-10.67,5.57-8.09,18.27-13.25,27.71-14.61.31-.04.61.11.76.38.15.27.12.61-.08.85-.97,1.15-2.02,2.32-3.04,3.45-5.14,5.69-10.46,11.57-10.14,20.6,0,.21-.07.4-.21.55-.14.14-.33.23-.54.23Zm-15.43-1.68l14.67.17c0-9.2,5.59-15.4,10.54-20.88.57-.62,1.11-1.23,1.65-1.83-9.07,1.77-19.92,6.77-24.64,13.63-2,2.9-2.74,5.9-2.22,8.91Z"/>
  </g>
  <path class="cls-3" d="m47.69,62.52c-.05,0-.1,0-.16-.02-.41-.09-.66-.48-.58-.89,4.25-20.03-27.55-36.47-27.87-36.63-.37-.19-.52-.64-.33-1.01.19-.37.64-.51,1.01-.33,1.36.69,33.14,17.12,28.66,38.28-.07.35-.39.59-.73.59Z"/>
  <path class="cls-3" d="m38.34,63.58s-.07,0-.1,0c-.41-.06-.7-.43-.64-.85,2.15-15.63-26.55-27.93-26.84-28.06-.38-.16-.56-.6-.4-.98.16-.38.6-.56.98-.4,1.23.52,30.04,12.88,27.74,29.64-.05.38-.37.65-.74.65Z"/>
  <path class="cls-3" d="m60.64,51.22c-.23,0-.45-.1-.6-.29-.25-.33-.19-.8.14-1.05.73-.56,1.12-1.34,1.2-2.4.63-8.57-18.91-28.73-19.1-28.93-.29-.3-.28-.77.01-1.06.3-.29.77-.28,1.06.01.83.85,20.2,20.85,19.53,30.09-.11,1.49-.71,2.66-1.79,3.48-.14.1-.3.15-.45.15Z"/>
  <path class="cls-3" d="m65.13,63.49c-.29,0-.56-.17-.68-.44-5.08-11.32,20.63-24.87,21.72-25.44.37-.19.82-.05,1.01.32.19.37.05.82-.32,1.01-.26.13-25.56,13.45-21.05,23.5.17.38,0,.82-.38.99-.1.04-.2.07-.31.07Z"/>
  <path class="cls-3" d="m77.01,69.35H25.58c-.41,0-.75-.34-.75-.75s.34-.75.75-.75h50.68v-4.05H25.58c-.41,0-.75-.34-.75-.75s.34-.75.75-.75h51.43c.41,0,.75.34.75.75v5.55c0,.41-.34.75-.75.75Z"/>
  <path class="cls-3" d="m71.58,72.73H25.56c-.41,0-.75-.34-.75-.75s.34-.75.75-.75h46.02c.41,0,.75.34.75.75s-.34.75-.75.75Z"/>
  <path class="cls-3" d="m76.67,72.73h-3.65c-.41,0-.75-.34-.75-.75s.34-.75.75-.75h3.65c.41,0,.75.34.75.75s-.34.75-.75.75Z"/>
  <path class="cls-3" d="m79.77,72.73h-1.76c-.41,0-.75-.34-.75-.75s.34-.75.75-.75h1.76c.41,0,.75.34.75.75s-.34.75-.75.75Z"/>
  <path class="cls-3" d="m68.93,75.72h-29.08c-.41,0-.75-.34-.75-.75s.34-.75.75-.75h29.08c.41,0,.75.34.75.75s-.34.75-.75.75Z"/>
  <path class="cls-3" d="m38.95,75.72h-2.31c-.41,0-.75-.34-.75-.75s.34-.75.75-.75h2.31c.41,0,.75.34.75.75s-.34.75-.75.75Z"/>
  <path class="cls-3" d="m35.8,75.72h-1.12c-.41,0-.75-.34-.75-.75s.34-.75.75-.75h1.12c.41,0,.75.34.75.75s-.34.75-.75.75Z"/>
  <path class="cls-3" d="m60.57,78.26h-21.33c-.41,0-.75-.34-.75-.75s.34-.75.75-.75h21.33c.41,0,.75.34.75.75s-.34.75-.75.75Z"/>
  <path class="cls-3" d="m62.93,78.26h-1.69c-.41,0-.75-.34-.75-.75s.34-.75.75-.75h1.69c.41,0,.75.34.75.75s-.34.75-.75.75Z"/>
  <path class="cls-3" d="m64.36,78.26h-.82c-.41,0-.75-.34-.75-.75s.34-.75.75-.75h.82c.41,0,.75.34.75.75s-.34.75-.75.75Z"/>
  <g>
    <path class="cls-1" d="m64.41,17.05c1.41,0,2.55,1.13,2.57,2.53.9.11,1.61.84,1.69,1.76.16-.05.34-.07.52-.07,1.07,0,1.96.87,1.96,1.95s-.88,1.96-1.96,1.96c-2.77,0-5.24-.28-8.1-.28-1.08,0-1.96-.88-1.96-1.95,0-.87.56-1.6,1.34-1.86.25-.63.74-1.14,1.37-1.42v-.05c0-1.42,1.15-2.57,2.57-2.57Z"/>
    <path class="cls-2" d="m65.46,18.26c1.34,0,2.42,1.07,2.45,2.41.85.11,1.53.8,1.61,1.67.16-.04.32-.06.49-.06,1.02,0,1.86.83,1.86,1.86s-.84,1.86-1.86,1.86c-2.63,0-4.97-.27-7.69-.27-1.03,0-1.86-.83-1.86-1.86,0-.82.53-1.52,1.27-1.77.24-.6.71-1.08,1.3-1.34v-.05c0-1.35,1.09-2.44,2.44-2.44Z"/>
    <path class="cls-3" d="m69.2,25.94c-1.39,0-2.73-.07-4.02-.14-1.3-.07-2.65-.14-4.08-.14-1.49,0-2.71-1.21-2.71-2.7,0-1.05.6-1.99,1.53-2.44.28-.53.7-.99,1.21-1.31.23-1.67,1.62-2.9,3.28-2.9s2.96,1.16,3.26,2.69c.71.27,1.29.83,1.57,1.54,1.47.03,2.66,1.23,2.66,2.7s-1.21,2.71-2.71,2.71Zm-4.78-8.14c-1,0-1.82.82-1.82,1.82,0,.3-.17.62-.45.74-.44.19-.8.56-.97,1-.08.2-.25.36-.46.43-.5.17-.83.63-.83,1.15,0,.66.54,1.2,1.21,1.2,1.46,0,2.83.07,4.16.14,1.33.07,2.59.14,3.94.14.66,0,1.21-.54,1.21-1.21s-.54-1.2-1.21-1.2c-.11,0-.22.01-.31.04-.21.06-.45.02-.63-.1s-.3-.33-.32-.55c-.05-.56-.49-1.01-1.04-1.08-.37-.05-.65-.36-.66-.73-.02-.99-.83-1.8-1.82-1.8Z"/>
  </g>
  <g>
    <path class="cls-1" d="m84.67,40.39c.09.26.14.53.15.81.9.12,1.61.85,1.7,1.76.16-.04.33-.06.51-.06,1.09,0,1.96.88,1.96,1.95s-.87,1.96-1.96,1.96c-2.64,0-5.01-.25-7.72-.28,1.71-2.15,3.59-4.16,5.37-6.14Z"/>
    <path class="cls-2" d="m85.65,41.56c.09.25.14.51.14.77.86.12,1.53.81,1.61,1.67.16-.04.31-.06.48-.06,1.03,0,1.86.83,1.86,1.86s-.83,1.86-1.86,1.86c-2.51,0-4.76-.24-7.33-.26,1.63-2.04,3.41-3.95,5.1-5.84Z"/>
    <path class="cls-3" d="m87.02,47.56c-1.4,0-2.74-.07-4.03-.14-1.19-.06-2.41-.13-3.69-.14-.29,0-.55-.17-.67-.43-.12-.26-.09-.57.09-.79,1.35-1.69,2.8-3.3,4.21-4.86l1.19-1.32c.18-.2.44-.28.7-.24.26.05.47.24.56.49.05.15.1.31.13.47.72.27,1.3.83,1.58,1.54,1.47.03,2.65,1.23,2.65,2.7s-1.22,2.71-2.71,2.71Zm-6.16-1.74c.76.03,1.49.07,2.21.1,1.34.07,2.6.14,3.95.14.67,0,1.21-.54,1.21-1.21,0-.77-.67-1.37-1.55-1.16-.21.05-.43,0-.61-.12-.18-.13-.29-.32-.31-.54-.05-.55-.5-1.01-1.05-1.09-.12-.02-.23-.06-.33-.13l-.35.39c-1.06,1.17-2.14,2.37-3.18,3.61Z"/>
  </g>
</svg>