<?xml version="1.0" encoding="UTF-8"?>
<svg id="_11" data-name="11" xmlns="http://www.w3.org/2000/svg" viewBox="0 0 108 97">
  <defs>
    <style>
      .cls-1 {
        fill: #fff;
      }

      .cls-2 {
        fill: #ffe724;
      }

      .cls-3 {
        fill: #231f20;
      }
    </style>
  </defs>
  <g>
    <g>
      <path class="cls-1" d="m83.98,29.79v44.18c0,2.63-2.15,4.78-4.79,4.78h-7.23V25.02h7.23c2.64,0,4.79,2.15,4.79,4.78Z"/>
      <rect class="cls-1" x="18.08" y="37.17" width="53.88" height="5.01"/>
      <polygon class="cls-1" points="71.96 25.02 71.96 37.17 18.08 37.17 18.08 25.02 34.2 25.02 55.85 25.02 71.96 25.02"/>
      <polygon class="cls-1" points="63.43 47.55 63.43 56 60.92 58.94 58.47 56 58.47 47.55 63.43 47.55"/>
      <rect class="cls-1" x="34.2" y="13.81" width="21.65" height="11.21"/>
      <polygon class="cls-1" points="31.57 47.55 31.57 56 29.06 58.94 26.61 56 26.61 47.55 31.57 47.55"/>
      <path class="cls-1" d="m31.57,47.55h-4.96v8.44l2.45,2.94,2.5-2.94v-8.44Zm31.86,8.44v-8.44h-4.96v8.44l2.46,2.94,2.5-2.94Zm8.54-13.82v36.57H18.08v-36.57h53.88Z"/>
      <path class="cls-1" d="m18.08,42.18v36.57h-7.24c-2.63,0-4.79-2.15-4.79-4.78V29.79c0-2.63,2.16-4.78,4.79-4.78h7.24v17.16Z"/>
    </g>
    <g>
      <path class="cls-1" d="m55.85,25.02h23.34c2.64,0,4.79,2.15,4.79,4.78v44.18c0,2.63-2.15,4.78-4.79,4.78H10.85c-2.63,0-4.79-2.15-4.79-4.78V29.79c0-2.63,2.16-4.78,4.79-4.78h23.35"/>
      <polygon class="cls-1" points="58.47 47.55 63.43 47.55 63.43 56 60.92 58.94 58.47 56 58.47 47.55"/>
      <polygon class="cls-1" points="26.61 47.55 31.57 47.55 31.57 56 29.06 58.94 26.61 56 26.61 47.55"/>
      <rect class="cls-1" x="34.2" y="13.81" width="21.65" height="11.21"/>
    </g>
  </g>
  <g>
    <g>
      <path class="cls-2" d="m83.04,31.63v41.97c0,2.5-2.04,4.54-4.55,4.54h-6.86V27.09h6.86c2.51,0,4.55,2.04,4.55,4.54Z"/>
      <rect class="cls-2" x="20.44" y="38.63" width="51.18" height="4.76"/>
      <polygon class="cls-2" points="71.62 27.09 71.62 38.63 20.44 38.63 20.44 27.09 35.75 27.09 56.31 27.09 71.62 27.09"/>
      <polygon class="cls-2" points="63.51 48.5 63.51 56.52 61.14 59.32 58.8 56.52 58.8 48.5 63.51 48.5"/>
      <rect class="cls-2" x="35.75" y="16.44" width="20.57" height="10.65"/>
      <polygon class="cls-2" points="33.25 48.5 33.25 56.52 30.87 59.32 28.54 56.52 28.54 48.5 33.25 48.5"/>
      <path class="cls-2" d="m33.25,48.5h-4.71v8.02l2.33,2.8,2.38-2.8v-8.02Zm30.26,8.02v-8.02h-4.71v8.02l2.33,2.8,2.38-2.8Zm8.11-13.13v34.74H20.44v-34.74h51.18Z"/>
      <path class="cls-2" d="m20.44,43.39v34.74h-6.87c-2.5,0-4.55-2.04-4.55-4.54V31.63c0-2.5,2.05-4.54,4.55-4.54h6.87v16.31Z"/>
    </g>
    <g>
      <path class="cls-2" d="m56.31,27.09h22.17c2.51,0,4.55,2.04,4.55,4.54v41.97c0,2.5-2.04,4.54-4.55,4.54H13.56c-2.5,0-4.55-2.04-4.55-4.54V31.63c0-2.5,2.05-4.54,4.55-4.54h22.18"/>
      <polygon class="cls-2" points="58.8 48.5 63.51 48.5 63.51 56.52 61.14 59.32 58.8 56.52 58.8 48.5"/>
      <polygon class="cls-2" points="28.54 48.5 33.25 48.5 33.25 56.52 30.87 59.32 28.54 56.52 28.54 48.5"/>
      <rect class="cls-2" x="35.75" y="16.44" width="20.57" height="10.65"/>
    </g>
  </g>
  <g>
    <g>
      <path class="cls-3" d="m79.19,79.5h-7.23c-.41,0-.75-.34-.75-.75V25.02c0-.41.34-.75.75-.75h7.23c3.06,0,5.54,2.48,5.54,5.53v44.18c0,3.05-2.49,5.53-5.54,5.53Zm-6.48-1.5h6.48c2.23,0,4.04-1.81,4.04-4.03V29.79c0-2.22-1.81-4.03-4.04-4.03h-6.48v52.24Z"/>
      <path class="cls-3" d="m71.96,42.93H18.08c-.41,0-.75-.34-.75-.75v-5.01c0-.41.34-.75.75-.75h53.88c.41,0,.75.34.75.75v5.01c0,.41-.34.75-.75.75Zm-53.13-1.5h52.38v-3.51H18.83v3.51Z"/>
      <path class="cls-3" d="m71.96,37.92H18.08c-.41,0-.75-.34-.75-.75v-12.15c0-.41.34-.75.75-.75h53.88c.41,0,.75.34.75.75v12.15c0,.41-.34.75-.75.75Zm-53.13-1.5h52.38v-10.65H18.83v10.65Z"/>
      <path class="cls-3" d="m60.92,59.69h0c-.22,0-.43-.1-.57-.27l-2.46-2.94c-.11-.13-.17-.3-.17-.48v-8.44c0-.41.34-.75.75-.75h4.96c.41,0,.75.34.75.75v8.44c0,.18-.06.35-.18.49l-2.5,2.94c-.14.17-.35.26-.57.26Zm-1.71-3.96l1.71,2.05,1.75-2.05v-7.42h-3.46v7.42Z"/>
      <path class="cls-3" d="m55.85,25.77h-21.65c-.41,0-.75-.34-.75-.75v-11.21c0-.41.34-.75.75-.75h21.65c.41,0,.75.34.75.75v11.21c0,.41-.34.75-.75.75Zm-20.9-1.5h20.15v-9.71h-20.15v9.71Z"/>
      <path class="cls-3" d="m29.06,59.69h0c-.22,0-.43-.1-.57-.27l-2.46-2.94c-.11-.13-.17-.3-.17-.48v-8.44c0-.41.34-.75.75-.75h4.96c.41,0,.75.34.75.75v8.44c0,.18-.06.35-.18.49l-2.5,2.94c-.14.17-.35.26-.57.26Zm-1.7-3.96l1.71,2.05,1.75-2.05v-7.42h-3.46v7.42Z"/>
      <path class="cls-3" d="m71.96,79.5H18.08c-.41,0-.75-.34-.75-.75v-36.57c0-.41.34-.75.75-.75h53.88c.41,0,.75.34.75.75v36.57c0,.41-.34.75-.75.75Zm-53.13-1.5h52.38v-35.07H18.83v35.07Zm10.23-18.31h0c-.22,0-.43-.1-.57-.27l-2.46-2.94c-.11-.13-.17-.3-.17-.48v-8.44c0-.41.34-.75.75-.75h4.96c.41,0,.75.34.75.75v8.44c0,.18-.06.35-.18.49l-2.5,2.94c-.14.17-.35.26-.57.26Zm-1.7-3.96l1.71,2.05,1.75-2.05v-7.42h-3.46v7.42Zm33.56,3.96h0c-.22,0-.43-.1-.57-.27l-2.46-2.94c-.11-.13-.17-.3-.17-.48v-8.44c0-.41.34-.75.75-.75h4.96c.41,0,.75.34.75.75v8.44c0,.18-.06.35-.18.49l-2.5,2.94c-.14.17-.35.26-.57.26Zm-1.71-3.96l1.71,2.05,1.75-2.05v-7.42h-3.46v7.42Z"/>
      <path class="cls-3" d="m18.08,79.5h-7.24c-3.06,0-5.54-2.48-5.54-5.53V29.79c0-3.05,2.49-5.53,5.54-5.53h7.24c.41,0,.75.34.75.75v53.74c0,.41-.34.75-.75.75Zm-7.24-53.74c-2.23,0-4.04,1.81-4.04,4.03v44.18c0,2.22,1.81,4.03,4.04,4.03h6.49V25.77h-6.49Z"/>
    </g>
    <g>
      <path class="cls-3" d="m79.19,79.5H10.85c-3.06,0-5.54-2.48-5.54-5.53V29.79c0-3.05,2.49-5.53,5.54-5.53h23.35c.41,0,.75.34.75.75s-.34.75-.75.75H10.85c-2.23,0-4.04,1.81-4.04,4.03v44.18c0,2.22,1.81,4.03,4.04,4.03h68.34c2.23,0,4.04-1.81,4.04-4.03V29.79c0-2.22-1.81-4.03-4.04-4.03h-23.34c-.41,0-.75-.34-.75-.75s.34-.75.75-.75h23.34c3.06,0,5.54,2.48,5.54,5.53v44.18c0,3.05-2.49,5.53-5.54,5.53Z"/>
      <path class="cls-3" d="m71.96,79.5c-.41,0-.75-.34-.75-.75V25.02c0-.41.34-.75.75-.75s.75.34.75.75v53.74c0,.41-.34.75-.75.75Z"/>
      <path class="cls-3" d="m18.08,79.5c-.41,0-.75-.34-.75-.75V25.02c0-.41.34-.75.75-.75s.75.34.75.75v53.74c0,.41-.34.75-.75.75Z"/>
      <path class="cls-3" d="m60.92,59.69h0c-.22,0-.43-.1-.57-.27l-2.46-2.94c-.11-.13-.17-.3-.17-.48v-8.44c0-.41.34-.75.75-.75h4.96c.41,0,.75.34.75.75v8.44c0,.18-.06.35-.18.49l-2.5,2.94c-.14.17-.35.26-.57.26Zm-1.71-3.96l1.71,2.05,1.75-2.05v-7.42h-3.46v7.42Z"/>
      <path class="cls-3" d="m29.06,59.69h0c-.22,0-.43-.1-.57-.27l-2.46-2.94c-.11-.13-.17-.3-.17-.48v-8.44c0-.41.34-.75.75-.75h4.96c.41,0,.75.34.75.75v8.44c0,.18-.06.35-.18.49l-2.5,2.94c-.14.17-.35.26-.57.26Zm-1.7-3.96l1.71,2.05,1.75-2.05v-7.42h-3.46v7.42Z"/>
      <path class="cls-3" d="m55.85,25.77h-21.65c-.41,0-.75-.34-.75-.75v-11.21c0-.41.34-.75.75-.75h21.65c.41,0,.75.34.75.75v11.21c0,.41-.34.75-.75.75Zm-20.9-1.5h20.15v-9.71h-20.15v9.71Z"/>
      <path class="cls-3" d="m71.96,42.93H18.08c-.41,0-.75-.34-.75-.75s.34-.75.75-.75h53.88c.41,0,.75.34.75.75s-.34.75-.75.75Z"/>
      <path class="cls-3" d="m71.96,37.92H18.08c-.41,0-.75-.34-.75-.75s.34-.75.75-.75h53.88c.41,0,.75.34.75.75s-.34.75-.75.75Z"/>
    </g>
  </g>
  <g>
    <path class="cls-3" d="m71.96,79.5H18.08c-.41,0-.75-.34-.75-.75v-36.57c0-.41.34-.75.75-.75h53.88c.41,0,.75.34.75.75v36.57c0,.41-.34.75-.75.75Zm-53.13-1.5h52.38v-35.07H18.83v35.07Zm10.23-18.31h0c-.22,0-.43-.1-.57-.27l-2.46-2.94c-.11-.13-.17-.3-.17-.48v-8.44c0-.41.34-.75.75-.75h4.96c.41,0,.75.34.75.75v8.44c0,.18-.06.35-.18.49l-2.5,2.94c-.14.17-.35.26-.57.26Zm-1.7-3.96l1.71,2.05,1.75-2.05v-7.42h-3.46v7.42Zm33.56,3.96h0c-.22,0-.43-.1-.57-.27l-2.46-2.94c-.11-.13-.17-.3-.17-.48v-8.44c0-.41.34-.75.75-.75h4.96c.41,0,.75.34.75.75v8.44c0,.18-.06.35-.18.49l-2.5,2.94c-.14.17-.35.26-.57.26Zm-1.71-3.96l1.71,2.05,1.75-2.05v-7.42h-3.46v7.42Z"/>
    <g>
      <path class="cls-3" d="m79.19,79.5H10.85c-3.06,0-5.54-2.48-5.54-5.53V29.79c0-3.05,2.49-5.53,5.54-5.53h23.35c.41,0,.75.34.75.75s-.34.75-.75.75H10.85c-2.23,0-4.04,1.81-4.04,4.03v44.18c0,2.22,1.81,4.03,4.04,4.03h68.34c2.23,0,4.04-1.81,4.04-4.03V29.79c0-2.22-1.81-4.03-4.04-4.03h-23.34c-.41,0-.75-.34-.75-.75s.34-.75.75-.75h23.34c3.06,0,5.54,2.48,5.54,5.53v44.18c0,3.05-2.49,5.53-5.54,5.53Z"/>
      <path class="cls-3" d="m71.96,79.5c-.41,0-.75-.34-.75-.75V25.02c0-.41.34-.75.75-.75s.75.34.75.75v53.74c0,.41-.34.75-.75.75Z"/>
      <path class="cls-3" d="m18.08,79.5c-.41,0-.75-.34-.75-.75V25.02c0-.41.34-.75.75-.75s.75.34.75.75v53.74c0,.41-.34.75-.75.75Z"/>
      <path class="cls-3" d="m71.96,42.93H18.08c-.41,0-.75-.34-.75-.75s.34-.75.75-.75h53.88c.41,0,.75.34.75.75s-.34.75-.75.75Z"/>
      <path class="cls-3" d="m71.96,37.92H18.08c-.41,0-.75-.34-.75-.75s.34-.75.75-.75h53.88c.41,0,.75.34.75.75s-.34.75-.75.75Z"/>
    </g>
  </g>
</svg>