<?xml version="1.0" encoding="UTF-8"?>
<svg id="_11" data-name="11" xmlns="http://www.w3.org/2000/svg" viewBox="0 0 100 101">
  <defs>
    <style>
      .cls-1 {
        fill: #fff;
      }

      .cls-2 {
        fill: #ffe724;
      }

      .cls-3 {
        fill: #231f20;
      }
    </style>
  </defs>
  <path class="cls-3" d="m77.98,81.73H23.12c-.41,0-.75-.33-.75-.75l-.09-48.71c0-.2.08-.39.22-.53.14-.14.33-.22.53-.22h29.69c.41,0,.75.34.75.75s-.34.75-.75.75h-28.94l.09,47.21h53.37l.24-45.35c0-.41.34-.75.75-.75h0c.41,0,.75.34.75.75l-.25,46.1c0,.41-.34.75-.75.75Z"/>
  <g>
    <path class="cls-1" d="m66.29,8.34c8.69,0,15.74,7.05,15.74,15.73,0,9.8-10.04,18.41-15.74,26.4-5.7-7.99-15.74-16.6-15.74-26.4,0-8.68,7.05-15.73,15.74-15.73Z"/>
    <path class="cls-2" d="m67.3,10.4c8.25,0,14.95,6.69,14.95,14.94,0,9.31-9.54,17.49-14.95,25.08-5.41-7.59-14.95-15.77-14.95-25.08,0-8.25,6.7-14.94,14.95-14.94Z"/>
    <path class="cls-3" d="m66.29,51.21c-.24,0-.47-.12-.61-.31-1.45-2.03-3.16-4.08-4.98-6.25-5.36-6.41-10.9-13.03-10.9-20.58,0-9.09,7.4-16.48,16.49-16.48s16.49,7.39,16.49,16.48c0,7.55-5.54,14.17-10.89,20.58-1.82,2.17-3.53,4.23-4.98,6.26-.14.2-.37.31-.61.31Zm0-42.13c-8.26,0-14.99,6.72-14.99,14.98,0,7.01,5.36,13.42,10.55,19.62,1.59,1.9,3.1,3.71,4.44,5.5,1.34-1.8,2.85-3.61,4.44-5.51,5.18-6.2,10.54-12.61,10.54-19.61,0-8.26-6.72-14.98-14.99-14.98Z"/>
  </g>
  <path class="cls-3" d="m77.98,81.73c-.17,0-.35-.06-.49-.18l-44.3-38.03c-.31-.27-.35-.74-.08-1.06.27-.31.74-.35,1.06-.08l44.3,38.03c.31.27.35.74.08,1.06-.15.17-.36.26-.57.26Z"/>
  <path class="cls-3" d="m58.85,65.24c-.19,0-.38-.07-.53-.22-.29-.29-.29-.77,0-1.06l10.47-10.47c.29-.29.77-.29,1.06,0,.29.29.29.77,0,1.06l-10.47,10.47c-.15.15-.34.22-.53.22Z"/>
  <path class="cls-3" d="m48.65,74.04c-.19,0-.38-.07-.53-.22l-9.45-9.44c-.14-.14-.22-.33-.22-.53s.08-.39.22-.53l8.69-8.69c.29-.29.77-.29,1.06,0,.29.29.29.77,0,1.06l-8.16,8.16,8.92,8.91c.29.29.29.77,0,1.06-.15.15-.34.22-.53.22Z"/>
  <path class="cls-3" d="m32.76,71.03c-.19,0-.38-.07-.53-.22-.29-.29-.29-.77,0-1.06l6.44-6.43c.29-.29.77-.29,1.06,0,.29.29.29.77,0,1.06l-6.44,6.43c-.15.15-.34.22-.53.22Z"/>
  <path class="cls-3" d="m38.82,48.09c-.19,0-.38-.07-.53-.22-.29-.29-.29-.77,0-1.06l5.5-5.49c.29-.29.77-.29,1.06,0,.29.29.29.77,0,1.06l-5.5,5.49c-.15.15-.34.22-.53.22Z"/>
  <g>
    <path class="cls-1" d="m66.29,17.23c3.88,0,7.02,3.13,7.02,7.02s-3.14,7.02-7.02,7.02-7.02-3.14-7.02-7.02,3.14-7.02,7.02-7.02Z"/>
    <path class="cls-2" d="m67.3,18.59c3.68,0,6.67,2.98,6.67,6.66s-2.98,6.67-6.67,6.67-6.67-2.99-6.67-6.67,2.98-6.66,6.67-6.66Z"/>
    <path class="cls-3" d="m66.29,32.02c-4.29,0-7.77-3.49-7.77-7.77s3.49-7.77,7.77-7.77,7.77,3.48,7.77,7.77-3.48,7.77-7.77,7.77Zm0-14.04c-3.46,0-6.27,2.81-6.27,6.27s2.81,6.27,6.27,6.27,6.27-2.81,6.27-6.27-2.81-6.27-6.27-6.27Z"/>
  </g>
  <path class="cls-3" d="m72.96,86.97H18.09c-.41,0-.75-.34-.75-.75l-.08-48.71c0-.41.33-.75.75-.75h0c.41,0,.75.33.75.75l.08,47.96h54.12c.41,0,.75.34.75.75s-.34.75-.75.75Z"/>
  <path class="cls-3" d="m68.17,73.31c-.19,0-.38-.07-.53-.22-.29-.29-.29-.77,0-1.06l4.78-4.76c.29-.29.77-.29,1.06,0,.29.29.29.77,0,1.06l-4.78,4.76c-.15.15-.34.22-.53.22Z"/>
</svg>