<?xml version="1.0" encoding="UTF-8"?>
<svg id="_11" data-name="11" xmlns="http://www.w3.org/2000/svg" viewBox="0 0 101 101">
  <defs>
    <style>
      .cls-1 {
        fill: #fff;
      }

      .cls-2 {
        fill: #ffe724;
      }

      .cls-3 {
        fill: #231f20;
      }
    </style>
  </defs>
  <g>
    <path class="cls-1" d="m32.3,20.4h41.43c1.72,0,3.14,1.41,3.14,3.13v41.41c0,1.72-1.42,3.14-3.14,3.14h-41.43c-1.72,0-3.14-1.42-3.14-3.14V23.53c0-1.72,1.41-3.13,3.14-3.13Z"/>
    <path class="cls-2" d="m34.34,22.6h39.36c1.64,0,2.98,1.34,2.98,2.97v39.34c0,1.64-1.35,2.98-2.98,2.98h-39.36c-1.64,0-2.98-1.35-2.98-2.98V25.57c0-1.63,1.34-2.97,2.98-2.97Z"/>
    <path class="cls-3" d="m73.73,68.83h-41.43c-2.14,0-3.89-1.75-3.89-3.89V23.53c0-2.14,1.74-3.88,3.89-3.88h41.43c2.15,0,3.89,1.74,3.89,3.88v41.41c0,2.15-1.75,3.89-3.89,3.89ZM32.3,21.15c-1.32,0-2.39,1.07-2.39,2.38v41.41c0,1.32,1.07,2.39,2.39,2.39h41.43c1.32,0,2.39-1.07,2.39-2.39V23.53c0-1.31-1.07-2.38-2.39-2.38h-41.43Z"/>
  </g>
  <g>
    <rect class="cls-1" x="33.87" y="27.62" width="38.28" height="16.72"/>
    <rect class="cls-2" x="35.84" y="29.04" width="36.37" height="15.89"/>
    <path class="cls-3" d="m72.15,45.09h-38.28c-.41,0-.75-.34-.75-.75v-16.72c0-.41.34-.75.75-.75h38.28c.41,0,.75.34.75.75v16.72c0,.41-.34.75-.75.75Zm-37.53-1.5h36.78v-15.22h-36.78v15.22Z"/>
  </g>
  <path class="cls-3" d="m53.01,44.99c-.41,0-.75-.34-.75-.75v-16.62c0-.41.34-.75.75-.75s.75.34.75.75v16.62c0,.41-.34.75-.75.75Z"/>
  <path class="cls-3" d="m65.71,63.49c-2.84,0-5.15-2.31-5.15-5.14s2.31-5.14,5.15-5.14,5.14,2.31,5.14,5.14-2.31,5.14-5.14,5.14Zm0-8.78c-2.01,0-3.65,1.63-3.65,3.64s1.64,3.64,3.65,3.64,3.64-1.63,3.64-3.64-1.63-3.64-3.64-3.64Zm-25.39,8.78c-2.84,0-5.15-2.31-5.15-5.14s2.31-5.14,5.15-5.14,5.14,2.31,5.14,5.14-2.31,5.14-5.14,5.14Zm0-8.78c-2.01,0-3.65,1.63-3.65,3.64s1.64,3.64,3.65,3.64,3.64-1.63,3.64-3.64-1.63-3.64-3.64-3.64Z"/>
  <g>
    <rect class="cls-1" x="48.02" y="56.29" width="9.99" height="4.13"/>
    <rect class="cls-2" x="49.27" y="57.4" width="9.49" height="3.93"/>
    <path class="cls-3" d="m58,61.17h-9.99c-.41,0-.75-.34-.75-.75v-4.13c0-.41.34-.75.75-.75h9.99c.41,0,.75.34.75.75v4.13c0,.41-.34.75-.75.75Zm-9.24-1.5h8.49v-2.63h-8.49v2.63Z"/>
  </g>
  <path class="cls-3" d="m31.04,89.97c-.1,0-.21-.02-.31-.07-.38-.17-.54-.62-.37-.99l9.64-21.14c.12-.27.39-.44.68-.44h24.67c.29,0,.56.17.68.44l9.64,21.14c.17.38,0,.82-.37.99-.38.17-.82,0-.99-.37l-9.44-20.7h-23.7l-9.44,20.7c-.13.28-.4.44-.68.44Z"/>
  <path class="cls-3" d="m72.38,84.09h-38.66c-.41,0-.75-.34-.75-.75s.34-.75.75-.75h38.66c.41,0,.75.34.75.75s-.34.75-.75.75Z"/>
  <path class="cls-3" d="m70.17,79.31h-34.25c-.41,0-.75-.34-.75-.75s.34-.75.75-.75h34.25c.41,0,.75.34.75.75s-.34.75-.75.75Z"/>
  <path class="cls-3" d="m68.06,74.76h-30.02c-.41,0-.75-.34-.75-.75s.34-.75.75-.75h30.02c.41,0,.75.34.75.75s-.34.75-.75.75Z"/>
  <path class="cls-3" d="m62.43,38.44c-.26,0-.5-.13-.65-.37-.21-.36-.1-.82.26-1.03l6.48-3.87c.36-.21.82-.09,1.03.26.21.36.1.82-.26,1.03l-6.48,3.87c-.12.07-.25.11-.38.11Z"/>
  <path class="cls-3" d="m57.83,38.25c-.26,0-.5-.13-.65-.37-.21-.36-.1-.82.26-1.03l6.49-3.87c.36-.21.82-.09,1.03.26.21.36.1.82-.26,1.03l-6.49,3.87c-.12.07-.25.11-.38.11Z"/>
  <path class="cls-3" d="m42.87,38.44c-.26,0-.5-.13-.65-.37-.21-.36-.1-.82.26-1.03l6.49-3.87c.36-.21.82-.09,1.03.26.21.36.1.82-.26,1.03l-6.49,3.87c-.12.07-.25.11-.38.11Z"/>
  <path class="cls-3" d="m38.27,38.25c-.26,0-.5-.13-.64-.37-.21-.36-.1-.82.26-1.03l6.48-3.87c.36-.21.82-.1,1.03.26.21.36.1.82-.26,1.03l-6.48,3.87c-.12.07-.25.11-.38.11Z"/>
  <g>
    <polygon class="cls-1" points="55.16 15.62 55.16 20.4 50.87 20.4 50.87 15.62 47.9 15.62 47.9 11.34 58.12 11.34 58.12 15.62 55.16 15.62"/>
    <polygon class="cls-2" points="56.06 16.64 56.06 21.18 51.99 21.18 51.99 16.64 49.17 16.64 49.17 12.57 58.88 12.57 58.88 16.64 56.06 16.64"/>
    <path class="cls-3" d="m55.16,21.15h-4.29c-.41,0-.75-.34-.75-.75v-4.03h-2.22c-.41,0-.75-.34-.75-.75v-4.28c0-.41.34-.75.75-.75h10.22c.41,0,.75.34.75.75v4.28c0,.41-.34.75-.75.75h-2.22v4.03c0,.41-.34.75-.75.75Zm-3.54-1.5h2.79v-4.03c0-.41.34-.75.75-.75h2.22v-2.78h-8.72v2.78h2.22c.41,0,.75.34.75.75v4.03Z"/>
  </g>
</svg>