<?xml version="1.0" encoding="UTF-8"?>
<svg id="_11" data-name="11" xmlns="http://www.w3.org/2000/svg" viewBox="0 0 115 97">
  <defs>
    <style>
      .cls-1 {
        fill: #fff;
      }

      .cls-2 {
        fill: #ffe724;
      }

      .cls-3 {
        fill: #231f20;
      }
    </style>
  </defs>
  <g>
    <path class="cls-1" d="m18.84,21.51h68.36c2.63,0,4.78,2.15,4.78,4.79v44.17c0,2.64-2.15,4.79-4.78,4.79H18.84c-2.63,0-4.78-2.15-4.78-4.79V26.3c0-2.64,2.16-4.79,4.78-4.79Z"/>
    <path class="cls-2" d="m21.56,23.87h64.94c2.5,0,4.54,2.04,4.54,4.55v41.96c0,2.51-2.04,4.55-4.54,4.55H21.56c-2.5,0-4.54-2.04-4.54-4.55V28.41c0-2.51,2.05-4.55,4.54-4.55Z"/>
    <path class="cls-3" d="m87.2,76.01H18.84c-3.05,0-5.53-2.48-5.53-5.54V26.3c0-3.05,2.48-5.54,5.53-5.54h68.36c3.05,0,5.53,2.48,5.53,5.54v44.17c0,3.05-2.48,5.54-5.53,5.54ZM18.84,22.26c-2.22,0-4.03,1.81-4.03,4.04v44.17c0,2.23,1.81,4.04,4.03,4.04h68.36c2.22,0,4.03-1.81,4.03-4.04V26.3c0-2.23-1.81-4.04-4.03-4.04H18.84Z"/>
  </g>
  <path class="cls-3" d="m79.96,76.01c-.41,0-.75-.34-.75-.75V21.51c0-.41.34-.75.75-.75s.75.34.75.75v53.75c0,.41-.34.75-.75.75Zm-53.88,0c-.41,0-.75-.34-.75-.75V21.51c0-.41.34-.75.75-.75s.75.34.75.75v53.75c0,.41-.34.75-.75.75Z"/>
  <path class="cls-3" d="m68.92,43.1h0c-.22,0-.43-.1-.57-.27l-2.45-2.95c-.11-.13-.17-.3-.17-.48v-8.44c0-.41.34-.75.75-.75h4.95c.41,0,.75.34.75.75v8.44c0,.18-.06.35-.18.49l-2.5,2.95c-.14.17-.35.26-.57.26Zm-1.7-3.97l1.7,2.05,1.75-2.06v-7.41h-3.45v7.42Zm-30.16,3.97h0c-.22,0-.43-.1-.57-.27l-2.45-2.95c-.11-.13-.17-.3-.17-.48v-8.44c0-.41.34-.75.75-.75h4.95c.41,0,.75.34.75.75v8.44c0,.18-.06.35-.18.48l-2.5,2.95c-.14.17-.35.27-.57.27Zm-1.7-3.97l1.71,2.05,1.74-2.06v-7.41h-3.45v7.42Z"/>
  <g>
    <rect class="cls-1" x="42.2" y="10.3" width="21.65" height="11.21"/>
    <rect class="cls-2" x="43.75" y="11.59" width="20.57" height="10.65"/>
    <path class="cls-3" d="m63.84,22.26h-21.65c-.41,0-.75-.34-.75-.75v-11.21c0-.41.34-.75.75-.75h21.65c.41,0,.75.34.75.75v11.21c0,.41-.34.75-.75.75Zm-20.9-1.5h20.15v-9.71h-20.15v9.71Z"/>
  </g>
  <path class="cls-3" d="m79.96,31.71H26.08c-.41,0-.75-.34-.75-.75s.34-.75.75-.75h53.88c.41,0,.75.34.75.75s-.34.75-.75.75Z"/>
  <g>
    <polygon class="cls-1" points="50.29 48.16 55.75 48.16 55.75 53.86 61.45 53.86 61.45 59.32 55.75 59.32 55.75 65.02 50.29 65.02 50.29 59.32 44.59 59.32 44.59 53.86 50.29 53.86 50.29 48.16"/>
    <polygon class="cls-2" points="51.43 49.59 56.63 49.59 56.63 55 62.04 55 62.04 60.19 56.63 60.19 56.63 65.6 51.43 65.6 51.43 60.19 46.02 60.19 46.02 55 51.43 55 51.43 49.59"/>
    <path class="cls-3" d="m55.75,65.77h-5.47c-.41,0-.75-.34-.75-.75v-4.95h-4.94c-.41,0-.75-.34-.75-.75v-5.46c0-.41.34-.75.75-.75h4.94v-4.95c0-.41.34-.75.75-.75h5.47c.41,0,.75.34.75.75v4.95h4.95c.41,0,.75.34.75.75v5.46c0,.41-.34.75-.75.75h-4.95v4.95c0,.41-.34.75-.75.75Zm-4.72-1.5h3.97v-4.95c0-.41.34-.75.75-.75h4.95v-3.96h-4.95c-.41,0-.75-.34-.75-.75v-4.95h-3.97v4.95c0,.41-.34.75-.75.75h-4.94v3.96h4.94c.41,0,.75.34.75.75v4.95Z"/>
  </g>
  <path class="cls-3" d="m58.32,14.86h-10.59c-.41,0-.75-.34-.75-.75s.34-.75.75-.75h10.59c.41,0,.75.34.75.75s-.34.75-.75.75Z"/>
  <path class="cls-3" d="m58.32,17.83h-10.59c-.41,0-.75-.34-.75-.75s.34-.75.75-.75h10.59c.41,0,.75.34.75.75s-.34.75-.75.75Z"/>
  <path class="cls-3" d="m71.02,80.46H27.73c-.41,0-.75-.34-.75-.75s.34-.75.75-.75h43.29c.41,0,.75.34.75.75s-.34.75-.75.75Z"/>
  <path class="cls-3" d="m75.8,80.46h-3.43c-.41,0-.75-.34-.75-.75s.34-.75.75-.75h3.43c.41,0,.75.34.75.75s-.34.75-.75.75Z"/>
  <path class="cls-3" d="m78.72,80.46h-1.66c-.41,0-.75-.34-.75-.75s.34-.75.75-.75h1.66c.41,0,.75.34.75.75s-.34.75-.75.75Z"/>
  <path class="cls-3" d="m68.17,85.01h-25.38c-.41,0-.75-.34-.75-.75s.34-.75.75-.75h25.38c.41,0,.75.34.75.75s-.34.75-.75.75Z"/>
  <path class="cls-3" d="m41.99,85.01h-2.01c-.41,0-.75-.34-.75-.75s.34-.75.75-.75h2.01c.41,0,.75.34.75.75s-.34.75-.75.75Z"/>
  <path class="cls-3" d="m39.25,85.01h-1.93c-.41,0-.75-.34-.75-.75s.34-.75.75-.75h1.93c.41,0,.75.34.75.75s-.34.75-.75.75Z"/>
</svg>