<?xml version="1.0" encoding="UTF-8"?>
<svg id="_11" data-name="11" xmlns="http://www.w3.org/2000/svg" viewBox="0 0 121 122">
  <defs>
    <style>
      .cls-1 {
        fill: #fff;
      }

      .cls-2 {
        fill: #ffe724;
      }

      .cls-3 {
        fill: #231f20;
      }
    </style>
  </defs>
  <path class="cls-3" d="m35.82,87.62c-.41,0-.75-.34-.75-.75s.34-.75.75-.75c1.17,0,2.11-.95,2.11-2.11s-.95-2.11-2.11-2.11h-17.14c-.41,0-.75-.34-.75-.75s.34-.75.75-.75h17.14c1.99,0,3.61,1.62,3.61,3.61s-1.62,3.61-3.61,3.61Z"/>
  <path class="cls-3" d="m44.29,93.34h-8.13c-.41,0-.75-.34-.75-.75s.34-.75.75-.75h8.13c1.16,0,2.11-.95,2.11-2.12s-.95-2.11-2.11-2.11h-14.63c-.41,0-.75-.34-.75-.75s.34-.75.75-.75h14.63c1.99,0,3.61,1.62,3.61,3.61s-1.62,3.62-3.61,3.62Z"/>
  <path class="cls-3" d="m40.13,99.06h-14.63c-.41,0-.75-.34-.75-.75s.34-.75.75-.75h14.63c1.16,0,2.11-.95,2.11-2.11s-.95-2.11-2.11-2.11c-.41,0-.75-.34-.75-.75s.34-.75.75-.75c1.99,0,3.61,1.62,3.61,3.61s-1.62,3.61-3.61,3.61Z"/>
  <path class="cls-3" d="m80.63,73.83c-.19,0-.39-.07-.53-.22l-26.81-27-26.82,27c-.29.29-.77.29-1.06,0-.29-.29-.3-.77,0-1.06l27.35-27.53c.14-.14.33-.22.53-.22h0c.2,0,.39.08.53.22l27.34,27.53c.29.29.29.77,0,1.06-.15.14-.34.22-.53.22Z"/>
  <path class="cls-3" d="m16.62,74.13c-.19,0-.38-.07-.52-.21-.3-.29-.3-.76-.01-1.06l15.39-15.79c.29-.3.76-.3,1.06-.02l9.09,8.82c.3.29.3.76.02,1.06-.29.3-.76.3-1.06.02l-8.55-8.3-14.87,15.25c-.15.15-.34.23-.54.23Z"/>
  <g>
    <path class="cls-1" d="m70.3,43.38c1.85,0,3.34,1.5,3.34,3.34s-1.49,3.34-3.34,3.34-3.34-1.5-3.34-3.34,1.5-3.34,3.34-3.34Z"/>
    <path class="cls-2" d="m71.31,44.56c1.76,0,3.18,1.42,3.18,3.17s-1.42,3.18-3.18,3.18-3.17-1.42-3.17-3.18,1.42-3.17,3.17-3.17Z"/>
    <path class="cls-3" d="m70.3,50.81c-2.25,0-4.09-1.84-4.09-4.09s1.83-4.09,4.09-4.09,4.09,1.83,4.09,4.09-1.84,4.09-4.09,4.09Zm0-6.68c-1.43,0-2.59,1.16-2.59,2.59s1.16,2.59,2.59,2.59,2.59-1.16,2.59-2.59-1.16-2.59-2.59-2.59Z"/>
  </g>
  <path class="cls-3" d="m70.3,42.64c-.41,0-.75-.34-.75-.75v-1.32c0-.41.34-.75.75-.75s.75.34.75.75v1.32c0,.41-.34.75-.75.75Z"/>
  <path class="cls-3" d="m73.72,44.06c-.19,0-.38-.07-.53-.22-.29-.29-.3-.77,0-1.06l.93-.94c.29-.29.77-.3,1.06,0,.29.29.3.77,0,1.06l-.93.94c-.15.15-.34.22-.53.22Z"/>
  <path class="cls-3" d="m76.45,47.48h-1.32c-.41,0-.75-.34-.75-.75s.34-.75.75-.75h1.32c.41,0,.75.34.75.75s-.34.75-.75.75Z"/>
  <path class="cls-3" d="m74.65,51.83c-.19,0-.39-.07-.53-.22l-.93-.94c-.29-.29-.29-.77,0-1.06.29-.29.77-.29,1.06,0l.93.94c.29.29.29.77,0,1.06-.15.15-.34.22-.53.22Z"/>
  <path class="cls-3" d="m70.3,53.62c-.41,0-.75-.34-.75-.75v-1.32c0-.41.34-.75.75-.75s.75.34.75.75v1.32c0,.41-.34.75-.75.75Z"/>
  <path class="cls-3" d="m65.95,51.82c-.19,0-.38-.07-.53-.22-.29-.29-.29-.77,0-1.06l.93-.93c.29-.29.77-.29,1.06,0,.29.29.29.77,0,1.06l-.93.93c-.15.15-.34.22-.53.22Z"/>
  <path class="cls-3" d="m65.46,47.47h-1.32c-.41,0-.75-.34-.75-.75s.34-.75.75-.75h1.32c.41,0,.75.34.75.75s-.34.75-.75.75Z"/>
  <path class="cls-3" d="m66.88,44.06c-.19,0-.39-.07-.53-.22l-.93-.94c-.29-.29-.29-.77,0-1.06.29-.29.77-.29,1.06,0l.93.94c.29.29.29.77,0,1.06-.15.14-.34.22-.53.22Z"/>
  <g>
    <path class="cls-1" d="m37.06,34.24c1.5,0,2.72,1.2,2.74,2.7.96.12,1.72.89,1.81,1.87.17-.05.36-.07.54-.07,1.15,0,2.09.94,2.09,2.09s-.94,2.08-2.09,2.08c-2.95,0-5.57-.3-8.62-.3-1.15,0-2.08-.93-2.08-2.08,0-.92.59-1.7,1.42-1.98.27-.67.79-1.23,1.46-1.51v-.05c0-1.51,1.23-2.74,2.74-2.74Z"/>
    <path class="cls-2" d="m38.11,35.47c1.42,0,2.58,1.14,2.6,2.56.92.12,1.63.85,1.72,1.77.17-.05.34-.07.52-.07,1.09,0,1.99.89,1.99,1.98s-.89,1.98-1.99,1.98c-2.8,0-5.29-.28-8.19-.28-1.09,0-1.98-.88-1.98-1.98,0-.88.56-1.62,1.35-1.88.25-.64.75-1.16,1.38-1.44v-.05c0-1.44,1.16-2.6,2.6-2.6Z"/>
    <path class="cls-3" d="m42.15,43.65c-1.48,0-2.9-.07-4.28-.15-1.39-.07-2.82-.15-4.34-.15s-2.83-1.27-2.83-2.83c0-1.1.63-2.09,1.61-2.56.29-.58.75-1.07,1.29-1.4.22-1.75,1.69-3.07,3.46-3.07s3.13,1.23,3.43,2.85c.77.28,1.39.88,1.69,1.64,1.55.01,2.81,1.28,2.81,2.84s-1.27,2.83-2.84,2.83Zm-5.09-8.65c-1.1,0-1.99.89-1.99,1.99,0,.3-.18.62-.45.74-.48.21-.86.61-1.06,1.1-.08.2-.25.36-.46.43-.54.18-.91.69-.91,1.27,0,.73.6,1.33,1.33,1.33,1.55,0,3.01.08,4.42.15,1.42.07,2.76.14,4.2.14.74,0,1.34-.6,1.34-1.33s-.6-1.34-1.34-1.34c-.12,0-.23.02-.34.05-.21.06-.45.02-.63-.1-.18-.13-.3-.33-.32-.55-.06-.61-.54-1.11-1.16-1.19-.37-.05-.65-.36-.66-.73-.01-1.08-.91-1.96-1.99-1.96Z"/>
  </g>
  <path class="cls-3" d="m21.98,58.01c-.28,0-.54-.16-.67-.41-.35-.7-2.13-.09-2.74.22-.37.18-.82.03-1-.34-.19-.37-.03-.82.34-1.01,1.08-.54,2.94-1.08,4.08-.32,1.14-.76,2.99-.22,4.08.32.37.18.52.63.34,1-.18.37-.64.52-1,.34-.72-.35-2.4-.9-2.74-.22-.13.25-.39.41-.67.41h0Z"/>
  <path class="cls-3" d="m25.91,54.37c-.28,0-.54-.16-.67-.41-.35-.7-2.13-.09-2.74.22-.37.18-.82.03-1.01-.34-.19-.37-.03-.82.34-1.01,1.09-.54,2.93-1.08,4.08-.32,1.14-.76,2.99-.22,4.08.32.37.18.52.63.34,1-.18.37-.63.52-1,.34-.72-.35-2.4-.9-2.74-.22-.13.25-.39.42-.67.42h0Z"/>
  <path class="cls-3" d="m19.8,50.84c-.31.04-.55-.16-.67-.42-.07-.14-.16-.22-.31-.27-.66-.22-1.91.23-2.42.48-.37.19-.82.03-1.01-.34-.19-.37-.03-.82.34-1.01.22-.11,2.15-1.04,3.57-.56.18.06.35.15.51.25,1.14-.76,3-.23,4.09.31.37.18.52.63.34,1-.18.37-.63.52-1,.34-.71-.36-2.4-.9-2.75-.21-.13.25-.39.41-.67.41Z"/>
  <path class="cls-3" d="m93.98,73.29c-.2,0-.39-.08-.54-.23l-14.87-15.25-6.25,6.15c-.29.29-.77.29-1.06,0-.29-.3-.29-.77,0-1.06l6.78-6.68c.14-.14.31-.2.53-.22.2,0,.39.08.53.23l15.4,15.79c.29.3.28.77-.01,1.06-.15.14-.33.21-.52.21Z"/>
  <path class="cls-3" d="m35.27,84.5h-6.31c-.41,0-.75-.34-.75-.75s.34-.75.75-.75h6.31c.41,0,.75.34.75.75s-.34.75-.75.75Z"/>
  <path class="cls-3" d="m27.51,84.5h-2.03c-.41,0-.75-.34-.75-.75s.34-.75.75-.75h2.03c.41,0,.75.34.75.75s-.34.75-.75.75Z"/>
  <path class="cls-3" d="m24.73,84.5h-3.64c-.41,0-.75-.34-.75-.75s.34-.75.75-.75h3.64c.41,0,.75.34.75.75s-.34.75-.75.75Z"/>
  <path class="cls-3" d="m44.04,90.38h-6.32c-.41,0-.75-.34-.75-.75s.34-.75.75-.75h6.32c.41,0,.75.34.75.75s-.34.75-.75.75Z"/>
  <path class="cls-3" d="m36.28,90.38h-2.04c-.41,0-.75-.34-.75-.75s.34-.75.75-.75h2.04c.41,0,.75.34.75.75s-.34.75-.75.75Z"/>
  <path class="cls-3" d="m33.5,90.38h-3.64c-.41,0-.75-.34-.75-.75s.34-.75.75-.75h3.64c.41,0,.75.34.75.75s-.34.75-.75.75Z"/>
  <path class="cls-3" d="m28.07,90.37h-2.04c-.41,0-.75-.34-.75-.75s.34-.75.75-.75h2.04c.41,0,.75.34.75.75s-.34.75-.75.75Z"/>
  <path class="cls-3" d="m24.84,90.37h-2.04c-.41,0-.75-.34-.75-.75s.34-.75.75-.75h2.04c.41,0,.75.34.75.75s-.34.75-.75.75Z"/>
  <path class="cls-3" d="m40.25,96.14h-6.32c-.41,0-.75-.34-.75-.75s.34-.75.75-.75h6.32c.41,0,.75.34.75.75s-.34.75-.75.75Z"/>
  <path class="cls-3" d="m32.5,96.14h-2.04c-.41,0-.75-.34-.75-.75s.34-.75.75-.75h2.04c.41,0,.75.34.75.75s-.34.75-.75.75Z"/>
  <path class="cls-3" d="m29.71,96.14h-3.64c-.41,0-.75-.34-.75-.75s.34-.75.75-.75h3.64c.41,0,.75.34.75.75s-.34.75-.75.75Z"/>
  <g>
    <polygon class="cls-1" points="66.78 79.6 71 84.16 55.11 84.16 59.33 79.6 57.5 79.6 60.75 76.08 59.38 76.08 61.49 73.63 60.64 73.63 63.1 70.65 65.47 73.63 64.71 73.63 66.72 76.08 65.36 76.08 68.61 79.6 66.78 79.6"/>
    <polygon class="cls-2" points="67.6 80.5 71.61 84.83 56.52 84.83 60.52 80.5 58.78 80.5 61.88 77.15 60.58 77.15 62.58 74.82 61.77 74.82 64.11 72 66.36 74.82 65.63 74.82 67.55 77.15 66.25 77.15 69.34 80.5 67.6 80.5"/>
    <path class="cls-3" d="m71,84.91h-15.88c-.3,0-.57-.18-.69-.45-.12-.27-.07-.59.14-.81l3.05-3.3h-.12c-.3,0-.57-.18-.69-.45-.12-.27-.07-.59.14-.81l2.15-2.33c-.17-.07-.31-.21-.39-.38-.12-.27-.08-.58.11-.8l1.26-1.46c-.05-.05-.09-.11-.12-.18-.12-.26-.08-.57.1-.8l2.47-2.98c.15-.17.34-.26.58-.27.23,0,.44.11.58.28l2.37,2.98c.18.23.21.53.09.79-.02.05-.05.1-.09.14l1.24,1.51c.18.22.22.53.1.8-.08.17-.22.3-.38.37l2.06,2.23c.19.14.31.36.31.61,0,.41-.33.75-.75.75,0,0-.01,0-.02,0h-.12l3.05,3.3c.2.22.26.54.14.81-.12.27-.39.45-.69.45Zm-14.17-1.5h12.46l-3.05-3.3c-.2-.22-.26-.54-.14-.81.12-.27.39-.45.69-.45h.12l-2.09-2.27c-.2-.22-.26-.54-.14-.81.09-.21.27-.36.49-.42l-1.03-1.25c-.18-.22-.22-.53-.1-.8.03-.06.06-.11.1-.16l-1.04-1.31-1.05,1.27c.06.06.1.13.14.2.12.27.08.58-.11.8l-1.07,1.25c.2.07.37.21.45.41.12.27.07.59-.14.81l-2.09,2.27h.12c.3,0,.57.18.69.45.12.27.07.59-.14.81l-3.05,3.3Z"/>
  </g>
  <g>
    <rect class="cls-1" x="61.88" y="84.16" width="2.35" height="2.71"/>
    <rect class="cls-2" x="62.95" y="85.24" width="2.23" height="2.57"/>
    <path class="cls-3" d="m64.23,87.62h-2.35c-.41,0-.75-.34-.75-.75v-2.71c0-.41.34-.75.75-.75h2.35c.41,0,.75.34.75.75v2.71c0,.41-.34.75-.75.75Zm-1.6-1.5h.85v-1.21h-.85v1.21Z"/>
  </g>
  <path class="cls-3" d="m80.67,86.62h-14.94c-.41,0-.75-.34-.75-.75s.34-.75.75-.75h13.22l-2.81-3.03c-.2-.22-.26-.54-.14-.81.12-.27.39-.45.69-.45h0l-1.9-2.05c-.2-.22-.26-.54-.14-.81.08-.19.24-.33.42-.4l-.92-1.12c-.18-.22-.22-.53-.1-.8.02-.05.05-.09.08-.13l-.92-1.16-.93,1.13c.04.05.08.11.11.17.12.27.08.58-.11.8l-.97,1.12c.17.07.31.21.39.39.12.27.07.59-.14.81l-2.74,2.96c-.28.3-.76.32-1.06.04-.3-.28-.32-.76-.04-1.06l1.65-1.79c-.14-.08-.26-.2-.33-.35-.12-.27-.08-.58.11-.8l1.16-1.35s-.06-.09-.09-.14c-.12-.26-.08-.57.1-.8l2.32-2.8c.14-.17.33-.31.58-.27.23,0,.44.11.58.28l2.23,2.8c.18.23.21.53.09.79-.02.04-.04.08-.06.11l1.14,1.39c.18.22.22.53.1.8-.07.15-.19.27-.33.34l1.97,2.14c.2.22.26.54.14.81-.12.27-.39.45-.69.45h0l2.81,3.03c.2.22.26.54.14.81-.12.27-.39.45-.69.45Z"/>
  <g>
    <rect class="cls-1" x="72.09" y="85.87" width="2.2" height="2.54"/>
    <rect class="cls-2" x="73.15" y="86.94" width="2.09" height="2.41"/>
    <path class="cls-3" d="m74.29,89.16h-2.2c-.41,0-.75-.34-.75-.75v-2.54c0-.41.34-.75.75-.75h2.2c.41,0,.75.34.75.75v2.54c0,.41-.34.75-.75.75Zm-1.45-1.5h.7v-1.04h-.7v1.04Z"/>
  </g>
</svg>