<?xml version="1.0" encoding="UTF-8"?>
<svg id="_11" data-name="11" xmlns="http://www.w3.org/2000/svg" viewBox="0 0 106 106">
  <defs>
    <style>
      .cls-1 {
        fill: #fff;
      }

      .cls-2 {
        fill: #ffe724;
      }

      .cls-3 {
        fill: #231f20;
      }
    </style>
  </defs>
  <path class="cls-3" d="m87.68,92.83h-55.5c-.41,0-.75-.34-.75-.75s.34-.75.75-.75h55.5c.41,0,.75.34.75.75s-.34.75-.75.75Z"/>
  <path class="cls-3" d="m30.45,92.83h-4.4c-.41,0-.75-.34-.75-.75s.34-.75.75-.75h4.4c.41,0,.75.34.75.75s-.34.75-.75.75Z"/>
  <path class="cls-3" d="m24.45,92.83h-2.13c-.41,0-.75-.34-.75-.75s.34-.75.75-.75h2.13c.41,0,.75.34.75.75s-.34.75-.75.75Z"/>
  <path class="cls-3" d="m71.73,96.97H31.02c-.41,0-.75-.34-.75-.75s.34-.75.75-.75h40.71c.41,0,.75.34.75.75s-.34.75-.75.75Z"/>
  <path class="cls-3" d="m76.22,96.97h-3.23c-.41,0-.75-.34-.75-.75s.34-.75.75-.75h3.23c.41,0,.75.34.75.75s-.34.75-.75.75Z"/>
  <path class="cls-3" d="m78.96,96.97h-1.56c-.41,0-.75-.34-.75-.75s.34-.75.75-.75h1.56c.41,0,.75.34.75.75s-.34.75-.75.75Z"/>
  <g>
    <path class="cls-1" d="m51.52,25.97c18.32,0,33.17,14.84,33.17,33.16s-14.85,33.15-33.17,33.15-33.16-14.84-33.16-33.15,14.84-33.16,33.16-33.16Z"/>
    <path class="cls-2" d="m52.53,28.64c17.4,0,31.51,14.1,31.51,31.5s-14.11,31.49-31.51,31.49-31.5-14.1-31.5-31.49,14.1-31.5,31.5-31.5Z"/>
    <path class="cls-3" d="m51.52,93.03c-18.7,0-33.91-15.21-33.91-33.9s15.21-33.91,33.91-33.91,33.92,15.21,33.92,33.91-15.22,33.9-33.92,33.9Zm0-66.31c-17.87,0-32.41,14.54-32.41,32.41s14.54,32.4,32.41,32.4,32.42-14.53,32.42-32.4-14.54-32.41-32.42-32.41Z"/>
  </g>
  <g>
    <path class="cls-1" d="m51.52,33.36c14.24,0,25.79,11.54,25.79,25.77s-11.54,25.76-25.79,25.76-25.78-11.53-25.78-25.76,11.54-25.77,25.78-25.77Z"/>
    <path class="cls-2" d="m52.53,35.66c13.53,0,24.5,10.96,24.5,24.48s-10.97,24.47-24.5,24.47-24.49-10.95-24.49-24.47,10.97-24.48,24.49-24.48Z"/>
    <path class="cls-3" d="m51.52,85.64c-14.63,0-26.53-11.89-26.53-26.51s11.9-26.52,26.53-26.52,26.54,11.9,26.54,26.52-11.9,26.51-26.54,26.51Zm0-51.53c-13.8,0-25.03,11.22-25.03,25.02s11.23,25.01,25.03,25.01,25.04-11.22,25.04-25.01-11.23-25.02-25.04-25.02Z"/>
  </g>
  <g>
    <polygon class="cls-1" points="62.21 48.44 53.83 61.43 40.83 69.81 49.21 56.82 62.21 48.44"/>
    <polygon class="cls-2" points="62.68 49.98 54.72 62.32 42.37 70.29 50.34 57.94 62.68 49.98"/>
    <path class="cls-3" d="m40.83,70.56c-.19,0-.39-.08-.53-.22-.25-.25-.29-.64-.1-.94l8.38-12.99c.06-.09.13-.17.22-.22l13-8.38c.29-.19.69-.15.94.1s.29.64.1.94l-8.38,12.99c-.06.09-.13.17-.22.22l-13,8.38c-.12.08-.27.12-.41.12Zm8.92-13.2l-6.41,9.93,9.94-6.41,6.41-9.93-9.94,6.41Z"/>
  </g>
  <g>
    <polygon class="cls-1" points="48.92 44.02 48.92 37.5 50.21 37.5 52.89 41.87 52.89 37.5 54.12 37.5 54.12 44.02 52.79 44.02 50.14 39.73 50.14 44.02 48.92 44.02"/>
    <polygon class="cls-2" points="50.06 44.87 50.06 38.67 51.28 38.67 53.83 42.83 53.83 38.67 55 38.67 55 44.87 53.74 44.87 51.22 40.79 51.22 44.87 50.06 44.87"/>
    <path class="cls-3" d="m54.12,44.77h-1.32c-.26,0-.5-.13-.64-.36l-1.27-2.05v1.65c0,.41-.34.75-.75.75h-1.22c-.41,0-.75-.34-.75-.75v-6.52c0-.41.34-.75.75-.75h1.29c.26,0,.5.14.64.36l1.29,2.11v-1.72c0-.41.34-.75.75-.75h1.23c.41,0,.75.34.75.75v6.52c0,.41-.34.75-.75.75Zm-.91-1.5h.16v-.82c-.08.06-.17.11-.27.14-.1.03-.2.03-.29.02l.4.65Zm-3.54-5.02v.9c.08-.06.16-.11.26-.14.1-.03.21-.04.31-.02l-.46-.74h-.12Z"/>
  </g>
  <g>
    <polygon class="cls-1" points="66.8 62.39 65.27 55.86 66.63 55.86 67.59 60.35 68.79 55.86 70.36 55.86 71.51 60.42 72.49 55.86 73.82 55.86 72.24 62.39 70.83 62.39 69.55 57.5 68.25 62.39 66.8 62.39"/>
    <polygon class="cls-2" points="67.94 63.24 66.49 57.03 67.78 57.03 68.7 61.3 69.83 57.03 71.33 57.03 72.42 61.37 73.35 57.03 74.61 57.03 73.12 63.24 71.78 63.24 70.56 58.59 69.33 63.24 67.94 63.24"/>
    <path class="cls-3" d="m72.24,63.14h-1.41c-.34,0-.64-.23-.73-.56l-.56-2.14-.57,2.14c-.09.33-.38.56-.72.56h-1.46c-.35,0-.65-.24-.73-.58l-1.53-6.54c-.05-.22,0-.46.14-.64.14-.18.36-.28.59-.28h1.36c.35,0,.66.25.73.59l.31,1.44.39-1.48c.09-.33.38-.56.72-.56h1.57c.34,0,.64.23.73.57l.36,1.45.31-1.42c.07-.35.38-.59.73-.59h1.33c.23,0,.45.11.59.29.14.18.19.42.14.64l-1.57,6.54c-.08.34-.38.57-.73.57Zm-.83-1.5h.24l.12-.52c-.08.03-.17.05-.26.05-.09,0-.17-.01-.24-.04l.13.5Zm-4.02,0h.29l.15-.58c-.08.03-.16.04-.26.04-.12,0-.23-.03-.33-.08l.15.63Zm2.16-4.89h0c.1,0,.19.02.27.05l-.05-.2h-.41l-.05.19c.07-.03.15-.04.23-.04Z"/>
  </g>
  <path class="cls-3" d="m51.56,83.32c-.99,0-1.79-.25-2.39-.75-.6-.52-.95-1.24-1.05-2.14-.02-.2.04-.4.16-.56.13-.16.31-.26.51-.28l.47-.05s-.03-.03-.05-.04c-.56-.51-.85-1.16-.85-1.87,0-.47.14-.94.41-1.35.26-.41.65-.73,1.15-.94.44-.19.97-.28,1.58-.28,1.01,0,1.8.25,2.34.74.55.47.87,1.16.9,1.98.01.4-.28.73-.67.77.19.17.36.36.49.59.24.38.37.87.37,1.43,0,.52-.15,1.01-.44,1.46-.29.45-.69.79-1.22,1.01-.48.2-1.06.3-1.71.3Zm-.62-3.02c.04.13.09.22.16.28.09.08.25.12.46.12.36,0,.46-.08.47-.09h0s-.04-.02-.07-.03c-.12-.04-.45-.13-.97-.26-.02,0-.04,0-.06-.01Z"/>
  <g>
    <polygon class="cls-1" points="28.87 62.39 28.87 55.86 33.7 55.86 33.7 56.97 30.19 56.97 30.19 58.41 33.46 58.41 33.46 59.51 30.19 59.51 30.19 61.28 33.83 61.28 33.83 62.39 28.87 62.39"/>
    <polygon class="cls-2" points="30 63.24 30 57.03 34.59 57.03 34.59 58.09 31.25 58.09 31.25 59.46 34.36 59.46 34.36 60.5 31.25 60.5 31.25 62.18 34.71 62.18 34.71 63.24 30 63.24"/>
    <path class="cls-3" d="m33.83,63.14h-4.96c-.41,0-.75-.34-.75-.75v-6.54c0-.41.34-.75.75-.75h4.83c.41,0,.75.34.75.75v1.11c0,.4-.31.73-.71.75.27.11.47.38.47.69v1.1c0,.41-.34.75-.75.75h-2.52v.26h2.89c.41,0,.75.34.75.75v1.11c0,.41-.34.75-.75.75Z"/>
  </g>
  <g>
    <path class="cls-1" d="m67.54,43.11c.55.56.55,1.47,0,2.03-.56.55-1.47.55-2.02,0-.56-.57-.56-1.48,0-2.03.56-.56,1.46-.56,2.02,0Z"/>
    <path class="cls-2" d="m68.5,44.17c.53.53.53,1.39,0,1.93-.53.53-1.39.53-1.92,0-.53-.54-.53-1.4,0-1.93.53-.53,1.39-.53,1.92,0Z"/>
    <path class="cls-3" d="m66.53,46.31c-.58,0-1.13-.23-1.54-.63-.85-.86-.84-2.25,0-3.09.82-.82,2.26-.82,3.08,0,.84.85.84,2.23,0,3.09-.42.42-.97.64-1.55.64Zm0-2.87c-.18,0-.35.07-.48.2-.26.27-.26.7,0,.98.24.24.7.25.96,0,.26-.27.26-.7,0-.97-.13-.13-.3-.2-.48-.2Z"/>
  </g>
  <g>
    <path class="cls-1" d="m67.54,75.14c-.56.56-1.47.56-2.02,0-.56-.57-.56-1.47,0-2.03.56-.55,1.46-.55,2.02,0,.55.57.55,1.46,0,2.03Z"/>
    <path class="cls-2" d="m68.5,76.09c-.53.53-1.39.53-1.92,0-.53-.54-.53-1.39,0-1.93.53-.53,1.39-.53,1.92,0,.53.54.53,1.39,0,1.93Z"/>
    <path class="cls-3" d="m66.53,76.3c-.58,0-1.13-.23-1.54-.64-.85-.87-.85-2.23,0-3.09.84-.83,2.27-.83,3.09,0,.85.87.85,2.22,0,3.09-.42.42-.97.64-1.55.64Zm0-2.87c-.18,0-.35.07-.48.2-.26.27-.26.7,0,.98.24.24.7.25.96,0,.26-.27.26-.7,0-.98-.12-.12-.29-.19-.48-.19Z"/>
  </g>
  <g>
    <path class="cls-1" d="m35.5,75.14c-.56-.57-.56-1.47,0-2.03.56-.55,1.46-.55,2.03,0,.56.57.56,1.46,0,2.03-.56.56-1.46.56-2.03,0Z"/>
    <path class="cls-2" d="m36.56,76.09c-.54-.54-.54-1.39,0-1.93.53-.53,1.39-.53,1.92,0,.53.54.53,1.39,0,1.93-.53.53-1.39.53-1.92,0Z"/>
    <path class="cls-3" d="m36.52,76.3c-.58,0-1.13-.23-1.54-.63-.86-.87-.86-2.23,0-3.09.84-.83,2.26-.82,3.09,0,.85.87.85,2.22,0,3.09-.42.42-.97.64-1.55.64Zm0-2.87c-.18,0-.36.07-.49.2-.27.27-.27.7,0,.97.25.25.7.25.97,0,.26-.27.26-.7,0-.98-.12-.12-.29-.19-.48-.19Z"/>
  </g>
  <g>
    <path class="cls-1" d="m35.5,43.11c.56-.56,1.46-.56,2.03,0,.56.56.56,1.47,0,2.03-.56.55-1.46.55-2.03,0-.56-.57-.56-1.48,0-2.03Z"/>
    <path class="cls-2" d="m36.56,44.17c.53-.53,1.39-.53,1.92,0,.53.53.53,1.39,0,1.93-.53.53-1.39.53-1.92,0-.54-.54-.54-1.4,0-1.93Z"/>
    <path class="cls-3" d="m36.52,46.31c-.58,0-1.13-.22-1.54-.63-.42-.42-.65-.98-.65-1.56,0-.58.23-1.13.65-1.54.82-.82,2.26-.82,3.08,0,.85.85.85,2.23,0,3.09-.42.42-.97.64-1.55.64Zm0-2.87c-.18,0-.35.07-.48.2-.13.13-.2.3-.2.48,0,.18.07.36.2.49.25.25.71.25.97,0,.26-.26.26-.7,0-.97-.13-.13-.3-.2-.48-.2Z"/>
  </g>
  <path class="cls-3" d="m61.31,24.02c-.41,0-.75-.34-.75-.75v-4.18h-18.08v4.18c0,.41-.34.75-.75.75s-.75-.34-.75-.75v-4.93c0-.41.34-.75.75-.75h19.58c.41,0,.75.34.75.75v4.93c0,.41-.34.75-.75.75Z"/>
</svg>