<?xml version="1.0" encoding="UTF-8"?>
<svg id="_11" data-name="11" xmlns="http://www.w3.org/2000/svg" viewBox="0 0 117 97">
  <defs>
    <style>
      .cls-1 {
        fill: #fff;
      }

      .cls-2 {
        fill: #ffe724;
      }

      .cls-3 {
        fill: #231f20;
      }
    </style>
  </defs>
  <g>
    <path class="cls-1" d="m62.5,39.47c10.29,0,18.63,8.33,18.63,18.61h-37.25c0-10.28,8.34-18.61,18.62-18.61Z"/>
    <path class="cls-2" d="m63.51,40.94c9.77,0,17.7,7.92,17.7,17.68h-35.39c0-9.77,7.92-17.68,17.69-17.68Z"/>
    <path class="cls-3" d="m81.15,58.83s-.01,0-.02,0h-37.25c-.41,0-.75-.34-.75-.75,0-10.68,8.69-19.36,19.37-19.36s19.28,8.59,19.38,19.19c.01.06.02.12.02.18,0,.41-.34.75-.75.75Zm-36.51-1.5h35.72c-.4-9.5-8.26-17.11-17.86-17.11s-17.46,7.61-17.86,17.11Z"/>
  </g>
  <path class="cls-3" d="m62.5,35.12c-.41,0-.75-.34-.75-.75v-7.06c0-.41.34-.75.75-.75s.75.34.75.75v7.06c0,.41-.34.75-.75.75Z"/>
  <path class="cls-3" d="m74.36,38.29c-.13,0-.26-.03-.37-.1-.36-.21-.48-.67-.27-1.02l3.53-6.11c.21-.36.66-.48,1.02-.27.36.21.48.67.27,1.02l-3.53,6.11c-.14.24-.39.37-.65.37Z"/>
  <path class="cls-3" d="m83.05,46.97c-.26,0-.51-.13-.65-.38-.21-.36-.08-.82.27-1.02l6.11-3.53c.36-.21.82-.08,1.02.27.21.36.08.82-.27,1.02l-6.11,3.53c-.12.07-.25.1-.37.1Z"/>
  <path class="cls-3" d="m41.95,46.97c-.13,0-.26-.03-.37-.1l-6.12-3.53c-.36-.21-.48-.67-.27-1.02.21-.36.66-.48,1.02-.27l6.12,3.53c.36.21.48.67.27,1.02-.14.24-.39.38-.65.38Z"/>
  <path class="cls-3" d="m50.63,38.29c-.26,0-.51-.13-.65-.37l-3.53-6.11c-.21-.36-.08-.82.27-1.02.36-.21.82-.08,1.02.27l3.53,6.11c.21.36.08.82-.27,1.02-.12.07-.25.1-.37.1Z"/>
  <path class="cls-3" d="m68.64,35.93c-.06,0-.13,0-.19-.03-.4-.11-.64-.52-.53-.92l.91-3.41c.11-.4.52-.63.92-.53.4.11.64.52.53.92l-.92,3.41c-.09.34-.39.56-.72.56Z"/>
  <path class="cls-3" d="m79.27,42.07c-.19,0-.38-.07-.53-.22-.29-.29-.29-.77,0-1.06l2.5-2.5c.29-.29.77-.29,1.06,0,.29.29.29.77,0,1.06l-2.5,2.5c-.15.15-.34.22-.53.22Z"/>
  <path class="cls-3" d="m85.41,52.69c-.33,0-.63-.22-.72-.56-.11-.4.13-.81.53-.92l3.41-.91c.4-.11.81.13.92.53.11.4-.13.81-.53.92l-3.41.91c-.06.02-.13.03-.19.03Z"/>
  <path class="cls-3" d="m39.58,52.69c-.06,0-.13,0-.19-.03l-3.41-.91c-.4-.11-.64-.52-.53-.92.11-.4.52-.64.92-.53l3.41.91c.4.11.64.52.53.92-.09.34-.39.56-.72.56Z"/>
  <path class="cls-3" d="m45.72,42.07c-.19,0-.38-.07-.53-.22l-2.5-2.5c-.29-.29-.29-.77,0-1.06.29-.29.77-.29,1.06,0l2.5,2.5c.29.29.29.77,0,1.06-.15.15-.34.22-.53.22Z"/>
  <path class="cls-3" d="m56.35,35.93c-.33,0-.63-.22-.72-.56l-.91-3.41c-.11-.4.13-.81.53-.92.4-.11.81.13.92.53l.91,3.41c.11.4-.13.81-.53.92-.06.02-.13.03-.19.03Z"/>
  <path class="cls-3" d="m93.13,58.83H31.87c-.41,0-.75-.34-.75-.75s.34-.75.75-.75h61.26c.41,0,.75.34.75.75s-.34.75-.75.75Z"/>
  <path class="cls-3" d="m78.58,62.1h-39.51c-.41,0-.75-.34-.75-.75s.34-.75.75-.75h39.51c.41,0,.75.34.75.75s-.34.75-.75.75Z"/>
  <path class="cls-3" d="m82.94,62.1h-3.13c-.41,0-.75-.34-.75-.75s.34-.75.75-.75h3.13c.41,0,.75.34.75.75s-.34.75-.75.75Z"/>
  <path class="cls-3" d="m85.6,62.1h-1.51c-.41,0-.75-.34-.75-.75s.34-.75.75-.75h1.51c.41,0,.75.34.75.75s-.34.75-.75.75Z"/>
  <path class="cls-3" d="m76.3,65.79h-24.96c-.41,0-.75-.34-.75-.75s.34-.75.75-.75h24.96c.41,0,.75.34.75.75s-.34.75-.75.75Z"/>
  <path class="cls-3" d="m50.56,65.79h-1.98c-.41,0-.75-.34-.75-.75s.34-.75.75-.75h1.98c.41,0,.75.34.75.75s-.34.75-.75.75Z"/>
  <path class="cls-3" d="m47.86,65.79h-1.79c-.41,0-.75-.34-.75-.75s.34-.75.75-.75h1.79c.41,0,.75.34.75.75s-.34.75-.75.75Z"/>
  <path class="cls-3" d="m69.12,69.54h-18.3c-.41,0-.75-.34-.75-.75s.34-.75.75-.75h18.3c.41,0,.75.34.75.75s-.34.75-.75.75Z"/>
  <path class="cls-3" d="m71.14,69.54h-1.45c-.41,0-.75-.34-.75-.75s.34-.75.75-.75h1.45c.41,0,.75.34.75.75s-.34.75-.75.75Z"/>
  <path class="cls-3" d="m73.54,69.54h-1.87c-.41,0-.75-.34-.75-.75s.34-.75.75-.75h1.87c.41,0,.75.34.75.75s-.34.75-.75.75Z"/>
  <g>
    <path class="cls-1" d="m29.31,22.32c1.41,0,2.54,1.12,2.57,2.52.9.12,1.61.85,1.69,1.75.17-.04.33-.07.51-.07,1.08,0,1.95.87,1.95,1.95s-.87,1.96-1.95,1.96c-2.76,0-5.22-.28-8.08-.28-1.08,0-1.95-.87-1.95-1.95,0-.86.56-1.59,1.33-1.85.25-.64.74-1.15,1.36-1.42v-.05c0-1.42,1.15-2.56,2.57-2.56Z"/>
    <path class="cls-2" d="m30.36,23.53c1.34,0,2.42,1.07,2.44,2.39.86.12,1.53.81,1.61,1.66.16-.04.32-.06.49-.06,1.02,0,1.85.83,1.85,1.85s-.83,1.86-1.85,1.86c-2.63,0-4.96-.27-7.67-.27-1.02,0-1.85-.83-1.85-1.85,0-.82.53-1.51,1.27-1.76.23-.61.7-1.09,1.29-1.35v-.04c0-1.35,1.1-2.44,2.44-2.44Z"/>
    <path class="cls-3" d="m34.08,31.18c-1.39,0-2.72-.07-4.01-.14-1.3-.07-2.65-.14-4.06-.14-1.49,0-2.7-1.21-2.7-2.7,0-1.05.6-1.98,1.52-2.43.27-.54.69-.99,1.2-1.31.22-1.65,1.61-2.89,3.28-2.89s2.95,1.15,3.25,2.67c.72.27,1.29.82,1.57,1.53,1.46.03,2.65,1.23,2.65,2.7s-1.21,2.71-2.7,2.71Zm-4.77-8.11c-1,0-1.82.81-1.82,1.81,0,.3-.18.61-.45.73-.44.19-.79.55-.96,1-.08.21-.25.37-.46.44-.49.16-.82.62-.82,1.14,0,.66.54,1.2,1.2,1.2,1.46,0,2.82.07,4.14.14,1.33.07,2.58.14,3.93.14.66,0,1.2-.54,1.2-1.21,0-.77-.77-1.36-1.52-1.16-.21.06-.44.02-.62-.11-.18-.13-.3-.33-.32-.55-.05-.55-.49-1-1.05-1.08-.37-.05-.64-.36-.65-.73-.02-.98-.83-1.78-1.82-1.78Z"/>
  </g>
  <g>
    <path class="cls-1" d="m96.94,45.5c1.05,0,1.91.84,1.92,1.89.68.09,1.21.63,1.28,1.31.11-.03.24-.05.38-.05.81,0,1.47.66,1.47,1.46s-.66,1.47-1.47,1.47c-2.07,0-3.92-.21-6.06-.21-.8,0-1.46-.66-1.46-1.46,0-.65.43-1.19,1-1.39.18-.48.55-.86,1.02-1.06v-.04c0-1.06.87-1.92,1.93-1.92Z"/>
    <path class="cls-2" d="m97.97,46.66c.99,0,1.81.8,1.82,1.79.64.09,1.15.6,1.21,1.25.11-.03.23-.05.36-.05.77,0,1.39.63,1.39,1.39s-.63,1.39-1.39,1.39c-1.97,0-3.72-.2-5.75-.2-.76,0-1.39-.63-1.39-1.39,0-.61.4-1.13.95-1.32.17-.45.53-.81.97-1.01v-.04c0-1.01.82-1.82,1.83-1.82Z"/>
    <path class="cls-3" d="m100.51,52.33c-1.05,0-2.05-.05-3.02-.1-.97-.05-1.98-.1-3.04-.1-1.22,0-2.21-.99-2.21-2.21,0-.83.47-1.58,1.19-1.96.21-.38.5-.71.87-.95.21-1.29,1.32-2.25,2.64-2.25,1.25,0,2.32.88,2.6,2.05.51.21.91.61,1.15,1.1,1.14.09,2.05,1.04,2.05,2.21,0,1.22-.99,2.22-2.22,2.22Zm-3.58-6.08c-.65,0-1.18.52-1.18,1.17,0,.3-.17.6-.45.72-.29.13-.51.36-.62.64-.08.21-.25.37-.46.44-.29.1-.49.37-.49.68,0,.39.33.71.71.71,1.1,0,2.12.05,3.12.11.99.05,1.93.1,2.94.1.39,0,.72-.32.72-.72s-.33-.71-.72-.71c-.05,0-.12,0-.19.03-.21.06-.44.02-.62-.11-.18-.12-.3-.32-.32-.54-.03-.33-.29-.6-.63-.64-.37-.05-.64-.36-.65-.73,0-.63-.53-1.15-1.17-1.15Z"/>
  </g>
  <path class="cls-3" d="m69.23,72.99h-11.36c-.41,0-.75-.34-.75-.75s.34-.75.75-.75h11.36c.41,0,.75.34.75.75s-.34.75-.75.75Z"/>
  <path class="cls-3" d="m57.52,72.99h-.9c-.41,0-.75-.34-.75-.75s.34-.75.75-.75h.9c.41,0,.75.34.75.75s-.34.75-.75.75Z"/>
  <path class="cls-3" d="m56.29,72.99h-1.16c-.41,0-.75-.34-.75-.75s.34-.75.75-.75h1.16c.41,0,.75.34.75.75s-.34.75-.75.75Z"/>
</svg>