<?xml version="1.0" encoding="UTF-8"?>
<svg id="_11" data-name="11" xmlns="http://www.w3.org/2000/svg" viewBox="0 0 94 79">
  <defs>
    <style>
      .cls-1 {
        fill: #fff;
      }

      .cls-2 {
        fill: #ffe724;
      }

      .cls-3 {
        fill: #231f20;
      }
    </style>
  </defs>
  <g>
    <path class="cls-1" d="m8.83,18.42h72.38c1.53,0,2.77,1.24,2.77,2.77v42.49c0,1.53-1.24,2.77-2.77,2.77H8.83c-1.53,0-2.77-1.24-2.77-2.77V21.19c0-1.53,1.24-2.77,2.77-2.77Z"/>
    <path class="cls-2" d="m11.64,20.62h68.76c1.45,0,2.63,1.18,2.63,2.63v40.36c0,1.45-1.18,2.63-2.63,2.63H11.64c-1.45,0-2.63-1.18-2.63-2.63V23.26c0-1.45,1.18-2.63,2.63-2.63Z"/>
    <path class="cls-3" d="m81.21,67.19H8.83c-1.94,0-3.52-1.58-3.52-3.52V21.19c0-1.94,1.58-3.52,3.52-3.52h72.38c1.94,0,3.52,1.58,3.52,3.52v42.49c0,1.94-1.58,3.52-3.52,3.52ZM8.83,19.17c-1.11,0-2.02.91-2.02,2.02v42.49c0,1.11.91,2.02,2.02,2.02h72.38c1.12,0,2.02-.91,2.02-2.02V21.19c0-1.11-.91-2.02-2.02-2.02H8.83Z"/>
  </g>
  <path class="cls-3" d="m83.98,58.67h-30.11c-.33,0-.62-.22-.72-.53-.1-.32.03-.66.3-.84,4.21-2.82,6.73-7.53,6.73-12.59s-2.51-9.77-6.73-12.59c-.27-.18-.4-.53-.3-.84.1-.32.39-.53.72-.53h30.11c.41,0,.75.34.75.75v26.44c0,.41-.34.75-.75.75Zm-27.92-1.5h27.17v-24.94h-27.17c3.55,3.14,5.61,7.66,5.61,12.47s-2.06,9.33-5.61,12.47Zm-19.87,1.5s-.01,0-.02,0H6.06c-.41,0-.75-.34-.75-.75v-26.44c0-.41.34-.75.75-.75h30.12c.33,0,.62.22.72.53.1.32-.03.66-.3.84-4.21,2.82-6.73,7.53-6.73,12.59s2.48,9.7,6.64,12.53c.26.12.44.38.44.69,0,.41-.33.75-.75.75Zm-29.39-1.5h27.17c-3.55-3.14-5.62-7.66-5.62-12.47s2.07-9.33,5.62-12.47H6.81v24.94Z"/>
  <g>
    <path class="cls-1" d="m45.02,28.8c8.78,0,15.9,7.12,15.9,15.9s-7.12,15.9-15.9,15.9-15.91-7.12-15.91-15.9,7.12-15.9,15.91-15.9Z"/>
    <path class="cls-2" d="m46.03,30.6c8.34,0,15.11,6.76,15.11,15.11s-6.76,15.1-15.11,15.1-15.12-6.77-15.12-15.1,6.77-15.11,15.12-15.11Z"/>
    <path class="cls-3" d="m45.02,61.35c-9.19,0-16.66-7.47-16.66-16.65s7.48-16.65,16.66-16.65,16.65,7.47,16.65,16.65-7.47,16.65-16.65,16.65Zm0-31.8c-8.36,0-15.16,6.8-15.16,15.15s6.8,15.15,15.16,15.15,15.15-6.79,15.15-15.15-6.8-15.15-15.15-15.15Z"/>
  </g>
  <g>
    <path class="cls-1" d="m45.02,32.69c6.63,0,12.01,5.37,12.01,12.01s-5.38,12.01-12.01,12.01-12.02-5.38-12.02-12.01,5.38-12.01,12.02-12.01Z"/>
    <path class="cls-2" d="m46.03,34.3c6.3,0,11.41,5.1,11.41,11.41s-5.11,11.41-11.41,11.41-11.42-5.11-11.42-11.41,5.11-11.41,11.42-11.41Z"/>
    <path class="cls-3" d="m45.02,57.46c-7.04,0-12.77-5.72-12.77-12.76s5.73-12.76,12.77-12.76,12.76,5.72,12.76,12.76-5.72,12.76-12.76,12.76Zm0-24.02c-6.21,0-11.27,5.05-11.27,11.26s5.06,11.26,11.27,11.26,11.26-5.05,11.26-11.26-5.05-11.26-11.26-11.26Z"/>
  </g>
  <g>
    <polygon class="cls-1" points="45.02 38.64 47.65 40.16 50.27 41.67 50.27 44.7 50.27 47.73 47.65 49.25 45.02 50.76 42.4 49.25 39.77 47.73 39.77 44.7 39.77 41.67 42.4 40.16 45.02 38.64"/>
    <polygon class="cls-2" points="46.03 39.96 48.52 41.39 51.01 42.83 51.01 45.71 51.01 48.59 48.52 50.03 46.03 51.47 43.54 50.03 41.04 48.59 41.04 45.71 41.04 42.83 43.54 41.39 46.03 39.96"/>
    <path class="cls-3" d="m45.02,51.51c-.13,0-.26-.03-.37-.1l-5.26-3.03c-.23-.13-.37-.38-.37-.65v-6.06c0-.27.14-.52.38-.65l5.25-3.03c.23-.13.52-.13.75,0l5.25,3.03c.23.13.37.38.37.65v6.06c0,.27-.14.52-.37.65l-5.25,3.03c-.12.07-.25.1-.37.1Zm-4.51-4.21l4.51,2.6,4.5-2.6v-5.2l-4.5-2.6-4.51,2.6v5.19Z"/>
  </g>
  <g>
    <path class="cls-1" d="m45.02,43.19c.83,0,1.52.68,1.52,1.51s-.68,1.51-1.52,1.51-1.52-.68-1.52-1.51.67-1.51,1.52-1.51Z"/>
    <path class="cls-2" d="m46.03,44.27c.79,0,1.44.64,1.44,1.44s-.65,1.44-1.44,1.44-1.44-.64-1.44-1.44.64-1.44,1.44-1.44Z"/>
    <path class="cls-3" d="m45.02,46.97c-1.25,0-2.27-1.02-2.27-2.26s1.02-2.26,2.27-2.26,2.27,1.02,2.27,2.26-1.02,2.26-2.27,2.26Zm0-3.03c-.43,0-.77.34-.77.76s.34.76.77.76.77-.34.77-.76-.34-.76-.77-.76Z"/>
  </g>
  <g>
    <rect class="cls-1" x="61.05" y="21.16" width="14.25" height="5.13"/>
    <rect class="cls-2" x="62.41" y="22.29" width="13.53" height="4.87"/>
    <path class="cls-3" d="m75.29,27.04h-14.25c-.41,0-.75-.34-.75-.75v-5.13c0-.41.34-.75.75-.75h14.25c.41,0,.75.34.75.75v5.13c0,.41-.34.75-.75.75Zm-13.5-1.5h12.75v-3.63h-12.75v3.63Z"/>
  </g>
  <path class="cls-3" d="m68.45,24.36h-4.64c-.41,0-.75-.34-.75-.75s.34-.75.75-.75h4.64c.41,0,.75.34.75.75s-.34.75-.75.75Z"/>
  <g>
    <rect class="cls-1" x="28.2" y="22.46" width="4.25" height="2.45"/>
    <rect class="cls-2" x="29.31" y="23.53" width="4.04" height="2.33"/>
    <path class="cls-3" d="m32.45,25.66h-4.25c-.41,0-.75-.34-.75-.75v-2.45c0-.41.34-.75.75-.75h4.25c.41,0,.75.34.75.75v2.45c0,.41-.34.75-.75.75Zm-3.5-1.5h2.75v-.95h-2.75v.95Z"/>
  </g>
  <g>
    <polygon class="cls-1" points="37.55 12.11 52.49 12.11 54.8 18.42 35.24 18.42 37.55 12.11"/>
    <polygon class="cls-2" points="38.93 13.28 53.12 13.28 55.32 19.27 36.74 19.27 38.93 13.28"/>
    <path class="cls-3" d="m54.82,19.17s-.01,0-.02,0h-19.55c-.25,0-.47-.12-.62-.32-.14-.2-.17-.46-.09-.69l2.31-6.3c.11-.3.39-.49.7-.49h14.93c.31,0,.6.2.7.49l2.26,6.15c.08.12.12.26.12.41,0,.41-.33.75-.75.75Zm-18.5-1.5h17.41l-1.76-4.8h-13.89l-1.76,4.8Z"/>
  </g>
</svg>