<?xml version="1.0" encoding="UTF-8"?>
<svg id="_11" data-name="11" xmlns="http://www.w3.org/2000/svg" viewBox="0 0 88 101">
  <defs>
    <style>
      .cls-1 {
        fill: #fff;
      }

      .cls-2 {
        fill: #ffe724;
      }

      .cls-3 {
        fill: #231f20;
      }
    </style>
  </defs>
  <g>
    <path class="cls-1" d="m73.98,13.93c6.33,1.73,6.69,20.58.81,42.1-1.74,6.41-3.85,12.32-6.11,17.43-.29-.07-.61-.11-.92-.11-4.53,0-9.92-3.12-19.38-6.27.67-5.33,1.83-11.2,3.49-17.3,5.89-21.52,15.78-37.57,22.1-35.85Z"/>
    <path class="cls-2" d="m74.48,16.42c6.02,1.64,6.36,19.55.77,40-1.66,6.09-3.66,11.71-5.81,16.56-.28-.07-.58-.11-.87-.11-4.3,0-9.43-2.96-18.41-5.96.64-5.06,1.74-10.64,3.32-16.43,5.59-20.44,14.99-35.7,21-34.06Z"/>
    <path class="cls-3" d="m68.68,74.21c-.06,0-.12,0-.18-.02-.25-.06-.5-.09-.74-.09-3.04,0-6.34-1.29-10.89-3.08-2.51-.99-5.35-2.1-8.72-3.23-.34-.11-.55-.45-.51-.8.7-5.57,1.88-11.42,3.51-17.4,5.7-20.83,15.1-36.53,21.87-36.53.4,0,.79.05,1.16.15,3.41.93,5.38,6.02,5.54,14.34.15,8.02-1.34,18.21-4.2,28.69-1.71,6.27-3.78,12.17-6.15,17.54-.12.28-.39.45-.69.45Zm-19.48-7.65c3.16,1.07,5.83,2.12,8.21,3.06,4.4,1.73,7.58,2.98,10.34,2.98.16,0,.31,0,.47.03,2.24-5.15,4.21-10.8,5.84-16.79,2.83-10.34,4.3-20.38,4.15-28.26-.14-7.48-1.76-12.19-4.43-12.92-.24-.07-.5-.1-.76-.1-5.16,0-14.44,13.55-20.42,35.43-1.55,5.69-2.7,11.27-3.4,16.58Z"/>
  </g>
  <g>
    <path class="cls-1" d="m72.78,62.72c-.24.76-.5,1.5-.76,2.24-3.91.4-12.51,1.26-20.2,3.33-1.09-.4-2.24-.81-3.45-1.21.33-2.67.79-5.42,1.39-8.42,9.06-1.19,19.37-.09,23.01,4.07Z"/>
    <path class="cls-2" d="m73.18,63.75c-.23.72-.47,1.43-.72,2.13-3.71.38-11.88,1.2-19.19,3.17-1.04-.38-2.12-.77-3.28-1.15.32-2.54.75-5.15,1.32-8,8.61-1.13,18.41-.08,21.86,3.86Z"/>
    <path class="cls-3" d="m51.83,69.04c-.09,0-.17-.02-.26-.05-1.09-.4-2.22-.8-3.43-1.21-.34-.11-.55-.45-.51-.8.34-2.69.79-5.46,1.4-8.48.06-.31.32-.55.64-.6,2.31-.3,4.66-.46,6.98-.46,7.95,0,14.04,1.74,16.69,4.77.17.2.23.47.15.72-.25.77-.5,1.52-.76,2.26-.1.27-.34.47-.63.5-4.06.41-12.46,1.26-20.08,3.31-.06.02-.13.03-.2.03Zm-2.63-2.48c.92.32,1.81.63,2.66.94,7.4-1.96,15.43-2.82,19.61-3.25.15-.45.31-.89.46-1.35-2.5-2.48-8.16-3.96-15.28-3.96-2.08,0-4.18.13-6.25.38-.5,2.55-.9,4.93-1.2,7.23Z"/>
  </g>
  <g>
    <path class="cls-1" d="m77.17,45.79c-.29,1.53-.62,3.08-.98,4.66-6.87.85-18.93,2.8-26.08,6.56.51-2.36,1.1-4.78,1.77-7.23.5-1.84,1.04-3.63,1.59-5.37,8.05-1.69,18.14-1.43,23.71,1.38Z"/>
    <path class="cls-2" d="m77.5,47.01c-.28,1.45-.59,2.93-.93,4.43-6.52.8-17.99,2.66-24.78,6.24.49-2.24,1.05-4.54,1.68-6.87.47-1.75.98-3.45,1.51-5.1,7.65-1.61,17.23-1.36,22.52,1.31Z"/>
    <path class="cls-3" d="m50.11,57.76c-.16,0-.32-.05-.45-.15-.23-.18-.34-.47-.28-.76.51-2.36,1.11-4.81,1.78-7.27.46-1.7.98-3.47,1.6-5.4.08-.26.3-.45.56-.51,3.33-.7,6.99-1.07,10.58-1.07,5.57,0,10.41.89,13.62,2.51.3.15.46.48.4.81-.3,1.56-.63,3.14-.98,4.69-.07.31-.33.54-.64.58-6.59.81-18.7,2.73-25.83,6.48-.11.06-.23.09-.35.09Zm3.94-12.71c-.55,1.75-1.03,3.37-1.45,4.92-.52,1.91-.99,3.81-1.42,5.68,7.22-3.31,18.04-5.08,24.4-5.88.26-1.18.51-2.37.75-3.56-3-1.36-7.39-2.11-12.44-2.11-3.33,0-6.72.33-9.84.95Z"/>
  </g>
  <g>
    <path class="cls-1" d="m78.97,29.43c-.02,1.58-.09,3.23-.23,4.97-6.13.75-16.48,2.4-23.73,5.44,1.62-4.5,3.39-8.61,5.21-12.17,6.76-.8,14.09-.3,18.75,1.75Z"/>
    <path class="cls-2" d="m79.38,30.64c-.02,1.5-.09,3.07-.22,4.73-5.82.72-15.66,2.28-22.55,5.16,1.54-4.28,3.22-8.18,4.95-11.56,6.42-.75,13.38-.29,17.81,1.67Z"/>
    <path class="cls-3" d="m55.01,40.59c-.19,0-.37-.07-.52-.21-.22-.2-.29-.52-.19-.8,1.61-4.48,3.38-8.6,5.25-12.25.11-.22.33-.37.58-.4,2.06-.24,4.16-.37,6.22-.37,5.15,0,9.74.77,12.92,2.18.28.12.45.4.45.7-.02,1.63-.1,3.32-.23,5.02-.03.36-.3.64-.66.69-5.65.7-16.23,2.32-23.54,5.38-.09.04-.19.06-.29.06Zm5.7-12.22c-1.56,3.07-3.04,6.48-4.42,10.15,7.07-2.63,16.31-4.1,21.75-4.79.09-1.29.15-2.56.17-3.81-2.98-1.2-7.16-1.86-11.86-1.86-1.87,0-3.77.1-5.65.31Z"/>
  </g>
  <g>
    <path class="cls-1" d="m45.53,14.56c6.19,2.17,5.22,21-2.17,42.06-1.02,2.89-2.11,5.7-3.24,8.35-3.14-.2-6.21.57-8.92,1.92-1.27-.46-2.71-.92-4.34-1.38-3.71-1.06-7.41-.61-10.72.73,1.05-5.4,2.65-11.35,4.8-17.48,7.39-21.05,18.4-36.36,24.59-34.2Z"/>
    <path class="cls-2" d="m45.91,16.88c5.88,2.07,4.96,19.95-2.06,39.96-.97,2.75-2,5.41-3.07,7.93-2.98-.19-5.9.54-8.48,1.83-1.21-.44-2.57-.88-4.12-1.31-3.52-1-7.04-.58-10.19.69.99-5.13,2.52-10.78,4.56-16.61,7.02-20,17.48-34.54,23.36-32.49Z"/>
    <path class="cls-3" d="m31.2,67.65c-.09,0-.17-.01-.25-.04-1.33-.48-2.77-.94-4.29-1.36-3.27-.93-6.8-.69-10.24.7-.25.1-.55.06-.76-.12-.21-.17-.31-.45-.26-.72,1.1-5.66,2.72-11.58,4.83-17.59,7.1-20.23,17.22-34.9,24.06-34.9.51,0,1.01.08,1.48.25,6.68,2.35,5.93,21.24-1.71,43.02-1,2.85-2.1,5.68-3.25,8.4-.12.29-.42.48-.74.46-2.84-.18-5.76.47-8.54,1.85-.1.05-.22.08-.33.08Zm-8.55-3.46c1.5,0,2.98.21,4.41.61,1.44.4,2.81.84,4.09,1.29,2.75-1.32,5.66-1.99,8.48-1.88,1.07-2.54,2.08-5.17,3.02-7.83,7.85-22.38,7.7-39.32,2.63-41.1-4.99-1.76-15.69,11.13-23.63,33.74-1.92,5.48-3.44,10.88-4.51,16.07,1.84-.6,3.69-.9,5.52-.9Z"/>
  </g>
  <g>
    <path class="cls-1" d="m24.77,39.08c.68-1.55,1.38-3.04,2.08-4.48,4.52-.27,8.91-3.77,10.76-9.04.95-2.7,1.09-5.43.55-7.87,1.23-1.18,2.42-2.06,3.54-2.62,1.02,3.57.95,7.71-.47,11.76-2.76,7.88-9.72,12.85-16.46,12.26Z"/>
    <path class="cls-2" d="m26.22,39.48c.65-1.47,1.31-2.89,1.98-4.26,4.29-.26,8.46-3.58,10.22-8.59.9-2.56,1.03-5.16.53-7.48,1.17-1.12,2.3-1.96,3.36-2.49.97,3.4.9,7.33-.45,11.17-2.63,7.49-9.23,12.2-15.64,11.65Z"/>
    <path class="cls-3" d="m25.85,39.87c-.38,0-.76-.02-1.15-.05-.24-.02-.46-.16-.58-.37-.12-.21-.14-.46-.04-.68.69-1.55,1.39-3.07,2.1-4.51.12-.24.36-.4.63-.42,4.34-.26,8.4-3.7,10.1-8.54.87-2.48,1.05-5.06.53-7.46-.06-.25.02-.52.21-.7,1.28-1.23,2.53-2.15,3.72-2.75.2-.1.43-.11.64-.02.21.09.36.27.42.48,1.1,3.85.93,8.19-.49,12.21-2.65,7.54-9.26,12.81-16.09,12.81Zm1.49-4.57c-.48.99-.96,2.02-1.44,3.07,6.18-.03,12.19-4.88,14.62-11.81,1.2-3.41,1.44-7.06.7-10.37-.72.45-1.47,1.04-2.24,1.75.48,2.55.25,5.26-.66,7.86-1.84,5.25-6.22,9.01-10.98,9.5Z"/>
  </g>
  <g>
    <path class="cls-1" d="m46.31,47.11c-.39,1.45-.82,2.91-1.28,4.41-5.41-1.43-11.42,2.35-13.67,8.76-.76,2.15-.99,4.35-.78,6.4-1.12-.39-2.35-.78-3.72-1.16l-.27-.08c.03-2.1.41-4.28,1.16-6.42,3.05-8.71,11.21-13.85,18.56-11.9Z"/>
    <path class="cls-2" d="m46.83,48.6c-.37,1.38-.78,2.77-1.21,4.19-5.14-1.36-10.85,2.23-12.98,8.32-.72,2.05-.94,4.13-.74,6.08-1.06-.37-2.23-.74-3.54-1.1l-.26-.08c.03-2,.39-4.06,1.1-6.1,2.9-8.27,10.65-13.16,17.63-11.31Z"/>
    <path class="cls-3" d="m30.59,67.43c-.08,0-.17-.01-.25-.04-1.29-.45-2.49-.82-3.68-1.15l-.3-.09c-.32-.1-.53-.39-.53-.73.03-2.24.44-4.48,1.2-6.66,2.65-7.55,9.27-12.82,16.1-12.82,1.14,0,2.27.15,3.36.44.19.05.36.18.46.35.1.17.13.38.07.57-.4,1.46-.82,2.91-1.28,4.43-.12.38-.52.61-.91.5-.69-.18-1.41-.28-2.14-.28-4.49,0-8.86,3.52-10.62,8.56-.67,1.92-.94,3.96-.76,5.91.03.08.04.16.04.24,0,.41-.33.75-.75.75,0,0-.01,0-.02,0Zm-3.23-2.55c.78.22,1.58.46,2.41.73-.04-1.87.26-3.77.89-5.58,1.98-5.63,6.93-9.56,12.04-9.56.61,0,1.22.06,1.82.17.31-1.01.59-1.99.86-2.97-.73-.14-1.49-.22-2.24-.22-6.21,0-12.25,4.86-14.68,11.81-.65,1.84-1.02,3.73-1.1,5.61Z"/>
  </g>
  <path class="cls-3" d="m71.47,81.51H4.16c-.41,0-.75-.33-.75-.74-.05-4.01,2.85-8.83,7.39-12.3,5.03-3.85,10.96-5.18,16.27-3.67,1.44.4,2.81.84,4.09,1.29,2.95-1.41,7.41-2.7,12.37-1.29,5.75,1.63,10.26,3.4,13.89,4.82,4.4,1.73,7.59,2.98,10.35,2.98,2.46,0,4.46,2,4.46,4.45v3.71c0,.41-.34.75-.75.75Zm-66.53-1.5h65.78v-2.96c0-1.63-1.33-2.95-2.96-2.95-3.05,0-6.34-1.29-10.9-3.08-3.59-1.41-8.07-3.17-13.75-4.78-3.8-1.08-7.3-.41-9.93.6,2.97,1.18,4.94,2.28,6.57,3.19,2.27,1.27,3.63,2.03,5.97,2.03.41,0,.75.34.75.75s-.34.75-.75.75c-2.72,0-4.39-.93-6.7-2.22-1.88-1.05-4.23-2.36-8.08-3.74,0,0,0,0,0,0-1.33-.48-2.77-.94-4.29-1.36-4.86-1.38-10.31-.14-14.96,3.42-3.82,2.92-6.45,6.98-6.77,10.35Z"/>
  <path class="cls-3" d="m32.97,75.27c-1,0-3.09-.51-5.24-4.21-.52-.9-1.33-1.45-2.48-1.67-2.98-.58-6.97,1.29-7.4,1.62-.27.31-.72.32-1.03.05-.31-.27-.32-.77-.05-1.09.45-.52,4.61-2.49,8.05-2.16,1.91.18,3.36,1.04,4.2,2.49,2.21,3.81,4.11,3.45,4.13,3.44.4-.09.8.16.9.55.1.39-.12.79-.51.9-.07.02-.27.07-.58.07Z"/>
  <g>
    <path class="cls-1" d="m9.52,29.41c2.01,0,3.64,1.63,3.64,3.63s-1.63,3.64-3.64,3.64-3.64-1.63-3.64-3.64,1.63-3.63,3.64-3.63Z"/>
    <path class="cls-2" d="m10.52,30.6c1.91,0,3.46,1.55,3.46,3.45s-1.55,3.46-3.46,3.46-3.46-1.55-3.46-3.46,1.55-3.45,3.46-3.45Z"/>
    <path class="cls-3" d="m9.52,37.43c-2.42,0-4.39-1.97-4.39-4.39s1.97-4.38,4.39-4.38,4.39,1.97,4.39,4.38-1.97,4.39-4.39,4.39Zm0-7.27c-1.59,0-2.89,1.29-2.89,2.88s1.3,2.89,2.89,2.89,2.89-1.3,2.89-2.89-1.3-2.88-2.89-2.88Z"/>
  </g>
  <path class="cls-3" d="m9.52,27.59c-.41,0-.75-.34-.75-.75v-2.25c0-.41.34-.75.75-.75s.75.34.75.75v2.25c0,.41-.34.75-.75.75Z"/>
  <path class="cls-3" d="m13.91,29.41c-.19,0-.38-.07-.53-.22-.29-.29-.29-.77,0-1.06l1.59-1.59c.29-.29.77-.29,1.06,0,.29.29.29.77,0,1.06l-1.59,1.59c-.15.15-.34.22-.53.22Z"/>
  <path class="cls-3" d="m17.98,33.79h-2.25c-.41,0-.75-.34-.75-.75s.34-.75.75-.75h2.25c.41,0,.75.34.75.75s-.34.75-.75.75Z"/>
  <path class="cls-3" d="m15.5,39.77c-.19,0-.38-.07-.53-.22l-1.59-1.59c-.29-.29-.29-.77,0-1.06.29-.29.77-.29,1.06,0l1.59,1.59c.29.29.29.77,0,1.06-.15.15-.34.22-.53.22Z"/>
  <path class="cls-3" d="m9.52,42.25c-.41,0-.75-.34-.75-.75v-2.25c0-.41.34-.75.75-.75s.75.34.75.75v2.25c0,.41-.34.75-.75.75Z"/>
  <path class="cls-3" d="m3.53,39.77c-.19,0-.38-.07-.53-.22-.29-.29-.29-.77,0-1.06l1.59-1.59c.29-.29.77-.29,1.06,0s.29.77,0,1.06l-1.59,1.59c-.15.15-.34.22-.53.22Z"/>
  <path class="cls-3" d="m3.31,33.79H1.06c-.41,0-.75-.34-.75-.75s.34-.75.75-.75h2.26c.41,0,.75.34.75.75s-.34.75-.75.75Z"/>
  <path class="cls-3" d="m5.12,29.41c-.19,0-.38-.07-.53-.22l-1.59-1.59c-.29-.29-.29-.77,0-1.06.29-.29.77-.29,1.06,0l1.59,1.59c.29.29.29.77,0,1.06-.15.15-.34.22-.53.22Z"/>
</svg>