<?xml version="1.0" encoding="UTF-8"?>
<svg id="_11" data-name="11" xmlns="http://www.w3.org/2000/svg" viewBox="0 0 88 117">
  <defs>
    <style>
      .cls-1 {
        fill: #fff;
      }

      .cls-2 {
        fill: #ffe724;
      }

      .cls-3 {
        fill: #231f20;
      }
    </style>
  </defs>
  <g>
    <path class="cls-1" d="m20.06,18.39c0-2.23,1.83-4.06,4.06-4.06h32.45c2.23,0,4.05,1.83,4.05,4.06v62.59c0,2.23-1.82,4.06-4.05,4.06H24.11c-2.23,0-4.06-1.82-4.06-4.06V18.39Z"/>
    <path class="cls-2" d="m22.08,20.96c0-2.12,1.73-3.85,3.86-3.85h30.83c2.12,0,3.85,1.73,3.85,3.85v59.46c0,2.12-1.73,3.85-3.85,3.85h-30.83c-2.12,0-3.86-1.73-3.86-3.85V20.96Z"/>
    <path class="cls-3" d="m56.57,85.79H24.11c-2.65,0-4.81-2.16-4.81-4.81V18.39c0-2.65,2.16-4.81,4.81-4.81h32.45c2.65,0,4.8,2.16,4.8,4.81v62.59c0,2.65-2.15,4.81-4.8,4.81ZM24.11,15.09c-1.82,0-3.31,1.48-3.31,3.31v62.59c0,1.82,1.48,3.31,3.31,3.31h32.45c1.82,0,3.3-1.48,3.3-3.31V18.39c0-1.82-1.48-3.31-3.3-3.31H24.11Z"/>
  </g>
  <g>
    <path class="cls-1" d="m40.34,75.64c-1.52,0-2.75,1.22-2.75,2.74s1.23,2.74,2.75,2.74,2.75-1.23,2.75-2.74-1.23-2.74-2.75-2.74Z"/>
    <path class="cls-2" d="m41.35,76.78c-1.44,0-2.61,1.16-2.61,2.6s1.17,2.6,2.61,2.6,2.61-1.17,2.61-2.6-1.17-2.6-2.61-2.6Z"/>
    <path class="cls-3" d="m40.34,81.87c-1.93,0-3.5-1.57-3.5-3.49s1.57-3.49,3.5-3.49,3.5,1.57,3.5,3.49-1.57,3.49-3.5,3.49Zm0-5.48c-1.1,0-2,.89-2,1.99s.9,1.99,2,1.99,2-.89,2-1.99-.9-1.99-2-1.99Z"/>
  </g>
  <g>
    <rect class="cls-1" x="23.71" y="23.99" width="33.25" height="47.5"/>
    <rect class="cls-2" x="25.55" y="26.19" width="31.59" height="45.13"/>
    <path class="cls-3" d="m56.96,72.25H23.71c-.41,0-.75-.34-.75-.75V23.99c0-.41.34-.75.75-.75h33.25c.41,0,.75.34.75.75v47.5c0,.41-.34.75-.75.75Zm-32.5-1.5h31.75V24.74h-31.75v46Z"/>
  </g>
  <path class="cls-3" d="m46.12,20.29h-2.23c-.41,0-.75-.34-.75-.75s.34-.75.75-.75h2.23c.41,0,.75.34.75.75s-.34.75-.75.75Zm-3.84,0h-7.73c-.41,0-.75-.34-.75-.75s.34-.75.75-.75h7.73c.41,0,.75.34.75.75s-.34.75-.75.75Z"/>
  <g>
    <path class="cls-1" d="m40.34,36.7c6.1,0,11.05,4.94,11.05,11.05s-4.95,11.04-11.05,11.04-11.05-4.95-11.05-11.04,4.95-11.05,11.05-11.05Z"/>
    <path class="cls-2" d="m41.35,38.26c5.79,0,10.5,4.7,10.5,10.5s-4.7,10.49-10.5,10.49-10.5-4.7-10.5-10.49,4.7-10.5,10.5-10.5Z"/>
    <path class="cls-3" d="m40.34,59.53c-6.5,0-11.8-5.29-11.8-11.79s5.29-11.8,11.8-11.8,11.8,5.29,11.8,11.8-5.29,11.79-11.8,11.79Zm0-22.09c-5.68,0-10.3,4.62-10.3,10.3s4.62,10.29,10.3,10.29,10.3-4.61,10.3-10.29-4.62-10.3-10.3-10.3Z"/>
  </g>
  <g>
    <polygon class="cls-1" points="40.34 41.13 45.12 52.75 40.36 50.23 35.55 52.75 40.34 41.13"/>
    <polygon class="cls-2" points="41.35 42.43 45.89 53.46 41.37 51.07 36.8 53.46 41.35 42.43"/>
    <path class="cls-3" d="m35.55,53.5c-.18,0-.36-.07-.51-.2-.23-.21-.31-.55-.19-.84l4.79-11.61c.12-.28.39-.46.69-.46h0c.3,0,.58.18.69.46l4.78,11.61c.12.29.04.63-.19.84-.23.21-.58.26-.86.11l-4.42-2.33-4.45,2.34c-.11.06-.23.09-.35.09Zm4.79-10.39l-3.31,8.02,2.97-1.56c.22-.11.48-.11.7,0l2.93,1.55-3.3-8.01Z"/>
  </g>
  <path class="cls-3" d="m68.32,89.4H20.26c-.41,0-.75-.34-.75-.75s.34-.75.75-.75h48.06c.41,0,.75.34.75.75s-.34.75-.75.75Z"/>
  <path class="cls-3" d="m18.77,89.4h-3.82c-.41,0-.75-.34-.75-.75s.34-.75.75-.75h3.82c.41,0,.75.34.75.75s-.34.75-.75.75Z"/>
  <path class="cls-3" d="m13.56,89.4h-1.84c-.41,0-.75-.34-.75-.75s.34-.75.75-.75h1.84c.41,0,.75.34.75.75s-.34.75-.75.75Z"/>
  <path class="cls-3" d="m54.51,92.97H19.26c-.41,0-.75-.34-.75-.75s.34-.75.75-.75h35.25c.41,0,.75.34.75.75s-.34.75-.75.75Z"/>
  <path class="cls-3" d="m58.4,92.97h-2.8c-.41,0-.75-.34-.75-.75s.34-.75.75-.75h2.8c.41,0,.75.34.75.75s-.34.75-.75.75Z"/>
  <path class="cls-3" d="m60.77,92.97h-1.35c-.41,0-.75-.34-.75-.75s.34-.75.75-.75h1.35c.41,0,.75.34.75.75s-.34.75-.75.75Z"/>
</svg>