<?xml version="1.0" encoding="UTF-8"?>
<svg id="_11" data-name="11" xmlns="http://www.w3.org/2000/svg" viewBox="0 0 100 102">
  <defs>
    <style>
      .cls-1 {
        fill: #fff;
      }

      .cls-2 {
        fill: #ffe724;
      }

      .cls-3 {
        fill: #231f20;
      }
    </style>
  </defs>
  <g>
    <rect class="cls-1" x="18.78" y="43.56" width="62.48" height="38.01"/>
    <rect class="cls-2" x="21.35" y="45.52" width="59.36" height="36.11"/>
    <path class="cls-3" d="m81.26,82.32H18.78c-.41,0-.75-.34-.75-.75v-38.01c0-.41.34-.75.75-.75h62.48c.41,0,.75.34.75.75v38.01c0,.41-.34.75-.75.75Zm-61.73-1.5h60.98v-36.51H19.53v36.51Z"/>
  </g>
  <g>
    <polygon class="cls-1" points="29.47 33.55 50.19 21.82 70.56 33.55 70.56 43.56 29.47 43.56 29.47 33.55"/>
    <polygon class="cls-2" points="31.51 34.52 51.19 23.37 70.54 34.52 70.54 44.03 31.51 44.03 31.51 34.52"/>
    <path class="cls-3" d="m70.56,44.31H29.47c-.41,0-.75-.34-.75-.75v-10.01c0-.27.15-.52.38-.65l20.72-11.73c.23-.13.51-.13.74,0l20.37,11.73c.23.13.38.38.38.65v10.01c0,.41-.34.75-.75.75Zm-40.34-1.5h39.59v-8.82l-19.62-11.3-19.96,11.3v8.82Z"/>
  </g>
  <g>
    <rect class="cls-1" x="42.3" y="60.1" width="15.44" height="21.48"/>
    <rect class="cls-2" x="43.69" y="61.64" width="14.67" height="20.4"/>
    <path class="cls-3" d="m57.74,82.32h-15.44c-.41,0-.75-.34-.75-.75v-21.48c0-.41.34-.75.75-.75h15.44c.41,0,.75.34.75.75v21.48c0,.41-.34.75-.75.75Zm-14.69-1.5h13.94v-19.98h-13.94v19.98Z"/>
  </g>
  <path class="cls-3" d="m76.46,74.55h-3.31c-.41,0-.75-.34-.75-.75v-7.47c0-.41.34-.75.75-.75h3.31c.41,0,.75.34.75.75v7.47c0,.41-.34.75-.75.75Zm-2.56-1.5h1.81v-5.97h-1.81v5.97Zm-7.08,1.5h-3.31c-.41,0-.75-.34-.75-.75v-7.47c0-.41.34-.75.75-.75h3.31c.41,0,.75.34.75.75v7.47c0,.41-.34.75-.75.75Zm-2.56-1.5h1.81v-5.97h-1.81v5.97Zm-27.75,1.5h-3.31c-.41,0-.75-.34-.75-.75v-7.47c0-.41.34-.75.75-.75h3.31c.41,0,.75.34.75.75v7.47c0,.41-.34.75-.75.75Zm-2.56-1.5h1.81v-5.97h-1.81v5.97Zm-7.07,1.5h-3.31c-.41,0-.75-.34-.75-.75v-7.47c0-.41.34-.75.75-.75h3.31c.41,0,.75.34.75.75v7.47c0,.41-.34.75-.75.75Zm-2.56-1.5h1.81v-5.97h-1.81v5.97Zm52.14-13.51h-3.31c-.41,0-.75-.34-.75-.75v-7.47c0-.41.34-.75.75-.75h3.31c.41,0,.75.34.75.75v7.47c0,.41-.34.75-.75.75Zm-2.56-1.5h1.81v-5.97h-1.81v5.97Zm-7.08,1.5h-3.31c-.41,0-.75-.34-.75-.75v-7.47c0-.41.34-.75.75-.75h3.31c.41,0,.75.34.75.75v7.47c0,.41-.34.75-.75.75Zm-2.56-1.5h1.81v-5.97h-1.81v5.97Zm-27.75,1.5h-3.31c-.41,0-.75-.34-.75-.75v-7.47c0-.41.34-.75.75-.75h3.31c.41,0,.75.34.75.75v7.47c0,.41-.34.75-.75.75Zm-2.56-1.5h1.81v-5.97h-1.81v5.97Zm-7.07,1.5h-3.31c-.41,0-.75-.34-.75-.75v-7.47c0-.41.34-.75.75-.75h3.31c.41,0,.75.34.75.75v7.47c0,.41-.34.75-.75.75Zm-2.56-1.5h1.81v-5.97h-1.81v5.97Z"/>
  <g>
    <path class="cls-1" d="m50.02,31.08c2.11,0,3.82,1.71,3.82,3.82s-1.71,3.82-3.82,3.82-3.82-1.71-3.82-3.82,1.71-3.82,3.82-3.82Z"/>
    <path class="cls-2" d="m51.03,32.28c2,0,3.63,1.62,3.63,3.62s-1.62,3.63-3.63,3.63-3.63-1.63-3.63-3.63,1.63-3.62,3.63-3.62Z"/>
    <path class="cls-3" d="m50.02,39.46c-2.52,0-4.57-2.05-4.57-4.57s2.05-4.57,4.57-4.57,4.57,2.05,4.57,4.57-2.05,4.57-4.57,4.57Zm0-7.63c-1.7,0-3.07,1.38-3.07,3.07s1.38,3.07,3.07,3.07,3.07-1.38,3.07-3.07-1.38-3.07-3.07-3.07Z"/>
  </g>
  <path class="cls-3" d="m88.98,82.32H11.06c-.41,0-.75-.34-.75-.75s.34-.75.75-.75h77.92c.41,0,.75.34.75.75s-.34.75-.75.75Z"/>
  <g>
    <polygon class="cls-1" points="50.19 12.45 44.58 14.62 50.19 16.77 50.19 12.45"/>
    <polygon class="cls-2" points="51.06 13.57 45.73 15.62 51.06 17.67 51.06 13.57"/>
    <path class="cls-3" d="m50.19,17.52c-.09,0-.18-.02-.27-.05l-5.6-2.16c-.29-.11-.48-.39-.48-.7s.19-.59.48-.7l5.6-2.17c.23-.09.49-.06.69.08.2.14.33.37.33.62v4.32c0,.25-.12.48-.33.62-.13.09-.28.13-.42.13Zm-3.52-2.91l2.77,1.07v-2.14l-2.77,1.07Z"/>
  </g>
  <path class="cls-3" d="m50.19,22.57c-.41,0-.75-.34-.75-.75v-6.08c0-.41.34-.75.75-.75s.75.34.75.75v6.08c0,.41-.34.75-.75.75Z"/>
  <path class="cls-3" d="m46.09,51.93c-.9,0-1.64-.29-2.19-.86-.04-.04-.08-.08-.11-.12v.15c0,.41-.34.75-.75.75h-.95c-.41,0-.75-.34-.75-.75v-1.29h-.34v1.29c0,.41-.34.75-.75.75h-.95c-.41,0-.75-.34-.75-.75v-4.67c0-.41.34-.75.75-.75h.95c.41,0,.75.34.75.75v1.09h.34v-1.09c0-.41.34-.75.75-.75h.95c.41,0,.75.34.75.75v.16c.04-.05.09-.11.14-.16.29-.29.57-.48.87-.6.36-.16.8-.25,1.28-.25.77,0,1.43.22,1.96.65.08-.32.38-.56.73-.56h3.7c.11,0,.21.02.31.07.09-.04.2-.07.31-.07h3.45c.18,0,.35.07.48.18.12-.09.27-.14.44-.14h.95c.41,0,.75.34.75.75v3.09h1.59c.41,0,.75.34.75.75v.79c0,.41-.34.75-.75.75h-3.29c-.15,0-.3-.05-.42-.12-.12.08-.26.12-.41.12h-3.54c-.41,0-.75-.34-.75-.75v-3.13h-.49v3.13c0,.41-.34.75-.75.75h-.96c-.41,0-.75-.34-.75-.75v-3.13h-.35c.05.25.07.52.07.8,0,.95-.28,1.72-.83,2.3-.55.57-1.28.87-2.19.87Zm0-4.03c-.22,0-.32.08-.38.15-.05.06-.17.23-.17.7,0,.23.03.54.17.7.21.23.54.23.75,0,.1-.12.16-.37.16-.71s-.06-.59-.17-.71c-.07-.08-.16-.13-.37-.13Z"/>
  <path class="cls-3" d="m75.99,85.59H32c-.41,0-.75-.34-.75-.75s.34-.75.75-.75h43.99c.41,0,.75.34.75.75s-.34.75-.75.75Z"/>
  <path class="cls-3" d="m30.63,85.59h-3.49c-.41,0-.75-.34-.75-.75s.34-.75.75-.75h3.49c.41,0,.75.34.75.75s-.34.75-.75.75Z"/>
  <path class="cls-3" d="m25.87,85.59h-1.69c-.41,0-.75-.34-.75-.75s.34-.75.75-.75h1.69c.41,0,.75.34.75.75s-.34.75-.75.75Z"/>
  <path class="cls-3" d="m63.35,88.86H31.09c-.41,0-.75-.34-.75-.75s.34-.75.75-.75h32.26c.41,0,.75.34.75.75s-.34.75-.75.75Z"/>
  <path class="cls-3" d="m66.91,88.86h-2.56c-.41,0-.75-.34-.75-.75s.34-.75.75-.75h2.56c.41,0,.75.34.75.75s-.34.75-.75.75Z"/>
  <path class="cls-3" d="m69.08,88.86h-1.24c-.41,0-.75-.34-.75-.75s.34-.75.75-.75h1.24c.41,0,.75.34.75.75s-.34.75-.75.75Z"/>
</svg>