<?xml version="1.0" encoding="UTF-8"?>
<svg id="_11" data-name="11" xmlns="http://www.w3.org/2000/svg" viewBox="0 0 77 93">
  <defs>
    <style>
      .cls-1 {
        fill: #fff;
      }

      .cls-2 {
        fill: #ffe724;
      }

      .cls-3 {
        fill: #231f20;
      }
    </style>
  </defs>
  <path class="cls-3" d="m60.86,56.56c-1.34,0-2.63-.07-3.88-.13-1.26-.07-2.57-.14-3.94-.14-.41,0-.75-.34-.75-.75s.34-.75.75-.75c1.42,0,2.74.07,4.02.14,1.29.07,2.5.13,3.8.13.63,0,1.14-.51,1.14-1.14,0-.73-.73-1.29-1.44-1.1-.21.06-.44.02-.62-.11-.18-.13-.3-.33-.32-.55-.05-.52-.46-.95-.98-1.02-.37-.05-.65-.36-.66-.73,0-.32-.1-.63-.28-.92-.22-.35-.12-.81.23-1.04.35-.22.81-.12,1.04.23.22.35.37.72.45,1.11.69.26,1.24.8,1.51,1.48,1.42.04,2.57,1.21,2.57,2.64s-1.19,2.64-2.64,2.64Z"/>
  <path class="cls-3" d="m43.85,63.74c-3.26,0-22.36-18.48-22.36-30.27,0-1.58.12-3.15.37-4.67.06-.41.45-.69.86-.62.41.06.69.45.62.86-.23,1.45-.35,2.94-.35,4.44,0,10.93,18.45,28.54,20.87,28.77,2.39-.24,20.85-17.84,20.85-28.77,0-13.44-9.36-24.38-20.86-24.38-6.74,0-13.1,3.84-17.01,10.28-.21.35-.67.47-1.03.25-.35-.21-.47-.68-.25-1.03,4.19-6.89,11.03-11,18.29-11,12.33,0,22.36,11.61,22.36,25.88,0,11.8-19.1,30.27-22.36,30.27Z"/>
  <g>
    <path class="cls-1" d="m43.85,8.34c5.81,0,10.52,11.25,10.52,25.13,0,11.6-9.28,29.52-10.52,29.52s-10.52-17.92-10.52-29.52c0-6.62,2.31-25.13,10.52-25.13Z"/>
    <path class="cls-2" d="m44.86,10.71c5.52,0,10,10.69,10,23.87,0,11.02-8.81,28.05-10,28.05s-10-17.03-10-28.05c0-6.29,2.19-23.87,10-23.87Z"/>
    <path class="cls-3" d="m43.85,63.74c-2.34,0-11.27-19.33-11.27-30.27,0-5.47,1.91-25.88,11.27-25.88,6.32,0,11.27,11.37,11.27,25.88,0,10.95-8.93,30.27-11.27,30.27Zm0-54.65c-7.46,0-9.77,17.87-9.77,24.38,0,10.51,7.8,26.19,9.77,28.57,1.97-2.39,9.78-18.07,9.78-28.57,0-13.21-4.48-24.38-9.77-24.38Z"/>
  </g>
  <path class="cls-3" d="m43.85,63.74c-.41,0-.75-.34-.75-.75V8.34c0-.41.34-.75.75-.75s.75.34.75.75v54.65c0,.41-.34.75-.75.75Z"/>
  <g>
    <path class="cls-1" d="m38.95,66.38h10.14c.49,0,.88.4.88.88v6.99c0,.48-.4.87-.88.87h-10.14c-.49,0-.87-.4-.87-.87v-6.99c0-.48.39-.88.87-.88Z"/>
    <path class="cls-2" d="m40.22,67.61h9.63c.46,0,.84.38.84.83v6.64c0,.45-.37.83-.84.83h-9.63c-.46,0-.83-.38-.83-.83v-6.64c0-.46.37-.83.83-.83Z"/>
    <path class="cls-3" d="m49.09,75.87h-10.14c-.89,0-1.62-.73-1.62-1.62v-6.99c0-.9.73-1.63,1.62-1.63h10.14c.9,0,1.63.73,1.63,1.63v6.99c0,.89-.73,1.62-1.63,1.62Zm-10.14-8.74c-.07,0-.12.06-.12.13v6.99c0,.06.05.12.12.12h10.14c.08,0,.13-.06.13-.12v-6.99c0-.07-.06-.13-.13-.13h-10.14Z"/>
  </g>
  <g>
    <path class="cls-1" d="m45.36,62.3v4.09h-2.79v-3.94c.57.35,1.01.54,1.28.54.3,0,.82-.24,1.51-.69Z"/>
    <path class="cls-2" d="m46.3,63.41v3.88h-2.65v-3.74c.54.34.96.52,1.21.52.28,0,.78-.23,1.43-.66Z"/>
    <path class="cls-3" d="m45.36,67.13h-2.79c-.41,0-.75-.34-.75-.75v-3.94c0-.27.15-.52.38-.66.24-.13.53-.13.76.02.65.41.88.43.89.43,0,0,.26-.03,1.09-.57.23-.15.53-.16.77-.03.24.13.39.38.39.66v4.09c0,.41-.34.75-.75.75Zm-2.04-1.5h1.29v-2.07c-.36.15-.59.17-.76.17-.12,0-.29-.01-.53-.09v1.99Z"/>
  </g>
  <path class="cls-3" d="m49.97,69.66h-12.34c-.41,0-.75-.34-.75-.75s.34-.75.75-.75h12.34c.41,0,.75.34.75.75s-.34.75-.75.75Z"/>
  <path class="cls-3" d="m45.73,86.3c-1.61,0-2.92-1.31-2.92-2.92,0-1.52,1.16-2.77,2.64-2.91.1-1.52,1.37-2.73,2.92-2.73,1,0,1.92.51,2.45,1.32.18-.04.37-.05.55-.05,1.61,0,2.92,1.31,2.92,2.92,0,.09,0,.19,0,.29-.04.41-.41.71-.82.68-.41-.04-.72-.4-.68-.82,0-.05,0-.1,0-.15,0-.99-1.05-1.74-2.05-1.28-.19.09-.42.09-.61,0-.2-.09-.35-.25-.41-.45-.19-.58-.74-.97-1.35-.97-.79,0-1.42.64-1.42,1.42,0,.13.02.26.06.38.08.26.02.54-.16.74-.18.2-.46.28-.72.22-.95-.22-1.81.47-1.81,1.38,0,.78.64,1.42,1.42,1.42.41,0,.75.34.75.75s-.34.75-.75.75Z"/>
  <path class="cls-3" d="m41.15,86.97c-.41,0-.75-.34-.75-.75s.34-.75.75-.75c.95,0,1.76-.53,1.76-1.16s-.82-1.16-1.76-1.16c-.33,0-.66.06-.93.19-.24.11-.53.08-.74-.08-.22-.16-.33-.42-.31-.68,0-.06,0-.12,0-.18,0-.97-.79-1.76-1.76-1.76-.27,0-.52.06-.75.17-.19.09-.42.1-.62.02-.2-.08-.35-.25-.42-.45-.25-.72-.91-1.2-1.67-1.2-.41,0-.75-.34-.75-.75s.34-.75.75-.75c1.14,0,2.17.59,2.76,1.54.23-.05.46-.08.7-.08,1.55,0,2.85,1.09,3.18,2.55.18-.02.36-.04.55-.04,1.8,0,3.26,1.19,3.26,2.66s-1.43,2.66-3.26,2.66Z"/>
  <g>
    <path class="cls-1" d="m21.54,15.18c2.39,0,4.33,1.92,4.37,4.31,1.53.19,2.74,1.43,2.88,2.99.28-.08.57-.12.87-.12,1.84,0,3.32,1.49,3.32,3.32s-1.49,3.32-3.32,3.32c-4.71,0-8.9-.48-13.76-.48-1.84,0-3.33-1.49-3.33-3.32,0-1.47.95-2.71,2.27-3.15.42-1.08,1.25-1.95,2.32-2.42v-.08c0-2.41,1.95-4.37,4.37-4.37Z"/>
    <path class="cls-2" d="m22.61,16.54c2.27,0,4.12,1.83,4.15,4.09,1.46.18,2.6,1.36,2.74,2.84.27-.08.54-.11.83-.11,1.74,0,3.16,1.41,3.16,3.16s-1.41,3.16-3.16,3.16c-4.47,0-8.45-.45-13.07-.45-1.74,0-3.16-1.41-3.16-3.16,0-1.39.9-2.57,2.16-3,.4-1.03,1.19-1.85,2.2-2.29v-.08c0-2.29,1.86-4.15,4.15-4.15Z"/>
    <path class="cls-3" d="m29.66,29.75c-2.35,0-4.62-.12-6.81-.24-2.22-.12-4.52-.24-6.95-.24-2.25,0-4.08-1.83-4.08-4.07,0-1.63.97-3.1,2.46-3.74.45-.97,1.21-1.78,2.15-2.3.23-2.68,2.43-4.73,5.1-4.73s4.74,1.94,5.07,4.44c1.33.38,2.38,1.43,2.77,2.75.09,0,.18,0,.28,0,2.25,0,4.07,1.83,4.07,4.07s-1.83,4.07-4.07,4.07Zm-8.12-13.82c-2,0-3.62,1.62-3.62,3.62,0,.3-.18.65-.45.77-.88.38-1.57,1.11-1.92,2-.08.21-.25.37-.46.44-1.05.36-1.76,1.34-1.76,2.44,0,1.42,1.16,2.57,2.58,2.57,2.47,0,4.79.12,7.03.24,2.17.11,4.41.23,6.73.23,1.42,0,2.57-1.15,2.57-2.57s-1.15-2.57-2.57-2.57c-.24,0-.46.03-.66.09-.22.06-.45.02-.63-.1-.18-.13-.3-.33-.32-.55-.11-1.19-1.05-2.16-2.23-2.31-.37-.05-.65-.36-.66-.73-.03-1.97-1.65-3.57-3.62-3.57Z"/>
  </g>
</svg>