<?xml version="1.0" encoding="UTF-8"?>
<svg id="_11" data-name="11" xmlns="http://www.w3.org/2000/svg" viewBox="0 0 121 98">
  <defs>
    <style>
      .cls-1 {
        fill: #fff;
      }

      .cls-2 {
        fill: #ffe724;
      }

      .cls-3 {
        fill: #231f20;
      }
    </style>
  </defs>
  <path class="cls-3" d="m38.34,58.46c-.19,0-.38-.07-.53-.22-.29-.29-.3-.77,0-1.06l25.97-26.16c.28-.28.78-.28,1.06,0l25.99,26.16c.29.29.29.77,0,1.06-.29.29-.77.29-1.06,0l-25.45-25.62-25.44,25.62c-.15.15-.34.22-.53.22Z"/>
  <path class="cls-3" d="m29.48,58.75c-.19,0-.38-.07-.52-.21-.3-.29-.3-.76-.01-1.06l14.63-15c.14-.14.33-.22.53-.23.2,0,.39.08.53.22l6.44,6.35c.29.29.3.77,0,1.06-.29.3-.77.3-1.06,0l-5.91-5.82-14.1,14.46c-.15.15-.34.23-.54.23Z"/>
  <g>
    <path class="cls-1" d="m80.48,29.5c1.75,0,3.18,1.42,3.18,3.17s-1.42,3.17-3.18,3.17-3.18-1.41-3.18-3.17,1.42-3.17,3.18-3.17Z"/>
    <path class="cls-2" d="m81.49,30.66c1.67,0,3.02,1.35,3.02,3.01s-1.35,3.01-3.02,3.01-3.02-1.34-3.02-3.01,1.35-3.01,3.02-3.01Z"/>
    <path class="cls-3" d="m80.48,36.59c-2.16,0-3.93-1.76-3.93-3.92s1.76-3.92,3.93-3.92,3.93,1.76,3.93,3.92-1.76,3.92-3.93,3.92Zm0-6.34c-1.34,0-2.43,1.09-2.43,2.42s1.09,2.42,2.43,2.42,2.43-1.09,2.43-2.42-1.09-2.42-2.43-2.42Z"/>
  </g>
  <path class="cls-3" d="m80.48,28.83c-.41,0-.75-.34-.75-.75v-1.25c0-.41.34-.75.75-.75s.75.34.75.75v1.25c0,.41-.34.75-.75.75Z"/>
  <path class="cls-3" d="m83.73,30.17c-.19,0-.38-.07-.53-.22-.29-.29-.29-.77,0-1.06l.88-.88c.29-.29.77-.29,1.06,0,.29.29.29.77,0,1.06l-.88.88c-.15.15-.34.22-.53.22Z"/>
  <path class="cls-3" d="m86.33,33.42h-1.25c-.41,0-.75-.34-.75-.75s.34-.75.75-.75h1.25c.41,0,.75.34.75.75s-.34.75-.75.75Z"/>
  <path class="cls-3" d="m84.62,37.55c-.19,0-.38-.07-.53-.22l-.88-.88c-.29-.29-.29-.77,0-1.06.29-.29.77-.29,1.06,0l.88.88c.29.29.29.77,0,1.06-.15.15-.34.22-.53.22Z"/>
  <path class="cls-3" d="m80.48,39.26c-.41,0-.75-.34-.75-.75v-1.25c0-.41.34-.75.75-.75s.75.34.75.75v1.25c0,.41-.34.75-.75.75Z"/>
  <path class="cls-3" d="m76.35,37.55c-.19,0-.38-.07-.53-.22-.29-.29-.29-.77,0-1.06l.89-.88c.29-.29.77-.29,1.06,0,.29.29.29.77,0,1.06l-.89.88c-.15.15-.34.22-.53.22Z"/>
  <path class="cls-3" d="m75.89,33.42h-1.25c-.41,0-.75-.34-.75-.75s.34-.75.75-.75h1.25c.41,0,.75.34.75.75s-.34.75-.75.75Z"/>
  <path class="cls-3" d="m77.24,30.17c-.19,0-.38-.07-.53-.22l-.89-.88c-.29-.29-.29-.77,0-1.06.29-.29.77-.3,1.06,0l.89.88c.29.29.29.77,0,1.06-.15.15-.34.22-.53.22Z"/>
  <g>
    <path class="cls-1" d="m48.9,20.81c1.43,0,2.59,1.14,2.61,2.56.91.12,1.63.86,1.72,1.78.16-.05.33-.07.52-.07,1.09,0,1.98.89,1.98,1.98s-.89,1.98-1.98,1.98c-2.81,0-5.3-.28-8.2-.28-1.09,0-1.98-.89-1.98-1.98,0-.88.57-1.61,1.35-1.88.26-.65.75-1.16,1.38-1.45v-.05c0-1.44,1.16-2.6,2.6-2.6Z"/>
    <path class="cls-2" d="m49.95,22.02c1.36,0,2.46,1.08,2.48,2.43.87.11,1.55.82,1.63,1.69.16-.04.32-.07.49-.07,1.04,0,1.88.85,1.88,1.88s-.84,1.88-1.88,1.88c-2.67,0-5.03-.27-7.79-.27-1.04,0-1.88-.85-1.88-1.88,0-.83.54-1.53,1.28-1.78.24-.62.72-1.1,1.31-1.37v-.04c0-1.36,1.1-2.47,2.47-2.47Z"/>
    <path class="cls-3" d="m53.75,29.79c-1.41,0-2.76-.07-4.07-.14-1.32-.07-2.69-.14-4.13-.14s-2.73-1.23-2.73-2.73c0-1.05.61-2,1.54-2.45.28-.55.7-1,1.22-1.33.22-1.67,1.62-2.93,3.32-2.93s3,1.17,3.3,2.71c.72.27,1.31.84,1.59,1.56,1.48.02,2.68,1.24,2.68,2.73s-1.22,2.73-2.73,2.73Zm-4.84-8.23c-1.02,0-1.85.83-1.85,1.85,0,.29-.17.61-.44.73-.46.21-.81.57-.99,1.04-.08.21-.25.36-.46.43-.5.17-.84.64-.84,1.16,0,.68.55,1.23,1.23,1.23,1.48,0,2.87.07,4.21.14,1.35.07,2.62.14,3.99.14.68,0,1.23-.55,1.23-1.23,0-.79-.78-1.4-1.54-1.18-.21.06-.44.02-.63-.11-.18-.13-.3-.33-.32-.55-.05-.57-.5-1.03-1.07-1.11-.37-.05-.65-.36-.65-.73-.01-1-.84-1.82-1.86-1.82Z"/>
  </g>
  <path class="cls-3" d="m30.68,40.15h0c-.28,0-.54-.16-.67-.41-.32-.64-1.98-.06-2.55.23-.37.19-.82.04-1.01-.34-.18-.37-.03-.82.33-1,.21-.1,2.06-1,3.42-.54.17.06.33.13.47.23.45-.3,1.15-.48,2.21-.26.88.18,1.65.56,1.68.58.37.18.52.63.34,1-.18.37-.64.52-1,.34-.57-.28-2.24-.87-2.56-.23-.13.25-.39.41-.67.41Z"/>
  <path class="cls-3" d="m34.42,36.7c-.28,0-.54-.16-.67-.41-.32-.64-1.98-.06-2.55.23-.37.18-.82.03-1-.34-.18-.37-.03-.82.34-1,1.03-.52,2.79-1.02,3.89-.32,1.1-.71,2.86-.2,3.89.32.37.18.52.63.34,1-.18.37-.64.52-1,.34-.57-.28-2.24-.86-2.55-.23-.13.25-.39.41-.67.41Z"/>
  <path class="cls-3" d="m28.61,33.33c-.28,0-.54-.16-.67-.41-.18-.35-.77-.31-1.24-.22-.68.14-1.3.45-1.31.45-.37.18-.82.04-1.01-.33-.19-.37-.04-.82.33-1.01.03-.02.8-.4,1.68-.58,1.06-.22,1.76-.04,2.21.26.46-.3,1.15-.48,2.21-.26.88.18,1.65.56,1.68.58.37.19.52.63.33,1-.19.37-.63.52-1.01.34-.57-.28-2.24-.87-2.56-.23-.13.25-.39.41-.67.41Z"/>
  <path class="cls-3" d="m102.98,57.95c-.2,0-.39-.08-.54-.23l-14.1-14.46-5.91,5.82c-.29.29-.77.29-1.06,0-.29-.29-.29-.77,0-1.06l6.44-6.35c.14-.14.33-.22.53-.22.2,0,.39.08.53.23l14.62,15c.29.3.28.77-.01,1.06-.15.14-.33.21-.52.21Z"/>
  <g>
    <path class="cls-1" d="m96.31,36.86c.94,0,1.71.76,1.72,1.69.61.08,1.08.56,1.14,1.18.11-.03.22-.05.34-.05.72,0,1.31.59,1.31,1.31s-.58,1.31-1.31,1.31c-1.85,0-3.5-.19-5.42-.19-.72,0-1.31-.58-1.31-1.3,0-.59.37-1.07.9-1.25.17-.42.49-.77.91-.95v-.03c0-.95.77-1.72,1.73-1.72Z"/>
    <path class="cls-2" d="m97.35,38c.9,0,1.62.72,1.63,1.61.58.08,1.03.54,1.08,1.12.1-.03.21-.04.32-.04.69,0,1.24.56,1.24,1.25s-.55,1.24-1.24,1.24c-1.76,0-3.33-.18-5.15-.18-.69,0-1.24-.55-1.24-1.24,0-.56.36-1.01.85-1.19.16-.4.47-.73.86-.91v-.03c0-.9.74-1.63,1.64-1.63Z"/>
    <path class="cls-3" d="m99.51,43.05c-.94,0-1.84-.05-2.7-.09-.87-.05-1.77-.09-2.72-.09-1.14,0-2.06-.92-2.06-2.05,0-.77.43-1.46,1.09-1.82.18-.33.45-.62.76-.84.21-1.17,1.22-2.04,2.44-2.04,1.15,0,2.12.79,2.39,1.86.44.2.8.54,1.01.97,1.04.1,1.85.98,1.85,2.05,0,1.13-.92,2.06-2.06,2.06Zm-3.2-5.44c-.54,0-.98.43-.98.97,0,.3-.17.59-.44.72-.24.11-.42.3-.52.54-.08.21-.25.36-.45.44-.24.08-.39.29-.39.54,0,.31.25.55.56.55.99,0,1.91.05,2.8.1.89.05,1.72.09,2.62.09.31,0,.56-.25.56-.56,0-.36-.35-.64-.69-.54-.21.06-.44.03-.63-.1-.18-.12-.3-.32-.33-.55-.03-.27-.23-.47-.49-.51-.37-.05-.65-.36-.65-.74,0-.52-.44-.95-.97-.95Z"/>
  </g>
  <path class="cls-3" d="m80.12,56.92c-.19,0-.38-.07-.53-.22l-13.26-13.26c-.29-.29-.29-.77,0-1.06s.77-.29,1.06,0l13.26,13.26c.29.29.29.77,0,1.06-.15.15-.34.22-.53.22Z"/>
  <path class="cls-3" d="m92.41,65.46h-58.95c-.41,0-.75-.34-.75-.75s.34-.75.75-.75h58.95c.41,0,.75.34.75.75s-.34.75-.75.75Z"/>
  <path class="cls-3" d="m98.92,65.46h-4.67c-.41,0-.75-.34-.75-.75s.34-.75.75-.75h4.67c.41,0,.75.34.75.75s-.34.75-.75.75Z"/>
  <path class="cls-3" d="m102.89,65.46h-2.27c-.41,0-.75-.34-.75-.75s.34-.75.75-.75h2.27c.41,0,.75.34.75.75s-.34.75-.75.75Z"/>
  <path class="cls-3" d="m89,68.95h-37.24c-.41,0-.75-.34-.75-.75s.34-.75.75-.75h37.24c.41,0,.75.34.75.75s-.34.75-.75.75Z"/>
  <path class="cls-3" d="m50.6,68.95h-2.96c-.41,0-.75-.34-.75-.75s.34-.75.75-.75h2.96c.41,0,.75.34.75.75s-.34.75-.75.75Z"/>
  <path class="cls-3" d="m46.57,68.95h-1.43c-.41,0-.75-.34-.75-.75s.34-.75.75-.75h1.43c.41,0,.75.34.75.75s-.34.75-.75.75Z"/>
  <path class="cls-3" d="m78.3,72.5h-27.31c-.41,0-.75-.34-.75-.75s.34-.75.75-.75h27.31c.41,0,.75.34.75.75s-.34.75-.75.75Z"/>
  <path class="cls-3" d="m81.32,72.5h-2.17c-.41,0-.75-.34-.75-.75s.34-.75.75-.75h2.17c.41,0,.75.34.75.75s-.34.75-.75.75Z"/>
  <path class="cls-3" d="m83.15,72.5h-1.05c-.41,0-.75-.34-.75-.75s.34-.75.75-.75h1.05c.41,0,.75.34.75.75s-.34.75-.75.75Z"/>
</svg>