<?xml version="1.0" encoding="UTF-8"?>
<svg id="_11" data-name="11" xmlns="http://www.w3.org/2000/svg" viewBox="0 0 105 80">
  <defs>
    <style>
      .cls-1 {
        fill: #fff;
      }

      .cls-2 {
        fill: #ffe724;
      }

      .cls-3 {
        fill: #231f20;
      }
    </style>
  </defs>
  <path class="cls-3" d="m74.1,51.29c-.13,0-.26-.03-.37-.1l-3.31-1.91c-.36-.21-.48-.67-.27-1.02.21-.36.66-.48,1.02-.27l2.66,1.54,14.13-24.47L58.26,7.91l-14.13,24.47,6.5,3.75c.36.21.48.67.27,1.02-.21.36-.66.48-1.02.27l-7.15-4.12c-.17-.1-.3-.26-.35-.45-.05-.19-.02-.4.08-.57l14.88-25.77c.21-.36.66-.48,1.02-.27l30.99,17.89c.17.1.3.26.35.45.05.19.02.4-.08.57l-14.88,25.77c-.1.17-.26.3-.46.35-.06.02-.13.03-.19.03Z"/>
  <path class="cls-3" d="m79.24,42.37c-.29,0-.57-.17-.69-.45l-4.07-9.43-8.11,1.33c-.41.07-.79-.21-.86-.62-.07-.41.21-.79.62-.86l8.69-1.42c.34-.06.67.13.81.44l4.3,9.96c.16.38-.01.82-.39.99-.1.04-.2.06-.3.06Z"/>
  <path class="cls-3" d="m68.46,39.35c-.3,0-.58-.18-.7-.47l-5.23-13.1-16.53,2.8c-.4.07-.8-.21-.86-.61-.07-.41.21-.79.61-.86l17.12-2.9c.35-.07.69.13.82.46l5.46,13.66c.15.38-.03.82-.42.97-.09.04-.19.05-.28.05Z"/>
  <g>
    <path class="cls-1" d="m74.03,22.62c-1.28-.74-2.93-.3-3.68.99-.74,1.28-.3,2.93.98,3.67,1.29.74,2.94.29,3.68-.99.74-1.29.3-2.93-.99-3.67Z"/>
    <path class="cls-2" d="m74.97,23.75c-1.22-.7-2.79-.29-3.49.94-.71,1.22-.28,2.78.94,3.49,1.22.7,2.79.28,3.5-.94.7-1.22.29-2.78-.94-3.49Z"/>
    <path class="cls-3" d="m72.67,28.39h0c-.6,0-1.19-.16-1.71-.46-1.64-.96-2.21-3.06-1.26-4.7.61-1.06,1.75-1.72,2.98-1.72.6,0,1.19.16,1.71.46,1.64.95,2.21,3.06,1.26,4.7-.62,1.06-1.76,1.72-2.99,1.72Zm.01-5.38c-.7,0-1.34.37-1.68.97-.54.92-.22,2.11.71,2.65.89.51,2.14.17,2.65-.72.53-.92.21-2.11-.72-2.65-.29-.17-.63-.26-.97-.26Z"/>
  </g>
  <g>
    <path class="cls-1" d="m31.24,42.62h37.1c1.35,0,2.45,1.1,2.45,2.46v24.15c0,1.35-1.1,2.46-2.45,2.46H31.24c-1.35,0-2.46-1.1-2.46-2.46v-24.15c0-1.35,1.1-2.46,2.46-2.46Z"/>
    <path class="cls-2" d="m33.18,44.35h35.25c1.28,0,2.33,1.05,2.33,2.33v22.94c0,1.29-1.05,2.33-2.33,2.33h-35.25c-1.29,0-2.33-1.05-2.33-2.33v-22.94c0-1.29,1.05-2.33,2.33-2.33Z"/>
    <path class="cls-3" d="m68.34,72.43H31.24c-1.77,0-3.21-1.44-3.21-3.21v-24.15c0-1.77,1.44-3.21,3.21-3.21h37.1c1.76,0,3.2,1.44,3.2,3.21v24.15c0,1.77-1.43,3.21-3.2,3.21Zm-37.1-29.06c-.94,0-1.71.77-1.71,1.71v24.15c0,.94.77,1.71,1.71,1.71h37.1c.94,0,1.7-.77,1.7-1.71v-24.15c0-.94-.76-1.71-1.7-1.71H31.24Z"/>
  </g>
  <g>
    <polygon class="cls-1" points="43.83 36.77 55.75 36.77 57.25 42.62 42.32 42.62 43.83 36.77"/>
    <polygon class="cls-2" points="45.13 37.93 56.46 37.93 57.88 43.48 43.71 43.48 45.13 37.93"/>
    <path class="cls-3" d="m57.27,43.37s-.01,0-.02,0h-14.92c-.23,0-.45-.11-.59-.29-.14-.18-.19-.42-.13-.65l1.5-5.84c.08-.33.38-.56.73-.56h11.93c.34,0,.64.23.73.56l1.45,5.68c.05.1.08.22.08.35,0,.41-.33.75-.75.75Zm-13.98-1.5h12.99l-1.11-4.34h-10.76l-1.12,4.34Z"/>
  </g>
  <g>
    <path class="cls-1" d="m49.79,48.81c4.61,0,8.34,3.73,8.34,8.34s-3.73,8.34-8.34,8.34-8.34-3.73-8.34-8.34,3.74-8.34,8.34-8.34Z"/>
    <path class="cls-2" d="m50.8,50.23c4.38,0,7.92,3.55,7.92,7.92s-3.54,7.92-7.92,7.92-7.93-3.55-7.93-7.92,3.55-7.92,7.93-7.92Z"/>
    <path class="cls-3" d="m49.79,66.24c-5.01,0-9.09-4.08-9.09-9.09s4.08-9.09,9.09-9.09,9.09,4.08,9.09,9.09-4.08,9.09-9.09,9.09Zm0-16.68c-4.19,0-7.59,3.41-7.59,7.59s3.41,7.59,7.59,7.59,7.59-3.4,7.59-7.59-3.4-7.59-7.59-7.59Z"/>
  </g>
  <g>
    <polygon class="cls-1" points="49.79 53.82 51.23 54.65 52.68 55.48 52.68 57.15 52.68 58.81 51.23 59.64 49.79 60.48 48.34 59.64 46.91 58.81 46.91 57.15 46.91 55.48 48.34 54.65 49.79 53.82"/>
    <polygon class="cls-2" points="50.8 54.99 52.17 55.78 53.54 56.58 53.54 58.16 53.54 59.73 52.17 60.53 50.8 61.32 49.43 60.53 48.06 59.73 48.06 58.16 48.06 56.58 49.43 55.78 50.8 54.99"/>
    <path class="cls-3" d="m49.79,61.23c-.13,0-.26-.03-.37-.1l-2.89-1.67c-.23-.13-.37-.38-.37-.65v-3.33c0-.27.14-.51.37-.65l2.89-1.67c.23-.14.52-.13.75,0l2.88,1.67c.23.13.37.38.37.65v3.33c0,.27-.14.51-.37.65l-2.88,1.67c-.12.07-.25.1-.38.1Zm-2.13-2.85l2.13,1.23,2.13-1.23v-2.46l-2.13-1.23-2.13,1.23v2.46Z"/>
  </g>
  <path class="cls-3" d="m36.91,47.86h-4.21c-.41,0-.75-.34-.75-.75s.34-.75.75-.75h4.21c.41,0,.75.34.75.75s-.34.75-.75.75Z"/>
  <path class="cls-3" d="m25.93,51.29c-.06,0-.13,0-.19-.03-.19-.05-.36-.18-.46-.35l-14.88-25.77c-.1-.17-.13-.38-.08-.57.05-.19.18-.36.35-.45L41.67,6.23c.36-.21.82-.08,1.02.27l7.97,13.8c.21.36.08.82-.27,1.02-.36.21-.82.08-1.02-.27l-7.6-13.16L12.08,25.04l14.13,24.47,2.2-1.27c.36-.21.82-.08,1.03.27.21.36.08.82-.27,1.03l-2.85,1.65c-.12.07-.25.1-.38.1Z"/>
  <g>
    <path class="cls-1" d="m29.42,24.32c1.71,0,3.1,1.39,3.1,3.1s-1.39,3.1-3.1,3.1-3.1-1.39-3.1-3.1,1.38-3.1,3.1-3.1Z"/>
    <path class="cls-2" d="m30.43,25.48c1.62,0,2.94,1.32,2.94,2.95s-1.32,2.94-2.94,2.94-2.94-1.32-2.94-2.94,1.31-2.95,2.94-2.95Z"/>
    <path class="cls-3" d="m29.42,31.26c-2.12,0-3.85-1.73-3.85-3.85s1.73-3.85,3.85-3.85,3.85,1.73,3.85,3.85-1.73,3.85-3.85,3.85Zm0-6.2c-1.29,0-2.35,1.05-2.35,2.35s1.05,2.35,2.35,2.35,2.35-1.05,2.35-2.35-1.05-2.35-2.35-2.35Z"/>
  </g>
  <path class="cls-3" d="m29.42,22.88c-.41,0-.75-.34-.75-.75v-1.92c0-.41.34-.75.75-.75s.75.34.75.75v1.92c0,.41-.34.75-.75.75Z"/>
  <path class="cls-3" d="m33.16,24.43c-.19,0-.38-.07-.53-.22-.29-.29-.29-.77,0-1.06l1.37-1.36c.29-.29.77-.29,1.06,0,.29.29.29.77,0,1.06l-1.37,1.36c-.15.15-.34.22-.53.22Z"/>
  <path class="cls-3" d="m36.63,28.17h-1.92c-.41,0-.75-.34-.75-.75s.34-.75.75-.75h1.92c.41,0,.75.34.75.75s-.34.75-.75.75Z"/>
  <path class="cls-3" d="m34.53,33.26c-.19,0-.38-.07-.53-.22l-1.37-1.36c-.29-.29-.3-.77,0-1.06.29-.29.77-.3,1.06,0l1.37,1.36c.29.29.3.77,0,1.06-.15.15-.34.22-.53.22Z"/>
  <path class="cls-3" d="m29.42,35.37c-.41,0-.75-.34-.75-.75v-1.92c0-.41.34-.75.75-.75s.75.34.75.75v1.92c0,.41-.34.75-.75.75Z"/>
  <path class="cls-3" d="m24.32,33.26c-.19,0-.38-.07-.53-.22-.29-.29-.29-.77,0-1.06l1.36-1.36c.29-.29.77-.29,1.06,0,.29.29.29.77,0,1.06l-1.36,1.36c-.15.15-.34.22-.53.22Z"/>
  <path class="cls-3" d="m24.13,28.17h-1.92c-.41,0-.75-.34-.75-.75s.34-.75.75-.75h1.92c.41,0,.75.34.75.75s-.34.75-.75.75Z"/>
  <path class="cls-3" d="m25.68,24.43c-.19,0-.38-.07-.53-.22l-1.36-1.36c-.29-.29-.29-.77,0-1.06.29-.29.77-.29,1.06,0l1.36,1.36c.29.29.29.77,0,1.06-.15.15-.34.22-.53.22Z"/>
</svg>