<?xml version="1.0" encoding="UTF-8"?>
<svg id="_11" data-name="11" xmlns="http://www.w3.org/2000/svg" viewBox="0 0 85 101">
  <defs>
    <style>
      .cls-1 {
        fill: #fff;
      }

      .cls-2 {
        fill: #ffe724;
      }

      .cls-3 {
        fill: #231f20;
      }
    </style>
  </defs>
  <path class="cls-3" d="m68.57,72.41h-33.05c-.41,0-.75-.34-.75-.75s.34-.75.75-.75h25.42v-32.35c0-.59-.48-1.07-1.08-1.07H20.67c-.59,0-1.07.48-1.07,1.07v31.28c0,.59.48,1.07,1.07,1.07h5.54c.41,0,.75.34.75.75s-.34.75-.75.75h-5.54c-1.42,0-2.57-1.15-2.57-2.57v-31.28c0-1.42,1.15-2.57,2.57-2.57h39.18c1.42,0,2.58,1.15,2.58,2.57v32.35h6.13c.41,0,.75.34.75.75s-.34.75-.75.75Z"/>
  <g>
    <path class="cls-1" d="m30.86,67.01c2.57,0,4.65,2.08,4.65,4.65s-2.08,4.65-4.65,4.65-4.65-2.08-4.65-4.65,2.08-4.65,4.65-4.65Z"/>
    <path class="cls-2" d="m31.87,68.25c2.44,0,4.42,1.98,4.42,4.42s-1.98,4.42-4.42,4.42-4.41-1.98-4.41-4.42,1.98-4.42,4.41-4.42Z"/>
    <path class="cls-3" d="m30.86,77.06c-2.98,0-5.4-2.42-5.4-5.4s2.42-5.4,5.4-5.4,5.4,2.42,5.4,5.4-2.42,5.4-5.4,5.4Zm0-9.3c-2.15,0-3.9,1.75-3.9,3.9s1.75,3.9,3.9,3.9,3.9-1.75,3.9-3.9-1.75-3.9-3.9-3.9Z"/>
  </g>
  <g>
    <rect class="cls-1" x="43.62" y="53.91" width="11.77" height="17.75"/>
    <rect class="cls-2" x="44.93" y="55.36" width="11.18" height="16.86"/>
    <path class="cls-3" d="m55.39,72.41h-11.77c-.41,0-.75-.34-.75-.75v-17.75c0-.41.34-.75.75-.75h11.77c.41,0,.75.34.75.75v17.75c0,.41-.34.75-.75.75Zm-11.02-1.5h10.27v-16.25h-10.27v16.25Z"/>
  </g>
  <path class="cls-3" d="m56.75,49.43h-11.5c-.41,0-.75-.34-.75-.75v-7.67c0-.41.34-.75.75-.75h11.5c.41,0,.75.34.75.75v7.67c0,.41-.34.75-.75.75Zm-10.75-1.5h10v-6.17h-10v6.17Zm-11.57,1.5h-11.5c-.41,0-.75-.34-.75-.75v-7.67c0-.41.34-.75.75-.75h11.5c.41,0,.75.34.75.75v7.67c0,.41-.34.75-.75.75Zm-10.75-1.5h10v-6.17h-10v6.17Z"/>
  <path class="cls-3" d="m48.78,62.44c-.2,0-.4-.08-.54-.23-.29-.3-.28-.77.02-1.06l3.5-3.34c.3-.29.77-.28,1.06.02.29.3.28.77-.02,1.06l-3.5,3.34c-.14.14-.33.21-.52.21Z"/>
  <path class="cls-3" d="m47.78,65.78c-.2,0-.39-.08-.54-.23-.29-.3-.28-.77.02-1.06l3.49-3.34c.3-.29.77-.28,1.06.02.29.3.28.77-.02,1.06l-3.49,3.34c-.15.14-.33.21-.52.21Z"/>
  <path class="cls-3" d="m49.51,44.46h-2.2c-.41,0-.75-.34-.75-.75s.34-.75.75-.75h2.2c.41,0,.75.34.75.75s-.34.75-.75.75Z"/>
  <path class="cls-3" d="m32,46.13h-2.2c-.41,0-.75-.34-.75-.75s.34-.75.75-.75h2.2c.41,0,.75.34.75.75s-.34.75-.75.75Z"/>
  <g>
    <path class="cls-1" d="m30.86,70.28c.76,0,1.38.62,1.38,1.38s-.62,1.38-1.38,1.38-1.38-.62-1.38-1.38.62-1.38,1.38-1.38Z"/>
    <path class="cls-2" d="m31.87,71.36c.72,0,1.31.59,1.31,1.31s-.59,1.31-1.31,1.31-1.31-.59-1.31-1.31.59-1.31,1.31-1.31Z"/>
    <path class="cls-3" d="m30.86,73.78c-1.17,0-2.13-.95-2.13-2.13s.95-2.12,2.13-2.12,2.13.95,2.13,2.12-.96,2.13-2.13,2.13Zm0-2.75c-.34,0-.63.28-.63.62s.28.63.63.63.63-.28.63-.63-.28-.62-.63-.62Z"/>
  </g>
  <g>
    <path class="cls-1" d="m30.16,16.14c1.99-.09,3.67,1.44,3.78,3.42,1.28.11,2.33,1.1,2.5,2.38.23-.08.47-.12.72-.13,1.52-.06,2.82,1.12,2.88,2.65.06,1.53-1.12,2.82-2.65,2.88-3.92.17-7.42-.08-11.46.09-1.53.07-2.82-1.12-2.88-2.65-.05-1.22.69-2.29,1.78-2.7.31-.92.98-1.67,1.84-2.09v-.07c-.09-2.01,1.47-3.7,3.48-3.79Z"/>
    <path class="cls-2" d="m31.24,17.43c1.89-.08,3.49,1.37,3.59,3.25,1.22.11,2.21,1.04,2.38,2.27.22-.07.44-.12.68-.12,1.45-.06,2.68,1.07,2.74,2.51.06,1.46-1.07,2.68-2.52,2.74-3.72.16-7.05-.07-10.89.08-1.45.07-2.68-1.06-2.73-2.51-.05-1.16.66-2.17,1.69-2.56.29-.87.93-1.59,1.75-1.99v-.06c-.09-1.91,1.39-3.52,3.31-3.6Z"/>
    <path class="cls-3" d="m25.81,28.18c-1.89,0-3.42-1.48-3.5-3.37-.06-1.4.71-2.68,1.94-3.29.35-.8.93-1.49,1.67-1.96.11-2.24,1.92-4.07,4.2-4.17h.19c2.11,0,3.9,1.51,4.29,3.53,1.1.29,1.99,1.09,2.38,2.15.05,0,.1,0,.14,0h.14c1.89,0,3.44,1.48,3.52,3.36.04.94-.29,1.84-.93,2.53-.64.69-1.5,1.09-2.44,1.13-.99.04-2.02.06-3.26.06-.82,0-1.64,0-2.45-.02-.82,0-1.64-.02-2.48-.02-1.23,0-2.27.02-3.28.06h-.16Zm4.51-11.29h-.13c-1.6.07-2.84,1.42-2.77,3.01.01.3-.14.64-.41.77-.68.33-1.21.94-1.46,1.66-.07.21-.24.38-.45.46-.81.3-1.33,1.09-1.29,1.96.04,1.08.92,1.93,2,1.93h.09c1.03-.04,2.09-.06,3.34-.06.84,0,1.67,0,2.49.02.81,0,1.62.02,2.44.02,1.21,0,2.23-.02,3.2-.06.54-.02,1.03-.25,1.4-.65.36-.4.55-.91.53-1.46-.05-1.08-.94-1.93-2.02-1.93-.26,0-.43.04-.59.09-.21.07-.44.05-.64-.07-.19-.12-.32-.32-.35-.54-.13-.94-.88-1.65-1.83-1.74-.37-.03-.66-.33-.68-.7-.09-1.52-1.35-2.72-2.87-2.72Z"/>
  </g>
  <g>
    <path class="cls-1" d="m52,24.67c-1.33-.06-2.45.97-2.53,2.29-.85.07-1.56.73-1.67,1.58-.15-.04-.31-.08-.48-.08-1.02-.05-1.88.75-1.92,1.77-.04,1.02.75,1.88,1.77,1.92,2.62.11,4.96-.05,7.66.06,1.02.04,1.88-.75,1.92-1.78.04-.81-.46-1.52-1.19-1.8-.21-.61-.66-1.11-1.23-1.39v-.04c.06-1.34-.98-2.48-2.33-2.53Z"/>
    <path class="cls-2" d="m52.96,25.87c-1.26-.06-2.33.92-2.4,2.17-.81.07-1.48.69-1.59,1.5-.14-.04-.3-.07-.46-.07-.97-.04-1.79.71-1.83,1.68-.04.97.71,1.79,1.68,1.83,2.48.11,4.71-.05,7.28.06.97.04,1.79-.71,1.83-1.69.03-.77-.44-1.45-1.13-1.71-.2-.58-.62-1.06-1.17-1.32v-.04c.05-1.27-.93-2.36-2.21-2.41Z"/>
    <path class="cls-3" d="m54.9,32.97h0s-.1,0-.11,0c-1.34-.06-2.59-.04-3.83-.03-1.26.01-2.51.03-3.83-.03-1.43-.06-2.54-1.28-2.48-2.71.06-1.39,1.2-2.49,2.59-2.49,0,0,.02,0,.03,0,.3-.65.86-1.15,1.54-1.38.34-1.39,1.6-2.42,3.08-2.42h.15c.84.04,1.62.4,2.2,1.02.48.52.77,1.18.83,1.87.46.32.84.76,1.08,1.27.86.47,1.39,1.39,1.35,2.39-.06,1.4-1.2,2.5-2.59,2.5Zm-2.29-1.54c.73,0,1.47,0,2.25.04l.05.75v-.75c.59,0,1.07-.46,1.09-1.06.02-.47-.26-.9-.71-1.07-.21-.08-.37-.25-.44-.46-.14-.42-.45-.77-.85-.96-.26-.12-.42-.39-.42-.67.02-.53-.14-.96-.44-1.29-.3-.33-.71-.52-1.16-.54h0c-.97,0-1.7.7-1.75,1.58-.02.37-.32.67-.69.7-.5.04-.92.44-.99.94-.03.22-.15.41-.33.53-.18.12-.41.15-.61.09-.12-.03-.23-.02-.28-.05-.67,0-1.15.46-1.17,1.05-.03.6.45,1.12,1.05,1.14,1.29.06,2.52.04,3.75.03.55,0,1.1-.01,1.66-.01Z"/>
  </g>
  <g>
    <path class="cls-1" d="m48.37,11.84c1.46,0,2.64,1.17,2.64,2.63s-1.18,2.64-2.64,2.64-2.64-1.18-2.64-2.64,1.19-2.63,2.64-2.63Z"/>
    <path class="cls-2" d="m49.38,12.98c1.38,0,2.51,1.12,2.51,2.5s-1.12,2.5-2.51,2.5-2.51-1.12-2.51-2.5,1.13-2.5,2.51-2.5Z"/>
    <path class="cls-3" d="m48.37,17.85c-1.87,0-3.39-1.52-3.39-3.39s1.52-3.38,3.39-3.38,3.39,1.52,3.39,3.38-1.52,3.39-3.39,3.39Zm0-5.27c-1.04,0-1.89.84-1.89,1.88s.85,1.89,1.89,1.89,1.89-.85,1.89-1.89-.85-1.88-1.89-1.88Z"/>
  </g>
  <path class="cls-3" d="m48.37,10.72c-.41,0-.75-.34-.75-.75v-1.64c0-.41.34-.75.75-.75s.75.34.75.75v1.64c0,.41-.34.75-.75.75Z"/>
  <path class="cls-3" d="m51.55,12.04c-.19,0-.38-.07-.53-.22-.29-.29-.29-.77,0-1.06l1.16-1.16c.29-.29.77-.29,1.06,0,.29.29.29.77,0,1.06l-1.16,1.16c-.15.15-.34.22-.53.22Z"/>
  <path class="cls-3" d="m54.51,15.22h-1.63c-.41,0-.75-.34-.75-.75s.34-.75.75-.75h1.63c.41,0,.75.34.75.75s-.34.75-.75.75Z"/>
  <path class="cls-3" d="m52.71,19.56c-.19,0-.38-.07-.53-.22l-1.16-1.16c-.29-.29-.29-.77,0-1.06.29-.29.77-.29,1.06,0l1.16,1.16c.29.29.29.77,0,1.06-.15.15-.34.22-.53.22Z"/>
  <path class="cls-3" d="m48.37,21.35c-.41,0-.75-.34-.75-.75v-1.64c0-.41.34-.75.75-.75s.75.34.75.75v1.64c0,.41-.34.75-.75.75Z"/>
  <path class="cls-3" d="m44.03,19.56c-.19,0-.38-.07-.53-.22-.29-.29-.29-.77,0-1.06l1.16-1.16c.29-.29.77-.29,1.06,0,.29.29.29.77,0,1.06l-1.16,1.16c-.15.15-.34.22-.53.22Z"/>
  <path class="cls-3" d="m43.87,15.22h-1.63c-.41,0-.75-.34-.75-.75s.34-.75.75-.75h1.63c.41,0,.75.34.75.75s-.34.75-.75.75Z"/>
  <path class="cls-3" d="m45.19,12.04c-.19,0-.38-.07-.53-.22l-1.16-1.16c-.29-.29-.29-.77,0-1.06.29-.29.77-.29,1.06,0l1.16,1.16c.29.29.29.77,0,1.06-.15.15-.34.22-.53.22Z"/>
  <path class="cls-3" d="m61.65,79.54H9.03c-.41,0-.75-.34-.75-.75s.34-.75.75-.75h52.62c.41,0,.75.34.75.75s-.34.75-.75.75Z"/>
  <path class="cls-3" d="m67.46,79.54h-4.18c-.41,0-.75-.34-.75-.75s.34-.75.75-.75h4.18c.41,0,.75.34.75.75s-.34.75-.75.75Z"/>
  <path class="cls-3" d="m71,79.54h-2.02c-.41,0-.75-.34-.75-.75s.34-.75.75-.75h2.02c.41,0,.75.34.75.75s-.34.75-.75.75Z"/>
  <path class="cls-3" d="m58.61,84.04H25.37c-.41,0-.75-.34-.75-.75s.34-.75.75-.75h33.24c.41,0,.75.34.75.75s-.34.75-.75.75Z"/>
  <path class="cls-3" d="m24.33,84.04h-2.64c-.41,0-.75-.34-.75-.75s.34-.75.75-.75h2.64c.41,0,.75.34.75.75s-.34.75-.75.75Z"/>
  <path class="cls-3" d="m20.73,84.04h-1.27c-.41,0-.75-.34-.75-.75s.34-.75.75-.75h1.27c.41,0,.75.34.75.75s-.34.75-.75.75Z"/>
  <path class="cls-3" d="m49.06,86.97h-24.38c-.41,0-.75-.34-.75-.75s.34-.75.75-.75h24.38c.41,0,.75.34.75.75s-.34.75-.75.75Z"/>
  <path class="cls-3" d="m51.75,86.97h-1.93c-.41,0-.75-.34-.75-.75s.34-.75.75-.75h1.93c.41,0,.75.34.75.75s-.34.75-.75.75Z"/>
  <path class="cls-3" d="m53.39,86.97h-.93c-.41,0-.75-.34-.75-.75s.34-.75.75-.75h.93c.41,0,.75.34.75.75s-.34.75-.75.75Z"/>
</svg>