<?xml version="1.0" encoding="UTF-8"?>
<svg id="_11" data-name="11" xmlns="http://www.w3.org/2000/svg" viewBox="0 0 124 102">
  <defs>
    <style>
      .cls-1 {
        fill: #fff;
      }

      .cls-2 {
        fill: #ffe724;
      }

      .cls-3 {
        fill: #231f20;
      }
    </style>
  </defs>
  <path class="cls-3" d="m86.62,70.03h-49.81c-3.58,0-6.5-2.91-6.5-6.49s2.92-6.5,6.5-6.5h49.31l12.47-29.61c.16-.38.6-.56.98-.4.38.16.56.6.4.98l-12.66,30.07c-.12.28-.39.46-.69.46h-49.81c-2.76,0-5,2.24-5,5s2.24,4.99,5,4.99h49.81c.41,0,.75.34.75.75s-.34.75-.75.75Z"/>
  <g>
    <path class="cls-1" d="m97.13,22.8h9.39c1.35,0,2.46,1.1,2.46,2.46h0c0,1.36-1.1,2.47-2.46,2.47h-9.39c-1.35,0-2.46-1.11-2.46-2.47h0c0-1.36,1.1-2.46,2.46-2.46Z"/>
    <path class="cls-2" d="m98.38,23.93h8.92c1.29,0,2.34,1.05,2.34,2.34h0c0,1.29-1.05,2.34-2.34,2.34h-8.92c-1.29,0-2.34-1.05-2.34-2.34h0c0-1.29,1.05-2.34,2.34-2.34Z"/>
    <path class="cls-3" d="m106.52,28.47h-9.39c-1.77,0-3.21-1.44-3.21-3.22s1.44-3.21,3.21-3.21h9.39c1.77,0,3.21,1.44,3.21,3.21s-1.44,3.22-3.21,3.22Zm-9.39-4.93c-.94,0-1.71.77-1.71,1.71s.77,1.72,1.71,1.72h9.39c.94,0,1.71-.77,1.71-1.72s-.77-1.71-1.71-1.71h-9.39Z"/>
  </g>
  <g>
    <path class="cls-1" d="m45.77,69.28c2.7,0,4.88,2.19,4.88,4.9s-2.19,4.89-4.88,4.89-4.89-2.19-4.89-4.89,2.19-4.9,4.89-4.9Z"/>
    <path class="cls-2" d="m46.78,70.53c2.56,0,4.64,2.08,4.64,4.65s-2.08,4.64-4.64,4.64-4.65-2.08-4.65-4.64,2.08-4.65,4.65-4.65Z"/>
    <path class="cls-3" d="m45.77,79.81c-3.11,0-5.64-2.53-5.64-5.64s2.53-5.65,5.64-5.65,5.63,2.53,5.63,5.65-2.53,5.64-5.63,5.64Zm0-9.78c-2.29,0-4.14,1.86-4.14,4.15s1.86,4.14,4.14,4.14,4.13-1.86,4.13-4.14-1.85-4.15-4.13-4.15Z"/>
  </g>
  <g>
    <path class="cls-1" d="m74.02,69.28c2.7,0,4.89,2.19,4.89,4.9s-2.19,4.89-4.89,4.89-4.89-2.19-4.89-4.89,2.19-4.9,4.89-4.9Z"/>
    <path class="cls-2" d="m75.03,70.53c2.57,0,4.65,2.08,4.65,4.65s-2.08,4.64-4.65,4.64-4.64-2.08-4.64-4.64,2.08-4.65,4.64-4.65Z"/>
    <path class="cls-3" d="m74.02,79.81c-3.11,0-5.64-2.53-5.64-5.64s2.53-5.65,5.64-5.65,5.64,2.53,5.64,5.65-2.53,5.64-5.64,5.64Zm0-9.78c-2.28,0-4.14,1.86-4.14,4.15s1.86,4.14,4.14,4.14,4.14-1.86,4.14-4.14-1.86-4.15-4.14-4.15Z"/>
  </g>
  <g>
    <path class="cls-1" d="m41.17,23.54h37.88c1.46,0,2.65,1.19,2.65,2.65v24.47c0,1.46-1.19,2.65-2.65,2.65h-37.88c-1.46,0-2.65-1.19-2.65-2.65v-24.48c0-1.46,1.19-2.65,2.65-2.65Z"/>
    <path class="cls-2" d="m43.13,25.3h35.98c1.39,0,2.52,1.13,2.52,2.52v23.27c0,1.38-1.13,2.51-2.52,2.51h-35.98c-1.39,0-2.52-1.13-2.52-2.51v-23.27c0-1.38,1.13-2.52,2.52-2.52Z"/>
    <path class="cls-3" d="m79.05,54.08h-37.88c-1.87,0-3.4-1.52-3.4-3.39v-24.49c0-1.87,1.53-3.4,3.4-3.4h37.88c1.88,0,3.4,1.53,3.4,3.4v24.49c0,1.87-1.53,3.39-3.4,3.39Zm-37.88-29.78c-1.05,0-1.9.85-1.9,1.9v24.49c0,1.04.85,1.89,1.9,1.89h37.88c1.05,0,1.9-.85,1.9-1.89v-24.49c0-1.05-.85-1.9-1.9-1.9h-37.88Z"/>
  </g>
  <path class="cls-3" d="m75.04,54.08c-.41,0-.75-.34-.75-.75v-29.78c0-.41.34-.75.75-.75s.75.34.75.75v29.78c0,.41-.34.75-.75.75Zm-29.86,0c-.41,0-.75-.34-.75-.75v-29.78c0-.41.34-.75.75-.75s.75.34.75.75v29.78c0,.41-.34.75-.75.75Z"/>
  <path class="cls-3" d="m68.93,43.1c-.18.02-.43-.1-.58-.27l-1.36-1.63c-.11-.13-.17-.3-.17-.48v-4.68c0-.41.34-.75.75-.75h2.75c.41,0,.75.34.75.75v4.68c0,.18-.06.35-.18.49l-1.39,1.63c-.14.17-.35.26-.57.26Zm-.61-2.66l.61.74.63-.74v-3.65h-1.25v3.66Zm-17.05,2.66h0c-.22,0-.43-.1-.57-.27l-1.35-1.63c-.11-.13-.17-.3-.17-.48v-4.68c0-.41.34-.75.75-.75h2.74c.41,0,.75.34.75.75v4.68c0,.18-.06.35-.18.48l-1.38,1.63c-.14.17-.35.27-.57.27Zm-.6-2.65l.61.74.63-.74v-3.65h-1.24v3.66Z"/>
  <g>
    <rect class="cls-1" x="54.12" y="17.34" width="12" height="6.2"/>
    <rect class="cls-2" x="55.42" y="18.5" width="11.4" height="5.89"/>
    <path class="cls-3" d="m66.11,24.29h-12c-.41,0-.75-.34-.75-.75v-6.2c0-.41.34-.75.75-.75h12c.41,0,.75.34.75.75v6.2c0,.41-.34.75-.75.75Zm-11.25-1.5h10.5v-4.7h-10.5v4.7Z"/>
  </g>
  <path class="cls-3" d="m75.04,33.81h-29.86c-.41,0-.75-.34-.75-.75s.34-.75.75-.75h29.86c.41,0,.75.34.75.75s-.34.75-.75.75Z"/>
  <path class="cls-3" d="m75.04,31.04h-29.86c-.41,0-.75-.34-.75-.75s.34-.75.75-.75h29.86c.41,0,.75.34.75.75s-.34.75-.75.75Z"/>
  <path class="cls-3" d="m90.46,80.27h-49.63c-.41,0-.75-.34-.75-.75s.34-.75.75-.75h49.63c.41,0,.75.34.75.75s-.34.75-.75.75Z"/>
  <path class="cls-3" d="m39.28,80.27h-3.94c-.41,0-.75-.34-.75-.75s.34-.75.75-.75h3.94c.41,0,.75.34.75.75s-.34.75-.75.75Z"/>
  <path class="cls-3" d="m33.91,80.27h-1.91c-.41,0-.75-.34-.75-.75s.34-.75.75-.75h1.91c.41,0,.75.34.75.75s-.34.75-.75.75Z"/>
  <path class="cls-3" d="m76.2,83.97h-36.4c-.41,0-.75-.34-.75-.75s.34-.75.75-.75h36.4c.41,0,.75.34.75.75s-.34.75-.75.75Z"/>
  <path class="cls-3" d="m80.22,83.97h-2.89c-.41,0-.75-.34-.75-.75s.34-.75.75-.75h2.89c.41,0,.75.34.75.75s-.34.75-.75.75Z"/>
  <path class="cls-3" d="m82.68,83.97h-1.4c-.41,0-.75-.34-.75-.75s.34-.75.75-.75h1.4c.41,0,.75.34.75.75s-.34.75-.75.75Z"/>
</svg>