<?xml version="1.0" encoding="UTF-8"?>
<svg id="_11" data-name="11" xmlns="http://www.w3.org/2000/svg" viewBox="0 0 124 101">
  <defs>
    <style>
      .cls-1 {
        fill: #fff;
      }

      .cls-2 {
        fill: #ffe724;
      }

      .cls-3 {
        fill: #231f20;
      }
    </style>
  </defs>
  <g>
    <path class="cls-1" d="m69.38,15.81h0c10.57,4.84,15.28,17.41,10.48,27.99l-38.52-17.6c4.87-10.54,17.47-15.22,28.04-10.39Z"/>
    <path class="cls-2" d="m69.99,17.47h0c10.04,4.6,14.52,16.54,9.96,26.59l-36.59-16.72c4.62-10.02,16.59-14.46,26.63-9.87Z"/>
    <path class="cls-3" d="m79.86,44.55c-.11,0-.21-.02-.31-.07l-38.52-17.6c-.18-.08-.32-.24-.39-.42-.07-.19-.06-.39.02-.58,3.57-7.73,11.41-12.73,19.98-12.73,3.14,0,6.18.66,9.05,1.97,10.96,5.02,15.83,18.02,10.86,28.98-.08.18-.23.32-.42.39-.08.03-.17.05-.26.05Zm-37.51-18.71l37.13,16.96c4.13-10.07-.43-21.74-10.41-26.31-2.67-1.22-5.5-1.83-8.42-1.83-7.73,0-14.83,4.37-18.29,11.18Z"/>
  </g>
  <g>
    <path class="cls-1" d="m69.38,15.81h0c7.02,3.21,8.82,14.46,4.01,25.03l-25.57-11.68c4.85-10.54,14.54-16.55,21.56-13.35Z"/>
    <path class="cls-2" d="m70.01,17.42h0c6.67,3.05,8.38,13.74,3.81,23.78l-24.29-11.1c4.61-10.01,13.81-15.72,20.48-12.68Z"/>
    <path class="cls-3" d="m73.39,41.59c-.11,0-.21-.02-.31-.07l-25.57-11.68c-.18-.08-.32-.23-.39-.42-.07-.19-.06-.39.02-.57,4.03-8.76,11.34-14.64,18.18-14.64,1.55,0,3.02.31,4.37.93,7.4,3.39,9.37,15.06,4.38,26.02-.08.18-.23.32-.42.39-.08.03-.17.05-.26.05Zm-24.57-12.8l24.19,11.05c4.26-10,2.56-20.37-3.94-23.35-1.15-.53-2.41-.79-3.75-.79-6,0-12.7,5.35-16.5,13.09Z"/>
  </g>
  <g>
    <path class="cls-1" d="m69.38,15.81h0c3.4,1.56,2.24,11.46-2.57,22.02l-12.4-5.67c4.84-10.55,11.57-17.9,14.98-16.35Z"/>
    <path class="cls-2" d="m70.06,17.36h0c3.23,1.48,2.13,10.89-2.44,20.92l-11.78-5.38c4.6-10.02,10.99-17.01,14.23-15.54Z"/>
    <path class="cls-3" d="m66.81,38.58c-.11,0-.21-.02-.31-.07l-12.4-5.67c-.18-.08-.32-.23-.39-.42-.07-.19-.06-.39.02-.57,4.52-9.85,10.69-17,14.67-17,.46,0,.9.09,1.3.27,4.46,2.04,2.19,13.38-2.2,23.02-.08.18-.23.32-.42.39-.08.03-.17.05-.26.05Zm-11.41-6.79l11.03,5.04c4.69-10.6,5.18-19.18,2.63-20.34-2.49-1.12-8.69,4.76-13.67,15.3Z"/>
  </g>
  <g>
    <polygon class="cls-1" points="59.23 34.37 61.98 35.63 51.54 58.43 48.63 58.43 48.37 58.12 59.23 34.37"/>
    <polygon class="cls-2" points="60.04 35.98 62.64 37.17 52.73 58.84 49.97 58.84 49.72 58.55 60.04 35.98"/>
    <path class="cls-3" d="m51.54,59.18h-2.91c-.22,0-.43-.1-.57-.26l-.27-.31c-.19-.22-.23-.53-.11-.8l10.86-23.75c.17-.38.62-.54.99-.37l2.74,1.25c.38.17.54.62.37.99l-10.43,22.81c-.12.27-.39.44-.68.44Zm-2.15-1.5h1.67l9.92-21.69-1.38-.63-10.21,22.32Z"/>
  </g>
  <g>
    <path class="cls-1" d="m48.63,58.43h51.59c1.15,0,2.08.94,2.08,2.08s-.94,2.09-2.08,2.09h-52.61s0,0,0,0h-.15s0,0,0,0h-.09s0,0,0,0h-.04s-.01,0-.01,0h-.04s0,0,0,0h-.04s-.02-.02-.02-.02h-.03s-.01,0-.01,0h-.04s-.02,0-.02,0h-.03s-.01-.02-.01-.02h-.03s-.02-.02-.02-.02h-.03s-.02-.02-.02-.02h-.03s-.02-.02-.02-.02c-.31-.12-.59-.31-.81-.58l-10.4-12.12c-.75-.88-.64-2.19.23-2.94h0c.87-.74,2.19-.65,2.93.22l9.77,11.4Z"/>
    <path class="cls-2" d="m50.65,59.24h49.01c1.09,0,1.98.89,1.98,1.98s-.89,1.98-1.98,1.98h-49.98s0,0,0,0h-.14s0,0,0,0h-.09s0,0,0,0h-.04s-.01,0-.01,0h-.04s0,0,0,0h-.03s-.02-.02-.02-.02h-.03s-.01,0-.01,0h-.03s-.02,0-.02,0h-.03s-.01-.02-.01-.02h-.03s-.02-.02-.02-.02h-.03s-.02-.02-.02-.02h-.03s-.02-.02-.02-.02c-.29-.11-.56-.29-.77-.55l-9.88-11.52c-.71-.83-.61-2.08.22-2.79h0c.82-.71,2.08-.61,2.79.21l9.28,10.83Z"/>
    <path class="cls-3" d="m100.22,63.35h-52.51s-.12,0-.18-.01c-.05,0-.11,0-.15,0-.04,0-.08,0-.11,0-.04,0-.06,0-.09-.01-.02,0-.04,0-.05,0-.02,0-.04,0-.06-.01-.02,0-.05-.01-.07-.02,0,0,0,0,0,0-.03,0-.06,0-.08-.01-.04,0-.09-.03-.13-.04-.01,0-.03,0-.04-.02-.02,0-.03-.01-.05-.02-.03-.01-.07-.03-.09-.04-.39-.15-.78-.42-1.08-.78l-10.39-12.12c-.49-.58-.73-1.31-.67-2.07.06-.75.41-1.44.98-1.93,1.13-.97,3.02-.83,3.99.3l9.55,11.14h51.24c1.56,0,2.83,1.27,2.83,2.83s-1.27,2.84-2.83,2.84Zm-52.49-1.5h52.49c.74,0,1.33-.6,1.33-1.34s-.6-1.33-1.33-1.33h-51.59c-.22,0-.43-.1-.57-.26l-9.77-11.4c-.45-.53-1.34-.6-1.88-.14-.27.23-.43.55-.46.91-.03.36.08.7.31.97l10.4,12.12c.14.17.31.29.51.36.01,0,.04.01.06.02.01,0,.03.01.04.02,0,0,0,0,0,0,.03,0,.06.01.09.02.01,0,.03,0,.04.01.02,0,.03,0,.05,0,0,0,.02,0,.02,0,.04,0,.06,0,.09,0h.02s.08,0,.12,0Z"/>
  </g>
  <path class="cls-3" d="m40.61,71.85h0c-.56,0-1.1-.2-1.52-.56-.47-.4-.76-.96-.81-1.59-.05-.63.15-1.23.55-1.71l6.18-7.21c.14-.17.35-.26.57-.26h0c.22,0,.42.09.57.26l.52.6c.14.17.32.29.51.36.01,0,.04.01.06.02.01,0,.03.01.04.02,0,0,0,0,0,0,.03,0,.06.01.09.02.01,0,.03,0,.04.01.02,0,.03,0,.05,0,0,0,.02,0,.02,0,.04,0,.06,0,.09,0h.02s.08,0,.12,0h.89c.29,0,.56.17.68.44.12.27.08.58-.11.8l-6.81,7.95c-.44.51-1.09.81-1.77.81Zm4.97-9.43l-5.61,6.55c-.14.17-.21.39-.2.61.02.22.12.42.29.56.34.29.9.25,1.18-.08l5.81-6.78s-.04-.01-.05-.02c0,0,0,0,0,0-.03,0-.06,0-.08-.01-.04-.01-.09-.03-.13-.04-.01,0-.03,0-.04-.01-.02,0-.03-.01-.05-.02-.03-.01-.07-.03-.09-.04-.37-.14-.73-.39-1.02-.71Zm53.01,9.26c-.69,0-1.34-.3-1.78-.82l-6.67-7.77c-.19-.22-.23-.54-.11-.8.12-.27.39-.44.68-.44h4.19c.22,0,.43.1.57.26l4.89,5.7c.84.98.73,2.46-.25,3.3-.42.36-.96.56-1.52.56Zm-6.25-8.33l5.61,6.54c.29.34.85.38,1.18.09.35-.3.39-.84.09-1.19l-4.67-5.44h-2.21Z"/>
  <g>
    <path class="cls-1" d="m89.47,16.36c1.85,0,3.36,1.5,3.36,3.36s-1.5,3.35-3.36,3.35-3.36-1.5-3.36-3.35,1.5-3.36,3.36-3.36Z"/>
    <path class="cls-2" d="m90.48,17.53c1.76,0,3.19,1.43,3.19,3.19s-1.43,3.18-3.19,3.18-3.19-1.43-3.19-3.18,1.43-3.19,3.19-3.19Z"/>
    <path class="cls-3" d="m89.47,23.82c-2.26,0-4.11-1.84-4.11-4.1s1.84-4.11,4.11-4.11,4.11,1.84,4.11,4.11-1.84,4.1-4.11,4.1Zm0-6.71c-1.44,0-2.61,1.17-2.61,2.61s1.17,2.6,2.61,2.6,2.61-1.17,2.61-2.6-1.17-2.61-2.61-2.61Z"/>
  </g>
  <path class="cls-3" d="m89.47,14.74c-.41,0-.75-.34-.75-.75v-2.08c0-.41.34-.75.75-.75s.75.34.75.75v2.08c0,.41-.34.75-.75.75Z"/>
  <path class="cls-3" d="m93.52,16.41c-.19,0-.38-.07-.53-.22-.29-.29-.29-.77,0-1.06l1.47-1.47c.29-.29.77-.29,1.06,0,.29.29.29.77,0,1.06l-1.47,1.47c-.15.15-.34.22-.53.22Z"/>
  <path class="cls-3" d="m97.28,20.47h-2.08c-.41,0-.75-.34-.75-.75s.34-.75.75-.75h2.08c.41,0,.75.34.75.75s-.34.75-.75.75Z"/>
  <path class="cls-3" d="m95,25.99c-.19,0-.38-.07-.53-.22l-1.47-1.48c-.29-.29-.29-.77,0-1.06.29-.29.77-.29,1.06,0l1.47,1.48c.29.29.29.77,0,1.06-.15.15-.34.22-.53.22Z"/>
  <path class="cls-3" d="m89.47,28.27c-.41,0-.75-.34-.75-.75v-2.08c0-.41.34-.75.75-.75s.75.34.75.75v2.08c0,.41-.34.75-.75.75Z"/>
  <path class="cls-3" d="m83.94,25.99c-.19,0-.38-.07-.53-.22-.29-.29-.29-.77,0-1.06l1.48-1.48c.29-.29.77-.29,1.06,0,.29.29.29.77,0,1.06l-1.48,1.48c-.15.15-.34.22-.53.22Z"/>
  <path class="cls-3" d="m83.74,20.47h-2.08c-.41,0-.75-.34-.75-.75s.34-.75.75-.75h2.08c.41,0,.75.34.75.75s-.34.75-.75.75Z"/>
  <path class="cls-3" d="m85.42,16.41c-.19,0-.38-.07-.53-.22l-1.48-1.47c-.29-.29-.3-.77,0-1.06.29-.29.77-.3,1.06,0l1.48,1.47c.29.29.3.77,0,1.06-.15.15-.34.22-.53.22Z"/>
  <path class="cls-3" d="m97.22,75.5H31.06c-.41,0-.75-.34-.75-.75s.34-.75.75-.75h66.16c.41,0,.75.34.75.75s-.34.75-.75.75Z"/>
  <path class="cls-3" d="m104.52,75.5h-5.25c-.41,0-.75-.34-.75-.75s.34-.75.75-.75h5.25c.41,0,.75.34.75.75s-.34.75-.75.75Z"/>
  <path class="cls-3" d="m108.98,75.5h-2.54c-.41,0-.75-.34-.75-.75s.34-.75.75-.75h2.54c.41,0,.75.34.75.75s-.34.75-.75.75Z"/>
  <path class="cls-3" d="m93.4,80.29h-41.8c-.41,0-.75-.34-.75-.75s.34-.75.75-.75h41.8c.41,0,.75.34.75.75s-.34.75-.75.75Z"/>
  <path class="cls-3" d="m50.3,80.29h-3.31c-.41,0-.75-.34-.75-.75s.34-.75.75-.75h3.31c.41,0,.75.34.75.75s-.34.75-.75.75Z"/>
  <path class="cls-3" d="m45.77,80.29h-1.61c-.41,0-.75-.34-.75-.75s.34-.75.75-.75h1.61c.41,0,.75.34.75.75s-.34.75-.75.75Z"/>
  <path class="cls-3" d="m81.39,83.4h-30.65c-.41,0-.75-.34-.75-.75s.34-.75.75-.75h30.65c.41,0,.75.34.75.75s-.34.75-.75.75Z"/>
  <path class="cls-3" d="m84.77,83.4h-2.43c-.41,0-.75-.34-.75-.75s.34-.75.75-.75h2.43c.41,0,.75.34.75.75s-.34.75-.75.75Z"/>
  <path class="cls-3" d="m86.84,83.4h-1.18c-.41,0-.75-.34-.75-.75s.34-.75.75-.75h1.18c.41,0,.75.34.75.75s-.34.75-.75.75Z"/>
</svg>