<?xml version="1.0" encoding="UTF-8"?>
<svg id="_11" data-name="11" xmlns="http://www.w3.org/2000/svg" viewBox="0 0 104 117">
  <defs>
    <style>
      .cls-1 {
        fill: #fff;
      }

      .cls-2 {
        fill: #ffe724;
      }

      .cls-3 {
        fill: #231f20;
      }
    </style>
  </defs>
  <g>
    <path class="cls-1" d="m32.63,21.36c15.11-3.83,30.2-4.03,45.31,0,1.92.51,3.63,1.62,3.63,3.62v36.54c0,.17-.02.34-.04.5H29.05c-.02-.16-.04-.33-.04-.5V24.97c0-1.99,1.69-3.13,3.62-3.62Z"/>
    <path class="cls-2" d="m34.78,23.31c14.35-3.64,28.69-3.83,43.05,0,1.83.48,3.44,1.54,3.44,3.43v34.71c0,.16-.02.32-.04.48H31.37c-.02-.15-.04-.31-.04-.48V26.74c0-1.89,1.61-2.98,3.44-3.43Z"/>
    <path class="cls-3" d="m81.53,62.76H29.05c-.37,0-.69-.27-.74-.64-.03-.19-.05-.4-.05-.61V24.97c0-2.1,1.53-3.68,4.19-4.34,7.77-1.97,15.55-2.97,23.12-2.97s15.17,1,22.56,2.98c2.66.7,4.18,2.29,4.18,4.34v36.54c0,.2-.02.4-.04.59-.05.37-.37.66-.74.66Zm-51.77-1.5h51.06V24.97c0-1.72-1.67-2.52-3.07-2.89-7.27-1.94-14.73-2.92-22.18-2.92s-15.1.98-22.76,2.93c-1.14.28-3.06,1.04-3.06,2.89v36.29Z"/>
  </g>
  <g>
    <rect class="cls-1" x="25.13" y="62.01" width="60.31" height="6.06"/>
    <rect class="cls-2" x="27.65" y="63.17" width="57.29" height="5.76"/>
    <path class="cls-3" d="m85.44,68.83H25.13c-.41,0-.75-.34-.75-.75v-6.06c0-.41.34-.75.75-.75h60.31c.41,0,.75.34.75.75v6.06c0,.41-.34.75-.75.75Zm-59.56-1.5h58.81v-4.56H25.88v4.56Z"/>
  </g>
  <g>
    <rect class="cls-1" x="34.32" y="27.84" width="41.94" height="14.74"/>
    <rect class="cls-2" x="36.38" y="29.21" width="39.85" height="14"/>
    <path class="cls-3" d="m76.26,43.32h-41.94c-.41,0-.75-.34-.75-.75v-14.74c0-.41.34-.75.75-.75h41.94c.41,0,.75.34.75.75v14.74c0,.41-.34.75-.75.75Zm-41.19-1.5h40.44v-13.24h-40.44v13.24Z"/>
  </g>
  <path class="cls-3" d="m73.19,57.97c-1.95,0-3.53-1.58-3.53-3.53s1.58-3.53,3.53-3.53,3.53,1.58,3.53,3.53-1.58,3.53-3.53,3.53Zm0-5.55c-1.12,0-2.03.91-2.03,2.03s.91,2.03,2.03,2.03,2.03-.91,2.03-2.03-.91-2.03-2.03-2.03Zm-35.8,5.55c-1.94,0-3.53-1.58-3.53-3.53s1.58-3.53,3.53-3.53,3.53,1.58,3.53,3.53-1.58,3.53-3.53,3.53Zm0-5.55c-1.12,0-2.03.91-2.03,2.03s.91,2.03,2.03,2.03,2.03-.91,2.03-2.03-.91-2.03-2.03-2.03Z"/>
  <g>
    <rect class="cls-1" x="45.23" y="52.92" width="20.12" height="3.03"/>
    <rect class="cls-2" x="46.74" y="54.01" width="19.12" height="2.88"/>
    <path class="cls-3" d="m65.35,56.7h-20.12c-.41,0-.75-.34-.75-.75v-3.03c0-.41.34-.75.75-.75h20.12c.41,0,.75.34.75.75v3.03c0,.41-.34.75-.75.75Zm-19.37-1.5h18.62v-1.53h-18.62v1.53Z"/>
  </g>
  <g>
    <rect class="cls-1" x="50.2" y="21.94" width="10.18" height="3.03"/>
    <rect class="cls-2" x="51.46" y="23.03" width="9.67" height="2.88"/>
    <path class="cls-3" d="m60.38,25.72h-10.18c-.41,0-.75-.34-.75-.75v-3.03c0-.41.34-.75.75-.75h10.18c.41,0,.75.34.75.75v3.03c0,.41-.34.75-.75.75Zm-9.43-1.5h8.68v-1.53h-8.68v1.53Z"/>
  </g>
  <g>
    <rect class="cls-1" x="81.57" y="36.17" width="5.04" height="13.13"/>
    <rect class="cls-2" x="82.71" y="37.51" width="4.79" height="12.48"/>
    <path class="cls-3" d="m86.62,50.06h-5.04c-.41,0-.75-.34-.75-.75v-13.13c0-.41.34-.75.75-.75h5.04c.41,0,.75.34.75.75v13.13c0,.41-.34.75-.75.75Zm-4.29-1.5h3.54v-11.63h-3.54v11.63Z"/>
  </g>
  <g>
    <rect class="cls-1" x="23.97" y="36.17" width="5.04" height="13.13"/>
    <rect class="cls-2" x="25.1" y="37.51" width="4.79" height="12.48"/>
    <path class="cls-3" d="m29.01,50.06h-5.04c-.41,0-.75-.34-.75-.75v-13.13c0-.41.34-.75.75-.75h5.04c.41,0,.75.34.75.75v13.13c0,.41-.34.75-.75.75Zm-4.29-1.5h3.54v-11.63h-3.54v11.63Z"/>
  </g>
  <path class="cls-3" d="m71.59,79.14c-2.97,0-5.38-2.41-5.38-5.38v-5.69c0-.41.34-.75.75-.75h9.26c.41,0,.75.34.75.75v5.69c0,2.96-2.41,5.38-5.38,5.38Zm-3.88-10.31v4.94c0,2.14,1.74,3.88,3.88,3.88s3.88-1.74,3.88-3.88v-4.94h-7.76Zm-28.71,10.31c-2.97,0-5.39-2.41-5.39-5.38v-5.69c0-.41.34-.75.75-.75h9.27c.41,0,.75.34.75.75v5.69c0,2.96-2.41,5.38-5.38,5.38Zm-3.89-10.31v4.94c0,2.14,1.74,3.88,3.89,3.88s3.88-1.74,3.88-3.88v-4.94h-7.77Z"/>
  <path class="cls-3" d="m55.29,43.32c-.41,0-.75-.34-.75-.75v-14.74c0-.41.34-.75.75-.75s.75.34.75.75v14.74c0,.41-.34.75-.75.75Z"/>
  <path class="cls-3" d="m82.22,79.64H16.06c-.41,0-.75-.34-.75-.75s.34-.75.75-.75h66.16c.41,0,.75.34.75.75s-.34.75-.75.75Z"/>
  <path class="cls-3" d="m89.52,79.64h-5.25c-.41,0-.75-.34-.75-.75s.34-.75.75-.75h5.25c.41,0,.75.34.75.75s-.34.75-.75.75Z"/>
  <path class="cls-3" d="m93.98,79.64h-2.54c-.41,0-.75-.34-.75-.75s.34-.75.75-.75h2.54c.41,0,.75.34.75.75s-.34.75-.75.75Z"/>
  <path class="cls-3" d="m78.4,84.25h-41.81c-.41,0-.75-.34-.75-.75s.34-.75.75-.75h41.81c.41,0,.75.34.75.75s-.34.75-.75.75Z"/>
  <path class="cls-3" d="m35.29,84.25h-3.32c-.41,0-.75-.34-.75-.75s.34-.75.75-.75h3.32c.41,0,.75.34.75.75s-.34.75-.75.75Z"/>
  <path class="cls-3" d="m30.77,84.25h-1.6c-.41,0-.75-.34-.75-.75s.34-.75.75-.75h1.6c.41,0,.75.34.75.75s-.34.75-.75.75Z"/>
  <path class="cls-3" d="m66.39,88.9h-30.66c-.41,0-.75-.34-.75-.75s.34-.75.75-.75h30.66c.41,0,.75.34.75.75s-.34.75-.75.75Z"/>
  <path class="cls-3" d="m69.77,88.9h-2.44c-.41,0-.75-.34-.75-.75s.34-.75.75-.75h2.44c.41,0,.75.34.75.75s-.34.75-.75.75Z"/>
  <path class="cls-3" d="m71.83,88.9h-1.18c-.41,0-.75-.34-.75-.75s.34-.75.75-.75h1.18c.41,0,.75.34.75.75s-.34.75-.75.75Z"/>
  <path class="cls-3" d="m64.06,37.99c-.27,0-.54-.15-.67-.41-.19-.37-.04-.82.33-1.01l4.12-2.08c.37-.19.82-.04,1.01.33.19.37.04.82-.33,1.01l-4.12,2.08c-.11.05-.22.08-.34.08Zm1.04-2.95c-.27,0-.54-.15-.67-.41-.19-.37-.04-.82.33-1.01l4.11-2.09c.37-.19.82-.04,1.01.33.19.37.04.82-.33,1.01l-4.11,2.09c-.11.06-.22.08-.34.08Z"/>
  <path class="cls-3" d="m41.89,37.99c-.27,0-.54-.15-.67-.41-.19-.37-.04-.82.33-1.01l4.11-2.08c.37-.19.82-.04,1.01.33.19.37.04.82-.33,1.01l-4.11,2.08c-.11.05-.22.08-.34.08Zm1.04-2.95c-.27,0-.54-.15-.67-.41-.19-.37-.04-.82.33-1.01l4.11-2.09c.37-.19.82-.04,1.01.33.19.37.04.82-.33,1.01l-4.11,2.09c-.11.06-.22.08-.34.08Z"/>
</svg>