<?xml version="1.0" encoding="UTF-8"?>
<svg id="_11" data-name="11" xmlns="http://www.w3.org/2000/svg" viewBox="0 0 84 109">
  <defs>
    <style>
      .cls-1 {
        fill: #fff;
      }

      .cls-2 {
        fill: #ffe724;
      }

      .cls-3 {
        fill: #231f20;
      }
    </style>
  </defs>
  <g>
    <path class="cls-1" d="m16.45,24.44l6.65,2.17c1.63,6.45,8.05,12.24,11.92,17.67l.35-.5v36.51l-18.92-6.18V24.44Z"/>
    <path class="cls-2" d="m17.93,26.84l6.32,2.07c1.55,6.13,7.65,11.63,11.32,16.78l.33-.47v34.68l-17.98-5.87V26.84Z"/>
    <path class="cls-3" d="m35.37,81.04c-.08,0-.16-.01-.23-.04l-18.92-6.18c-.31-.1-.52-.39-.52-.71V24.44c0-.24.12-.47.31-.61.19-.14.44-.18.67-.11l6.65,2.17c.24.08.43.28.49.53,1.1,4.37,4.53,8.47,7.85,12.44,1.22,1.46,2.38,2.84,3.41,4.22.16-.07.35-.08.52-.02.31.1.52.39.52.71v36.51c0,.24-.12.47-.31.61-.13.09-.28.14-.44.14Zm-18.17-7.48l17.42,5.69v-34.34c-.08-.05-.16-.12-.21-.2-1.13-1.58-2.47-3.19-3.89-4.88-3.33-3.98-6.76-8.09-8.04-12.63l-5.28-1.73v48.09Z"/>
  </g>
  <g>
    <path class="cls-1" d="m54.31,24.44l-7.44,2.43c-1.67,6.15-7.66,11.71-11.5,16.92v36.51l18.94-6.18V24.44Z"/>
    <path class="cls-2" d="m54.84,26.84l-7.06,2.3c-1.59,5.85-7.28,11.12-10.92,16.07v34.68l17.99-5.87V26.84Z"/>
    <path class="cls-3" d="m35.37,81.04c-.16,0-.31-.05-.44-.14-.19-.14-.31-.37-.31-.61v-36.51c0-.16.05-.32.15-.45,1.08-1.47,2.3-2.93,3.6-4.48,3.25-3.89,6.62-7.91,7.78-12.19.07-.24.25-.44.49-.52l7.44-2.43c.23-.08.48-.04.67.11.19.14.31.37.31.61v49.67c0,.32-.21.61-.52.71l-18.94,6.18c-.08.03-.15.04-.23.04Zm.75-37.01v35.22l17.44-5.69V25.47l-6.08,1.98c-1.33,4.44-4.7,8.47-7.97,12.37-1.22,1.46-2.37,2.84-3.39,4.21Z"/>
  </g>
  <g>
    <polygon class="cls-1" points="54.69 24.61 73.62 30.79 73.62 80.46 54.69 74.27 54.69 24.61"/>
    <polygon class="cls-2" points="56.17 27.02 74.15 32.89 74.15 80.08 56.17 74.19 56.17 27.02"/>
    <path class="cls-3" d="m73.62,81.21c-.08,0-.16-.01-.23-.04l-18.93-6.19c-.31-.1-.52-.39-.52-.71V24.61c0-.24.12-.47.31-.61.19-.14.44-.18.67-.11l18.93,6.18c.31.1.52.39.52.71v49.67c0,.24-.12.47-.31.61-.13.09-.28.14-.44.14Zm-18.18-7.49l17.43,5.7V31.34l-17.43-5.69v48.08Z"/>
  </g>
  <g>
    <path class="cls-1" d="m35.02,11.34c6.79,0,12.3,5.51,12.3,12.3,0,7.67-7.85,14.4-12.3,20.64-4.45-6.25-12.3-12.98-12.3-20.64,0-6.79,5.51-12.3,12.3-12.3Z"/>
    <path class="cls-2" d="m36.03,13.17c6.46,0,11.69,5.23,11.69,11.68,0,7.28-7.46,13.68-11.69,19.61-4.23-5.93-11.69-12.33-11.69-19.61,0-6.45,5.23-11.68,11.69-11.68Z"/>
    <path class="cls-3" d="m35.02,45.03c-.24,0-.47-.12-.61-.31-1.13-1.58-2.47-3.19-3.89-4.88-4.21-5.03-8.55-10.23-8.55-16.2,0-7.19,5.85-13.05,13.05-13.05s13.05,5.85,13.05,13.05c0,5.96-4.35,11.17-8.55,16.2-1.42,1.7-2.76,3.3-3.89,4.88-.14.2-.37.31-.61.31Zm0-32.94c-6.37,0-11.55,5.18-11.55,11.55,0,5.42,4.17,10.41,8.2,15.23,1.19,1.43,2.33,2.79,3.35,4.14,1.02-1.35,2.15-2.71,3.35-4.14,4.03-4.83,8.21-9.81,8.21-15.23,0-6.37-5.18-11.55-11.55-11.55Z"/>
  </g>
  <g>
    <path class="cls-1" d="m35.02,18.29c3.03,0,5.49,2.46,5.49,5.49s-2.46,5.49-5.49,5.49-5.49-2.46-5.49-5.49,2.46-5.49,5.49-5.49Z"/>
    <path class="cls-2" d="m36.03,19.58c2.88,0,5.22,2.33,5.22,5.21s-2.33,5.22-5.22,5.22-5.21-2.33-5.21-5.22,2.33-5.21,5.21-5.21Z"/>
    <path class="cls-3" d="m35.02,30.02c-3.44,0-6.24-2.8-6.24-6.24s2.8-6.24,6.24-6.24,6.24,2.8,6.24,6.24-2.8,6.24-6.24,6.24Zm0-10.98c-2.61,0-4.74,2.13-4.74,4.74s2.13,4.74,4.74,4.74,4.74-2.13,4.74-4.74-2.13-4.74-4.74-4.74Z"/>
  </g>
  <path class="cls-3" d="m75.1,86.16H24.02c-.41,0-.75-.34-.75-.75s.34-.75.75-.75h51.09c.41,0,.75.34.75.75s-.34.75-.75.75Z"/>
  <path class="cls-3" d="m22.42,86.16h-4.05c-.41,0-.75-.34-.75-.75s.34-.75.75-.75h4.05c.41,0,.75.34.75.75s-.34.75-.75.75Z"/>
  <path class="cls-3" d="m16.89,86.16h-1.96c-.41,0-.75-.34-.75-.75s.34-.75.75-.75h1.96c.41,0,.75.34.75.75s-.34.75-.75.75Z"/>
  <path class="cls-3" d="m60.42,89.97H22.96c-.41,0-.75-.34-.75-.75s.34-.75.75-.75h37.47c.41,0,.75.34.75.75s-.34.75-.75.75Z"/>
  <path class="cls-3" d="m64.56,89.97h-2.97c-.41,0-.75-.34-.75-.75s.34-.75.75-.75h2.97c.41,0,.75.34.75.75s-.34.75-.75.75Z"/>
  <path class="cls-3" d="m67.08,89.97h-1.44c-.41,0-.75-.34-.75-.75s.34-.75.75-.75h1.44c.41,0,.75.34.75.75s-.34.75-.75.75Z"/>
  <path class="cls-3" d="m62.11,65.39c-5.49,0-12.15-1.47-14.6-8.03-3.88-10.35-24.33-3.57-24.54-3.5-.39.13-.82-.08-.95-.47-.13-.39.08-.82.47-.95.9-.3,22.04-7.31,26.42,4.4,3.9,10.4,20.85,6.16,21.02,6.12.4-.1.81.14.91.54.1.4-.14.81-.54.91-.33.09-3.91.98-8.19.98Z"/>
</svg>