<?xml version="1.0" encoding="UTF-8"?>
<svg id="_11" data-name="11" xmlns="http://www.w3.org/2000/svg" viewBox="0 0 101 109">
  <defs>
    <style>
      .cls-1 {
        fill: #fff;
      }

      .cls-2 {
        fill: #ffe724;
      }

      .cls-3 {
        fill: #231f20;
      }
    </style>
  </defs>
  <g>
    <path class="cls-1" d="m29.5,20.15c19.84,7.96,32.45,26.06,33.92,59.78H29.5V20.15Z"/>
    <path class="cls-2" d="m31.36,22.65c18.85,7.57,30.83,24.75,32.22,56.8H31.36V22.65Z"/>
    <path class="cls-3" d="m63.44,80.68s-.01,0-.02,0H29.5c-.41,0-.75-.34-.75-.75V20.15c0-.25.12-.48.33-.62.21-.14.47-.17.7-.08,21.71,8.72,32.96,28.43,34.38,60.28.02.07.03.13.03.21,0,.41-.33.75-.75.75Zm-33.19-1.5h32.38c-1.48-30.33-12.09-49.29-32.38-57.91v57.91Z"/>
  </g>
  <path class="cls-3" d="m29.5,20.9c-.41,0-.75-.34-.75-.75v-8.81c0-.41.34-.75.75-.75s.75.34.75.75v8.81c0,.41-.34.75-.75.75Z"/>
  <path class="cls-3" d="m72.65,80.68H23.35c-.41,0-.75-.34-.75-.75s.34-.75.75-.75h49.3c.41,0,.75.34.75.75s-.34.75-.75.75Z"/>
  <path class="cls-3" d="m55.5,32.49H19.28c-.41,0-.75-.34-.75-.75s.34-.75.75-.75h35.47v-3.89c0-.41.34-.75.75-.75s.75.34.75.75v4.64c0,.41-.34.75-.75.75Z"/>
  <path class="cls-3" d="m58.16,75.1h-25.13c-.41,0-.75-.34-.75-.75V31.73c0-.41.34-.75.75-.75s.75.34.75.75v41.86h23.59c-1.06-20.97-7.98-34.47-21.16-41.27-.37-.19-.51-.64-.32-1.01.19-.37.64-.51,1.01-.32,13.86,7.15,21.05,21.32,22,43.32,0,.2-.07.4-.21.55-.14.15-.34.23-.54.23Z"/>
  <path class="cls-3" d="m58.33,27.85h-5.66c-.41,0-.75-.34-.75-.75s.34-.75.75-.75h5.66c.41,0,.75.34.75.75s-.34.75-.75.75Z"/>
  <path class="cls-3" d="m40.51,39.71h-7.48c-.41,0-.75-.34-.75-.75s.34-.75.75-.75h7.48c.41,0,.75.34.75.75s-.34.75-.75.75Z"/>
  <path class="cls-3" d="m44.01,43.34h-10.98c-.41,0-.75-.34-.75-.75s.34-.75.75-.75h10.98c.41,0,.75.34.75.75s-.34.75-.75.75Z"/>
  <path class="cls-3" d="m46.62,46.96h-13.6c-.41,0-.75-.34-.75-.75s.34-.75.75-.75h13.6c.41,0,.75.34.75.75s-.34.75-.75.75Z"/>
  <path class="cls-3" d="m48.35,50.58h-15.32c-.41,0-.75-.34-.75-.75s.34-.75.75-.75h15.32c.41,0,.75.34.75.75s-.34.75-.75.75Z"/>
  <path class="cls-3" d="m49.65,54.22h-16.62c-.41,0-.75-.34-.75-.75s.34-.75.75-.75h16.62c.41,0,.75.34.75.75s-.34.75-.75.75Z"/>
  <path class="cls-3" d="m50.85,57.84h-17.83c-.41,0-.75-.34-.75-.75s.34-.75.75-.75h17.83c.41,0,.75.34.75.75s-.34.75-.75.75Z"/>
  <path class="cls-3" d="m51.81,61.46h-18.78c-.41,0-.75-.34-.75-.75s.34-.75.75-.75h18.78c.41,0,.75.34.75.75s-.34.75-.75.75Z"/>
  <path class="cls-3" d="m53.02,65.1h-19.99c-.41,0-.75-.34-.75-.75s.34-.75.75-.75h19.99c.41,0,.75.34.75.75s-.34.75-.75.75Z"/>
  <path class="cls-3" d="m53.93,68.72h-20.9c-.41,0-.75-.34-.75-.75s.34-.75.75-.75h20.9c.41,0,.75.34.75.75s-.34.75-.75.75Z"/>
  <path class="cls-3" d="m54.57,72.34h-21.55c-.41,0-.75-.34-.75-.75s.34-.75.75-.75h21.55c.41,0,.75.34.75.75s-.34.75-.75.75Z"/>
  <path class="cls-3" d="m70.38,83.47H15.99c-.41,0-.75-.34-.75-.75s.34-.75.75-.75h54.39c.41,0,.75.34.75.75s-.34.75-.75.75Z"/>
  <path class="cls-3" d="m76.39,83.47h-4.31c-.41,0-.75-.34-.75-.75s.34-.75.75-.75h4.31c.41,0,.75.34.75.75s-.34.75-.75.75Z"/>
  <path class="cls-3" d="m80.05,83.47h-2.09c-.41,0-.75-.34-.75-.75s.34-.75.75-.75h2.09c.41,0,.75.34.75.75s-.34.75-.75.75Z"/>
  <path class="cls-3" d="m67.24,86.83h-34.37c-.41,0-.75-.34-.75-.75s.34-.75.75-.75h34.37c.41,0,.75.34.75.75s-.34.75-.75.75Z"/>
  <path class="cls-3" d="m31.8,86.83h-2.73c-.41,0-.75-.34-.75-.75s.34-.75.75-.75h2.73c.41,0,.75.34.75.75s-.34.75-.75.75Z"/>
  <path class="cls-3" d="m28.08,86.83h-1.32c-.41,0-.75-.34-.75-.75s.34-.75.75-.75h1.32c.41,0,.75.34.75.75s-.34.75-.75.75Z"/>
  <path class="cls-3" d="m57.36,89.97h-25.2c-.41,0-.75-.34-.75-.75s.34-.75.75-.75h25.2c.41,0,.75.34.75.75s-.34.75-.75.75Z"/>
  <path class="cls-3" d="m60.14,89.97h-1.99c-.41,0-.75-.34-.75-.75s.34-.75.75-.75h1.99c.41,0,.75.34.75.75s-.34.75-.75.75Z"/>
  <path class="cls-3" d="m61.84,89.97h-.97c-.41,0-.75-.34-.75-.75s.34-.75.75-.75h.97c.41,0,.75.34.75.75s-.34.75-.75.75Z"/>
</svg>