<?xml version="1.0" encoding="UTF-8"?>
<svg id="_11" data-name="11" xmlns="http://www.w3.org/2000/svg" viewBox="0 0 102 105">
  <defs>
    <style>
      .cls-1 {
        fill: #fff;
      }

      .cls-2 {
        fill: #ffe724;
      }

      .cls-3 {
        fill: #231f20;
      }
    </style>
  </defs>
  <path class="cls-3" d="m44.68,89.97c-7.58,0-15.64-1.96-15.64-5.6,0-3.02,5.49-4.72,10.62-5.31.42-.04.78.25.83.66.05.41-.25.78-.66.83-6.03.69-9.29,2.48-9.29,3.82,0,1.71,5.38,4.1,14.14,4.1s14.14-2.39,14.14-4.1c0-1.34-3.26-3.13-9.29-3.82-.41-.05-.71-.42-.66-.83.05-.41.42-.71.83-.66,5.13.59,10.62,2.29,10.62,5.31,0,3.63-8.06,5.6-15.64,5.6Z"/>
  <path class="cls-3" d="m49.62,86.31h-9.87c-.41,0-.75-.34-.75-.75v-22.44c0-.33.22-.63.54-.72l9.87-2.81c.23-.06.47-.02.66.12.19.14.3.36.3.6v25.25c0,.41-.34.75-.75.75Zm-9.12-1.5h8.37v-23.5l-8.37,2.38v21.12Zm-.75-35.87c-.16,0-.32-.05-.45-.15-.19-.14-.3-.36-.3-.6v-3.46c0-.22.09-.42.26-.57.16-.14.38-.21.6-.18l8.14,1.14c.35.05.62.34.64.69.02.35-.2.68-.54.77l-8.14,2.32c-.07.02-.14.03-.21.03Zm.75-3.35v1.6l3.77-1.08-3.77-.53Zm9.12-13.24s-.07,0-.1,0l-7.58-1.07s0,0,0,0l-2.29-.32c-.37-.05-.64-.37-.64-.74,0-.04,0-.07,0-.11.06-.41.44-.7.85-.64l2.16.31,7.46-1.45c.22-.04.45.02.62.16.17.14.27.36.27.58v2.54c0,.22-.09.42-.26.57-.14.12-.31.18-.49.18Zm-3.05-1.94l2.3.32v-.77l-2.3.45Zm-6.82-10.36c-.17,0-.34-.06-.48-.17-.17-.14-.27-.36-.27-.58v-7.97c0-.41.34-.75.75-.75h9.87c.41,0,.75.34.75.75v6.05c0,.36-.25.67-.61.74l-9.87,1.92s-.1.01-.14.01Zm.75-7.97v6.31l8.37-1.63v-4.68h-8.37Z"/>
  <g>
    <polygon class="cls-1" points="31.67 20.88 56.31 16.08 64.33 19.93 58.51 27.32 42.04 30.53 33.32 29.31 31.67 20.88"/>
    <polygon class="cls-2" points="33.5 22.01 56.91 17.45 64.52 21.11 58.99 28.13 43.34 31.18 35.06 30.02 33.5 22.01"/>
    <path class="cls-3" d="m42.04,31.28s-.07,0-.1,0l-8.72-1.22c-.32-.04-.57-.29-.63-.6l-1.65-8.43c-.04-.2,0-.4.11-.56.11-.16.28-.28.48-.32l24.64-4.8c.16-.03.32,0,.47.06l8.01,3.85c.21.1.35.28.41.51.05.22,0,.46-.14.63l-5.82,7.39c-.11.14-.27.24-.45.27l-16.47,3.22s-.1.01-.14.01Zm-8.08-2.64l8.06,1.13,16.08-3.14,5.06-6.44-6.94-3.34-23.66,4.61,1.4,7.17Z"/>
  </g>
  <g>
    <polygon class="cls-1" points="32.44 65.2 69.29 54.7 75.9 45.73 65.1 40.96 28.25 51.45 32.44 65.2"/>
    <polygon class="cls-2" points="34.43 65.6 69.44 55.63 75.71 47.11 65.46 42.57 30.45 52.54 34.43 65.6"/>
    <path class="cls-3" d="m32.44,65.95c-.32,0-.62-.21-.72-.53l-4.2-13.74c-.06-.19-.04-.4.06-.58s.26-.31.45-.36l36.85-10.5c.17-.05.35-.04.51.04l10.8,4.77c.21.09.36.27.42.49.06.22.01.45-.12.64l-6.61,8.97c-.1.13-.24.23-.4.28l-36.85,10.49c-.07.02-.14.03-.21.03Zm-3.25-13.98l3.76,12.31,35.9-10.22,5.9-8.01-9.69-4.29-35.86,10.21Z"/>
  </g>
  <g>
    <polygon class="cls-1" points="61.1 33.21 29.92 28.83 20.14 34.19 27.92 43.07 47.89 45.87 59.79 42.48 61.1 33.21"/>
    <polygon class="cls-2" points="61.08 34.43 31.46 30.27 22.17 35.36 29.56 43.79 48.53 46.45 59.84 43.23 61.08 34.43"/>
    <path class="cls-3" d="m47.89,46.62s-.07,0-.1,0l-19.97-2.8c-.18-.03-.34-.11-.46-.25l-7.78-8.88c-.15-.17-.21-.4-.17-.62.04-.22.18-.42.38-.53l9.78-5.36c.14-.08.3-.11.46-.08l31.18,4.38c.2.03.37.13.49.29.12.16.17.36.14.56l-1.31,9.26c-.04.29-.25.54-.54.62l-11.91,3.39c-.07.02-.14.03-.21.03Zm-19.59-4.25l19.54,2.74,11.28-3.21,1.13-8.04-30.19-4.24-8.74,4.79,6.98,7.96Z"/>
  </g>
  <g>
    <path class="cls-1" d="m48,21.71c.88,0,1.59.71,1.59,1.6s-.71,1.59-1.59,1.59-1.6-.71-1.6-1.59.72-1.6,1.6-1.6Z"/>
    <path class="cls-2" d="m49.01,22.8c.83,0,1.51.68,1.51,1.52s-.68,1.51-1.51,1.51-1.52-.68-1.52-1.51.68-1.52,1.52-1.52Z"/>
    <path class="cls-3" d="m48,25.65c-1.3,0-2.35-1.05-2.35-2.34s1.05-2.35,2.35-2.35,2.34,1.05,2.34,2.35-1.05,2.34-2.34,2.34Zm0-3.19c-.47,0-.85.38-.85.85s.38.84.85.84.84-.38.84-.84-.38-.85-.84-.85Z"/>
  </g>
  <g>
    <path class="cls-1" d="m40.62,35.63c.88,0,1.59.71,1.59,1.59s-.71,1.6-1.59,1.6-1.59-.71-1.59-1.6.71-1.59,1.59-1.59Z"/>
    <path class="cls-2" d="m41.62,36.71c.84,0,1.51.68,1.51,1.51s-.68,1.52-1.51,1.52-1.51-.68-1.51-1.52.67-1.51,1.51-1.51Z"/>
    <path class="cls-3" d="m40.62,39.56c-1.29,0-2.34-1.05-2.34-2.35s1.05-2.34,2.34-2.34,2.34,1.05,2.34,2.34-1.05,2.35-2.34,2.35Zm0-3.18c-.46,0-.84.38-.84.84s.37.85.84.85.84-.38.84-.85-.38-.84-.84-.84Z"/>
  </g>
  <g>
    <path class="cls-1" d="m52.07,50.42c.88,0,1.59.71,1.59,1.59s-.71,1.6-1.59,1.6-1.59-.71-1.59-1.6.71-1.59,1.59-1.59Z"/>
    <path class="cls-2" d="m53.08,51.5c.84,0,1.51.68,1.51,1.51s-.68,1.52-1.51,1.52-1.51-.68-1.51-1.52.68-1.51,1.51-1.51Z"/>
    <path class="cls-3" d="m52.07,54.35c-1.29,0-2.34-1.05-2.34-2.35s1.05-2.34,2.34-2.34,2.34,1.05,2.34,2.34-1.05,2.35-2.34,2.35Zm0-3.19c-.46,0-.84.38-.84.84s.38.85.84.85.84-.38.84-.85-.38-.84-.84-.84Z"/>
  </g>
</svg>